<?xml version="1.0" encoding="utf-8"?>

<!DOCTYPE svg PUBLIC "-//W3C//DTD SVG 1.1//EN" "http://www.w3.org/Graphics/SVG/1.1/DTD/svg11.dtd">
<svg version="1.1" id="Layer_1" xmlns="http://www.w3.org/2000/svg" xmlns:xlink="http://www.w3.org/1999/xlink" x="0px" y="0px"
	 width="200px" height="200px" viewBox="796 796 200 200" enable-background="new 796 796 200 200" xml:space="preserve">
<g>
	<path d="M908.408,938.408c1.317-2.947,0.854-7.776-4.878-7.776h-13.306c-5.732,0-6.196,4.829-4.878,7.776
		c3.367,7.526,5.853,12.458,5.853,12.458L885.947,996h21.861l-5.253-45.134C902.556,950.866,905.041,945.935,908.408,938.408z"/>
	<path d="M987.036,969.859c-4.79-16.711-14.067-31.511-26.438-43.043l22.646-24.587l-36.029-27.521l0,0
		c23.264-4.336,38.515-11.594,38.515-19.815c0-8.92-17.95-16.706-44.608-20.856c-1.584-6.147-5.643-21.794-7.315-27.231
		c-3.606-11.721-12.765-12.104-21.966-9.48c-6.464,1.843-10.25,2.718-14.963,2.718c-4.712,0-8.499-0.875-14.963-2.718
		c-9.2-2.624-18.358-2.241-21.965,9.48c-1.672,5.437-5.731,21.084-7.315,27.231c-26.66,4.15-44.61,11.937-44.61,20.856
		c0,8.222,15.251,15.479,38.515,19.815c0,0,0,0,0,0.001l-36.029,27.52l21.852,23.725c-12.85,11.65-22.488,26.771-27.4,43.905
		c-1.773,6.179-0.526,12.843,3.34,17.983c3.878,5.133,9.936,8.157,16.366,8.157h61.279c-23.55-41.139-30.557-79.207-30.56-95.124
		c9.214,15.327,24.361,25.328,41.487,25.328c17.129,0,32.279-10.003,41.493-25.332c-0.002,15.915-7.009,53.986-30.56,95.128h59.521
		c6.435,0,12.492-3.014,16.371-8.157C987.573,982.702,988.811,976.046,987.036,969.859z M853.164,831.984
		c6.299,3.753,23.916,7.731,43.713,7.731c19.798,0,37.415-3.978,43.714-7.731l3.264,13.141c-7.015,4.179-24.626,8.565-46.978,8.565
		c-22.351,0-39.962-4.386-46.977-8.565L853.164,831.984z"/>
</g>
</svg>
