<svg width="46" height="41" viewBox="0 0 46 41" fill="none" xmlns="http://www.w3.org/2000/svg">
<path d="M23.0009 29.0005C22.6053 29.0005 22.2187 29.1178 21.8898 29.3376C21.5609 29.5574 21.3045 29.8697 21.1532 30.2352C21.0018 30.6006 20.9622 31.0028 21.0393 31.3907C21.1165 31.7787 21.307 32.1351 21.5867 32.4148C21.8664 32.6945 22.2228 32.8849 22.6107 32.9621C22.9987 33.0393 23.4008 32.9997 23.7663 32.8483C24.1317 32.6969 24.4441 32.4406 24.6639 32.1117C24.8836 31.7828 25.0009 31.3961 25.0009 31.0005C25.0009 30.4701 24.7902 29.9614 24.4151 29.5863C24.0401 29.2113 23.5313 29.0005 23.0009 29.0005ZM44.3409 31.9405L28.2409 3.94054C27.7205 3.00757 26.9605 2.23046 26.0393 1.68948C25.1181 1.1485 24.0692 0.863281 23.0009 0.863281C21.9326 0.863281 20.8837 1.1485 19.9625 1.68948C19.0413 2.23046 18.2813 3.00757 17.7609 3.94054L1.76091 31.9405C1.2225 32.8486 0.933197 33.8826 0.922201 34.9382C0.911204 35.9938 1.17891 37.0336 1.69828 37.9526C2.21766 38.8717 2.97032 39.6375 3.88028 40.1726C4.79024 40.7077 5.82528 40.9933 6.88091 41.0005H39.1209C40.185 41.011 41.2328 40.7383 42.1567 40.2104C43.0807 39.6824 43.8476 38.9182 44.3789 37.9962C44.9101 37.0741 45.1866 36.0274 45.1799 34.9632C45.1732 33.8991 44.8837 32.8559 44.3409 31.9405V31.9405ZM40.8809 35.9405C40.7056 36.2524 40.4498 36.5116 40.1403 36.691C39.8307 36.8704 39.4787 36.9635 39.1209 36.9605H6.88091C6.52313 36.9635 6.17111 36.8704 5.86155 36.691C5.55199 36.5116 5.29622 36.2524 5.12091 35.9405C4.94537 35.6365 4.85296 35.2916 4.85296 34.9405C4.85296 34.5895 4.94537 34.2446 5.12091 33.9405L21.1209 5.94054C21.2887 5.61294 21.5437 5.33801 21.8578 5.14603C22.1719 4.95405 22.5328 4.85246 22.9009 4.85246C23.269 4.85246 23.63 4.95405 23.944 5.14603C24.2581 5.33801 24.5131 5.61294 24.6809 5.94054L40.7809 33.9405C40.9793 34.2402 41.0934 34.5878 41.111 34.9468C41.1286 35.3058 41.0491 35.6629 40.8809 35.9805V35.9405ZM23.0009 13.0005C22.4705 13.0005 21.9618 13.2113 21.5867 13.5863C21.2116 13.9614 21.0009 14.4701 21.0009 15.0005V23.0005C21.0009 23.531 21.2116 24.0397 21.5867 24.4148C21.9618 24.7898 22.4705 25.0005 23.0009 25.0005C23.5313 25.0005 24.0401 24.7898 24.4151 24.4148C24.7902 24.0397 25.0009 23.531 25.0009 23.0005V15.0005C25.0009 14.4701 24.7902 13.9614 24.4151 13.5863C24.0401 13.2113 23.5313 13.0005 23.0009 13.0005Z" fill="#39AEE2"/>
</svg>
