<svg width="40" height="42" viewBox="0 0 40 42" fill="none" xmlns="http://www.w3.org/2000/svg">
<path d="M27.421 22.4193C29.3818 20.8766 30.813 18.7611 31.5154 16.3672C32.2179 13.9732 32.1568 11.4198 31.3405 9.06221C30.5243 6.70461 28.9935 4.66006 26.9611 3.21298C24.9287 1.76591 22.4959 0.988281 20.001 0.988281C17.5061 0.988281 15.0732 1.76591 13.0408 3.21298C11.0085 4.66006 9.47766 6.70461 8.6614 9.06221C7.84513 11.4198 7.78399 13.9732 8.48649 16.3672C9.18899 18.7611 10.6202 20.8766 12.581 22.4193C9.22113 23.7654 6.28954 25.998 4.09876 28.8791C1.90797 31.7602 0.540096 35.1819 0.14097 38.7793C0.112079 39.0419 0.135203 39.3077 0.209021 39.5614C0.282839 39.8151 0.405905 40.0518 0.571193 40.2579C0.905008 40.6743 1.39054 40.9409 1.92097 40.9993C2.4514 41.0576 2.98329 40.9029 3.39962 40.569C3.81595 40.2352 4.08262 39.7497 4.14097 39.2193C4.58014 35.3097 6.44434 31.6989 9.37741 29.0769C12.3105 26.4548 16.1068 25.0053 20.041 25.0053C23.9752 25.0053 27.7715 26.4548 30.7045 29.0769C33.6376 31.6989 35.5018 35.3097 35.941 39.2193C35.9953 39.7107 36.2298 40.1646 36.5992 40.4933C36.9685 40.822 37.4465 41.0023 37.941 40.9993H38.161C38.6852 40.9389 39.1644 40.6739 39.4941 40.2618C39.8238 39.8497 39.9772 39.324 39.921 38.7993C39.52 35.1917 38.1447 31.7612 35.9427 28.8757C33.7406 25.9901 30.7948 23.7582 27.421 22.4193ZM20.001 20.9993C18.4187 20.9993 16.872 20.5301 15.5564 19.651C14.2408 18.772 13.2154 17.5226 12.6099 16.0607C12.0044 14.5989 11.846 12.9904 12.1547 11.4386C12.4634 9.8867 13.2253 8.46124 14.3441 7.34242C15.4629 6.2236 16.8884 5.46167 18.4402 5.15299C19.9921 4.84431 21.6006 5.00274 23.0624 5.60824C24.5242 6.21374 25.7737 7.23912 26.6527 8.55471C27.5318 9.8703 28.001 11.417 28.001 12.9993C28.001 15.121 27.1581 17.1558 25.6578 18.6561C24.1575 20.1564 22.1227 20.9993 20.001 20.9993Z" fill="#39AEE2"/>
</svg>
