<svg width="32" height="41" viewBox="0 0 32 41" fill="none" xmlns="http://www.w3.org/2000/svg">
<path d="M10 16.4509H12C12.5304 16.4509 13.0391 16.2402 13.4142 15.8651C13.7893 15.4901 14 14.9814 14 14.4509C14 13.9205 13.7893 13.4118 13.4142 13.0367C13.0391 12.6616 12.5304 12.4509 12 12.4509H10C9.46957 12.4509 8.96086 12.6616 8.58579 13.0367C8.21071 13.4118 8 13.9205 8 14.4509C8 14.9814 8.21071 15.4901 8.58579 15.8651C8.96086 16.2402 9.46957 16.4509 10 16.4509ZM10 20.4509C9.46957 20.4509 8.96086 20.6616 8.58579 21.0367C8.21071 21.4118 8 21.9205 8 22.4509C8 22.9814 8.21071 23.4901 8.58579 23.8651C8.96086 24.2402 9.46957 24.4509 10 24.4509H22C22.5304 24.4509 23.0391 24.2402 23.4142 23.8651C23.7893 23.4901 24 22.9814 24 22.4509C24 21.9205 23.7893 21.4118 23.4142 21.0367C23.0391 20.6616 22.5304 20.4509 22 20.4509H10ZM32 14.3309C31.9792 14.1472 31.9389 13.9662 31.88 13.7909V13.6109C31.7838 13.4053 31.6556 13.2163 31.5 13.0509L19.5 1.05093C19.3347 0.89536 19.1456 0.76709 18.94 0.670928C18.8803 0.662448 18.8197 0.662448 18.76 0.670928C18.5568 0.55441 18.3324 0.479616 18.1 0.450928H6C4.4087 0.450928 2.88258 1.08307 1.75736 2.20829C0.632141 3.33351 0 4.85963 0 6.45093V34.4509C0 36.0422 0.632141 37.5684 1.75736 38.6936C2.88258 39.8188 4.4087 40.4509 6 40.4509H26C27.5913 40.4509 29.1174 39.8188 30.2426 38.6936C31.3679 37.5684 32 36.0422 32 34.4509V14.4509C32 14.4509 32 14.4509 32 14.3309ZM20 7.27093L25.18 12.4509H22C21.4696 12.4509 20.9609 12.2402 20.5858 11.8651C20.2107 11.4901 20 10.9814 20 10.4509V7.27093ZM28 34.4509C28 34.9814 27.7893 35.4901 27.4142 35.8651C27.0391 36.2402 26.5304 36.4509 26 36.4509H6C5.46957 36.4509 4.96086 36.2402 4.58579 35.8651C4.21071 35.4901 4 34.9814 4 34.4509V6.45093C4 5.92049 4.21071 5.41179 4.58579 5.03671C4.96086 4.66164 5.46957 4.45093 6 4.45093H16V10.4509C16 12.0422 16.6321 13.5684 17.7574 14.6936C18.8826 15.8188 20.4087 16.4509 22 16.4509H28V34.4509ZM22 28.4509H10C9.46957 28.4509 8.96086 28.6616 8.58579 29.0367C8.21071 29.4118 8 29.9205 8 30.4509C8 30.9814 8.21071 31.4901 8.58579 31.8651C8.96086 32.2402 9.46957 32.4509 10 32.4509H22C22.5304 32.4509 23.0391 32.2402 23.4142 31.8651C23.7893 31.4901 24 30.9814 24 30.4509C24 29.9205 23.7893 29.4118 23.4142 29.0367C23.0391 28.6616 22.5304 28.4509 22 28.4509Z" fill="white"/>
<path d="M10 16.4509H12C12.5304 16.4509 13.0391 16.2402 13.4142 15.8651C13.7893 15.4901 14 14.9814 14 14.4509C14 13.9205 13.7893 13.4118 13.4142 13.0367C13.0391 12.6616 12.5304 12.4509 12 12.4509H10C9.46957 12.4509 8.96086 12.6616 8.58579 13.0367C8.21071 13.4118 8 13.9205 8 14.4509C8 14.9814 8.21071 15.4901 8.58579 15.8651C8.96086 16.2402 9.46957 16.4509 10 16.4509ZM10 20.4509C9.46957 20.4509 8.96086 20.6616 8.58579 21.0367C8.21071 21.4118 8 21.9205 8 22.4509C8 22.9814 8.21071 23.4901 8.58579 23.8651C8.96086 24.2402 9.46957 24.4509 10 24.4509H22C22.5304 24.4509 23.0391 24.2402 23.4142 23.8651C23.7893 23.4901 24 22.9814 24 22.4509C24 21.9205 23.7893 21.4118 23.4142 21.0367C23.0391 20.6616 22.5304 20.4509 22 20.4509H10ZM32 14.3309C31.9792 14.1472 31.9389 13.9662 31.88 13.7909V13.6109C31.7838 13.4053 31.6556 13.2163 31.5 13.0509L19.5 1.05093C19.3347 0.89536 19.1456 0.76709 18.94 0.670928C18.8803 0.662448 18.8197 0.662448 18.76 0.670928C18.5568 0.55441 18.3324 0.479616 18.1 0.450928H6C4.4087 0.450928 2.88258 1.08307 1.75736 2.20829C0.632141 3.33351 0 4.85963 0 6.45093V34.4509C0 36.0422 0.632141 37.5684 1.75736 38.6936C2.88258 39.8188 4.4087 40.4509 6 40.4509H26C27.5913 40.4509 29.1174 39.8188 30.2426 38.6936C31.3679 37.5684 32 36.0422 32 34.4509V14.4509C32 14.4509 32 14.4509 32 14.3309ZM20 7.27093L25.18 12.4509H22C21.4696 12.4509 20.9609 12.2402 20.5858 11.8651C20.2107 11.4901 20 10.9814 20 10.4509V7.27093ZM28 34.4509C28 34.9814 27.7893 35.4901 27.4142 35.8651C27.0391 36.2402 26.5304 36.4509 26 36.4509H6C5.46957 36.4509 4.96086 36.2402 4.58579 35.8651C4.21071 35.4901 4 34.9814 4 34.4509V6.45093C4 5.92049 4.21071 5.41179 4.58579 5.03671C4.96086 4.66164 5.46957 4.45093 6 4.45093H16V10.4509C16 12.0422 16.6321 13.5684 17.7574 14.6936C18.8826 15.8188 20.4087 16.4509 22 16.4509H28V34.4509ZM22 28.4509H10C9.46957 28.4509 8.96086 28.6616 8.58579 29.0367C8.21071 29.4118 8 29.9205 8 30.4509C8 30.9814 8.21071 31.4901 8.58579 31.8651C8.96086 32.2402 9.46957 32.4509 10 32.4509H22C22.5304 32.4509 23.0391 32.2402 23.4142 31.8651C23.7893 31.4901 24 30.9814 24 30.4509C24 29.9205 23.7893 29.4118 23.4142 29.0367C23.0391 28.6616 22.5304 28.4509 22 28.4509Z" fill="black" fill-opacity="0.1"/>
</svg>
