<svg width="41" height="41" viewBox="0 0 41 41" fill="none" xmlns="http://www.w3.org/2000/svg">
<path d="M38.5 0.450928H14.5C13.9696 0.450928 13.4609 0.661641 13.0858 1.03671C12.7107 1.41179 12.5 1.92049 12.5 2.45093V10.4509H8.5C7.96957 10.4509 7.46086 10.6616 7.08579 11.0367C6.71071 11.4118 6.5 11.9205 6.5 12.4509V20.4509H2.5C1.96957 20.4509 1.46086 20.6616 1.08579 21.0367C0.710714 21.4118 0.5 21.9205 0.5 22.4509V38.4509C0.5 38.9814 0.710714 39.4901 1.08579 39.8651C1.46086 40.2402 1.96957 40.4509 2.5 40.4509H18.5C19.0304 40.4509 19.5391 40.2402 19.9142 39.8651C20.2893 39.4901 20.5 38.9814 20.5 38.4509V34.4509H28.5C29.0304 34.4509 29.5391 34.2402 29.9142 33.8651C30.2893 33.4901 30.5 32.9814 30.5 32.4509V28.4509H38.5C39.0304 28.4509 39.5391 28.2402 39.9142 27.8651C40.2893 27.4901 40.5 26.9814 40.5 26.4509V2.45093C40.5 1.92049 40.2893 1.41179 39.9142 1.03671C39.5391 0.661641 39.0304 0.450928 38.5 0.450928ZM16.5 36.4509H4.5V24.4509H16.5V36.4509ZM26.5 30.4509H20.5V22.4509C20.5 21.9205 20.2893 21.4118 19.9142 21.0367C19.5391 20.6616 19.0304 20.4509 18.5 20.4509H10.5V14.4509H26.5V30.4509ZM36.5 24.4509H30.5V12.4509C30.5 11.9205 30.2893 11.4118 29.9142 11.0367C29.5391 10.6616 29.0304 10.4509 28.5 10.4509H16.5V4.45093H36.5V24.4509Z" fill="white"/>
<path d="M38.5 0.450928H14.5C13.9696 0.450928 13.4609 0.661641 13.0858 1.03671C12.7107 1.41179 12.5 1.92049 12.5 2.45093V10.4509H8.5C7.96957 10.4509 7.46086 10.6616 7.08579 11.0367C6.71071 11.4118 6.5 11.9205 6.5 12.4509V20.4509H2.5C1.96957 20.4509 1.46086 20.6616 1.08579 21.0367C0.710714 21.4118 0.5 21.9205 0.5 22.4509V38.4509C0.5 38.9814 0.710714 39.4901 1.08579 39.8651C1.46086 40.2402 1.96957 40.4509 2.5 40.4509H18.5C19.0304 40.4509 19.5391 40.2402 19.9142 39.8651C20.2893 39.4901 20.5 38.9814 20.5 38.4509V34.4509H28.5C29.0304 34.4509 29.5391 34.2402 29.9142 33.8651C30.2893 33.4901 30.5 32.9814 30.5 32.4509V28.4509H38.5C39.0304 28.4509 39.5391 28.2402 39.9142 27.8651C40.2893 27.4901 40.5 26.9814 40.5 26.4509V2.45093C40.5 1.92049 40.2893 1.41179 39.9142 1.03671C39.5391 0.661641 39.0304 0.450928 38.5 0.450928ZM16.5 36.4509H4.5V24.4509H16.5V36.4509ZM26.5 30.4509H20.5V22.4509C20.5 21.9205 20.2893 21.4118 19.9142 21.0367C19.5391 20.6616 19.0304 20.4509 18.5 20.4509H10.5V14.4509H26.5V30.4509ZM36.5 24.4509H30.5V12.4509C30.5 11.9205 30.2893 11.4118 29.9142 11.0367C29.5391 10.6616 29.0304 10.4509 28.5 10.4509H16.5V4.45093H36.5V24.4509Z" fill="black" fill-opacity="0.1"/>
</svg>
