<svg width="40" height="41" viewBox="0 0 40 41" fill="none" xmlns="http://www.w3.org/2000/svg">
<path d="M1.00079 14.1702L19.0008 24.5702C19.3048 24.7457 19.6497 24.8382 20.0008 24.8382C20.3519 24.8382 20.6968 24.7457 21.0008 24.5702L39.0008 14.1702C39.3031 13.9957 39.5544 13.7451 39.7298 13.4434C39.9053 13.1416 39.9987 12.7992 40.0008 12.4502C40.0022 12.0978 39.9104 11.7513 39.7348 11.4457C39.5592 11.1401 39.306 10.8864 39.0008 10.7102L21.0008 0.330205C20.6968 0.154669 20.3519 0.0622559 20.0008 0.0622559C19.6497 0.0622559 19.3048 0.154669 19.0008 0.330205L1.00079 10.7102C0.695585 10.8864 0.442356 11.1401 0.26675 11.4457C0.0911432 11.7513 -0.000605713 12.0978 0.000793422 12.4502C0.00290016 12.7992 0.0963113 13.1416 0.271743 13.4434C0.447174 13.7451 0.698518 13.9957 1.00079 14.1702ZM20.0008 4.4502L34.0008 12.4502L20.0008 20.4502L6.00079 12.4502L20.0008 4.4502ZM37.0008 18.7902L20.0008 28.4502L3.00079 18.7102C2.77253 18.578 2.52035 18.4922 2.25879 18.4578C1.99724 18.4235 1.73147 18.4412 1.47679 18.51C1.22211 18.5787 0.983549 18.6972 0.774855 18.8586C0.566161 19.02 0.391454 19.221 0.260794 19.4502C4.86672e-05 19.9094 -0.0684839 20.4532 0.0701499 20.9627C0.208784 21.4723 0.54333 21.9064 1.00079 22.1702L19.0008 32.5702C19.3048 32.7457 19.6497 32.8382 20.0008 32.8382C20.3519 32.8382 20.6968 32.7457 21.0008 32.5702L39.0008 22.1702C39.4583 21.9064 39.7928 21.4723 39.9314 20.9627C40.0701 20.4532 40.0015 19.9094 39.7408 19.4502C39.6101 19.221 39.4354 19.02 39.2267 18.8586C39.018 18.6972 38.7795 18.5787 38.5248 18.51C38.2701 18.4412 38.0043 18.4235 37.7428 18.4578C37.4812 18.4922 37.2291 18.578 37.0008 18.7102V18.7902ZM37.0008 26.7902L20.0008 36.4502L3.00079 26.7102C2.77253 26.578 2.52035 26.4922 2.25879 26.4578C1.99724 26.4235 1.73147 26.4412 1.47679 26.51C1.22211 26.5787 0.983549 26.6972 0.774855 26.8586C0.566161 27.02 0.391454 27.221 0.260794 27.4502C4.86672e-05 27.9094 -0.0684839 28.4532 0.0701499 28.9627C0.208784 29.4723 0.54333 29.9064 1.00079 30.1702L19.0008 40.5702C19.3048 40.7457 19.6497 40.8382 20.0008 40.8382C20.3519 40.8382 20.6968 40.7457 21.0008 40.5702L39.0008 30.1702C39.4583 29.9064 39.7928 29.4723 39.9314 28.9627C40.0701 28.4532 40.0015 27.9094 39.7408 27.4502C39.6101 27.221 39.4354 27.02 39.2267 26.8586C39.018 26.6972 38.7795 26.5787 38.5248 26.51C38.2701 26.4412 38.0043 26.4235 37.7428 26.4578C37.4812 26.4922 37.2291 26.578 37.0008 26.7102V26.7902Z" fill="white"/>
<path d="M1.00079 14.1702L19.0008 24.5702C19.3048 24.7457 19.6497 24.8382 20.0008 24.8382C20.3519 24.8382 20.6968 24.7457 21.0008 24.5702L39.0008 14.1702C39.3031 13.9957 39.5544 13.7451 39.7298 13.4434C39.9053 13.1416 39.9987 12.7992 40.0008 12.4502C40.0022 12.0978 39.9104 11.7513 39.7348 11.4457C39.5592 11.1401 39.306 10.8864 39.0008 10.7102L21.0008 0.330205C20.6968 0.154669 20.3519 0.0622559 20.0008 0.0622559C19.6497 0.0622559 19.3048 0.154669 19.0008 0.330205L1.00079 10.7102C0.695585 10.8864 0.442356 11.1401 0.26675 11.4457C0.0911432 11.7513 -0.000605713 12.0978 0.000793422 12.4502C0.00290016 12.7992 0.0963113 13.1416 0.271743 13.4434C0.447174 13.7451 0.698518 13.9957 1.00079 14.1702ZM20.0008 4.4502L34.0008 12.4502L20.0008 20.4502L6.00079 12.4502L20.0008 4.4502ZM37.0008 18.7902L20.0008 28.4502L3.00079 18.7102C2.77253 18.578 2.52035 18.4922 2.25879 18.4578C1.99724 18.4235 1.73147 18.4412 1.47679 18.51C1.22211 18.5787 0.983549 18.6972 0.774855 18.8586C0.566161 19.02 0.391454 19.221 0.260794 19.4502C4.86672e-05 19.9094 -0.0684839 20.4532 0.0701499 20.9627C0.208784 21.4723 0.54333 21.9064 1.00079 22.1702L19.0008 32.5702C19.3048 32.7457 19.6497 32.8382 20.0008 32.8382C20.3519 32.8382 20.6968 32.7457 21.0008 32.5702L39.0008 22.1702C39.4583 21.9064 39.7928 21.4723 39.9314 20.9627C40.0701 20.4532 40.0015 19.9094 39.7408 19.4502C39.6101 19.221 39.4354 19.02 39.2267 18.8586C39.018 18.6972 38.7795 18.5787 38.5248 18.51C38.2701 18.4412 38.0043 18.4235 37.7428 18.4578C37.4812 18.4922 37.2291 18.578 37.0008 18.7102V18.7902ZM37.0008 26.7902L20.0008 36.4502L3.00079 26.7102C2.77253 26.578 2.52035 26.4922 2.25879 26.4578C1.99724 26.4235 1.73147 26.4412 1.47679 26.51C1.22211 26.5787 0.983549 26.6972 0.774855 26.8586C0.566161 27.02 0.391454 27.221 0.260794 27.4502C4.86672e-05 27.9094 -0.0684839 28.4532 0.0701499 28.9627C0.208784 29.4723 0.54333 29.9064 1.00079 30.1702L19.0008 40.5702C19.3048 40.7457 19.6497 40.8382 20.0008 40.8382C20.3519 40.8382 20.6968 40.7457 21.0008 40.5702L39.0008 30.1702C39.4583 29.9064 39.7928 29.4723 39.9314 28.9627C40.0701 28.4532 40.0015 27.9094 39.7408 27.4502C39.6101 27.221 39.4354 27.02 39.2267 26.8586C39.018 26.6972 38.7795 26.5787 38.5248 26.51C38.2701 26.4412 38.0043 26.4235 37.7428 26.4578C37.4812 26.4922 37.2291 26.578 37.0008 26.7102V26.7902Z" fill="black" fill-opacity="0.1"/>
</svg>
