<svg width="40" height="41" viewBox="0 0 40 41" fill="none" xmlns="http://www.w3.org/2000/svg">
    <path d="M16 36.4509H6C5.46957 36.4509 4.96086 36.2402 4.58579 35.8651C4.21071 35.4901 4 34.9814 4 34.4509V6.45093C4 5.92049 4.21071 5.41179 4.58579 5.03671C4.96086 4.66164 5.46957 4.45093 6 4.45093H16V10.4509C16 12.0422 16.6321 13.5684 17.7574 14.6936C18.8826 15.8188 20.4087 16.4509 22 16.4509H30C30.3949 16.449 30.7803 16.3302 31.1077 16.1095C31.4352 15.8888 31.69 15.5762 31.84 15.2109C31.9932 14.8467 32.035 14.4453 31.9603 14.0573C31.8855 13.6693 31.6975 13.3122 31.42 13.0309L19.42 1.03093C19.2547 0.87536 19.0656 0.74709 18.86 0.650928C18.8003 0.642448 18.7397 0.642448 18.68 0.650928L18.12 0.450928H6C4.4087 0.450928 2.88258 1.08307 1.75736 2.20829C0.632141 3.33351 0 4.85963 0 6.45093V34.4509C0 36.0422 0.632141 37.5684 1.75736 38.6936C2.88258 39.8188 4.4087 40.4509 6 40.4509H16C16.5304 40.4509 17.0391 40.2402 17.4142 39.8651C17.7893 39.4901 18 38.9814 18 38.4509C18 37.9205 17.7893 37.4118 17.4142 37.0367C17.0391 36.6616 16.5304 36.4509 16 36.4509ZM20 7.27093L25.18 12.4509H22C21.4696 12.4509 20.9609 12.2402 20.5858 11.8651C20.2107 11.4901 20 10.9814 20 10.4509V7.27093ZM22 22.4509C22 21.9205 21.7893 21.4118 21.4142 21.0367C21.0391 20.6616 20.5304 20.4509 20 20.4509H10C9.46957 20.4509 8.96086 20.6616 8.58579 21.0367C8.21071 21.4118 8 21.9205 8 22.4509C8 22.9814 8.21071 23.4901 8.58579 23.8651C8.96086 24.2402 9.46957 24.4509 10 24.4509H20C20.5304 24.4509 21.0391 24.2402 21.4142 23.8651C21.7893 23.4901 22 22.9814 22 22.4509ZM10 16.4509H12C12.5304 16.4509 13.0391 16.2402 13.4142 15.8651C13.7893 15.4901 14 14.9814 14 14.4509C14 13.9205 13.7893 13.4118 13.4142 13.0367C13.0391 12.6616 12.5304 12.4509 12 12.4509H10C9.46957 12.4509 8.96086 12.6616 8.58579 13.0367C8.21071 13.4118 8 13.9205 8 14.4509C8 14.9814 8.21071 15.4901 8.58579 15.8651C8.96086 16.2402 9.46957 16.4509 10 16.4509ZM10 28.4509C9.46957 28.4509 8.96086 28.6616 8.58579 29.0367C8.21071 29.4118 8 29.9205 8 30.4509C8 30.9814 8.21071 31.4901 8.58579 31.8651C8.96086 32.2402 9.46957 32.4509 10 32.4509H14C14.5304 32.4509 15.0391 32.2402 15.4142 31.8651C15.7893 31.4901 16 30.9814 16 30.4509C16 29.9205 15.7893 29.4118 15.4142 29.0367C15.0391 28.6616 14.5304 28.4509 14 28.4509H10ZM36 26.8109V26.4509C36 24.8596 35.3679 23.3335 34.2426 22.2083C33.1174 21.0831 31.5913 20.4509 30 20.4509C28.4087 20.4509 26.8826 21.0831 25.7574 22.2083C24.6321 23.3335 24 24.8596 24 26.4509V26.8109C22.8329 27.2236 21.822 27.9871 21.1059 28.9968C20.3898 30.0065 20.0035 31.213 20 32.4509V34.4509C20 36.0422 20.6321 37.5684 21.7574 38.6936C22.8826 39.8188 24.4087 40.4509 26 40.4509H34C35.5913 40.4509 37.1174 39.8188 38.2426 38.6936C39.3679 37.5684 40 36.0422 40 34.4509V32.4509C39.9965 31.213 39.6102 30.0065 38.8941 28.9968C38.178 27.9871 37.1671 27.2236 36 26.8109V26.8109ZM30 24.4509C30.5304 24.4509 31.0391 24.6616 31.4142 25.0367C31.7893 25.4118 32 25.9205 32 26.4509H28C28 25.9205 28.2107 25.4118 28.5858 25.0367C28.9609 24.6616 29.4696 24.4509 30 24.4509ZM36 34.4509C36 34.9814 35.7893 35.4901 35.4142 35.8651C35.0391 36.2402 34.5304 36.4509 34 36.4509H26C25.4696 36.4509 24.9609 36.2402 24.5858 35.8651C24.2107 35.4901 24 34.9814 24 34.4509V32.4509C24 31.9205 24.2107 31.4118 24.5858 31.0367C24.9609 30.6616 25.4696 30.4509 26 30.4509H34C34.5304 30.4509 35.0391 30.6616 35.4142 31.0367C35.7893 31.4118 36 31.9205 36 32.4509V34.4509Z" fill="white"/>
    <path d="M16 36.4509H6C5.46957 36.4509 4.96086 36.2402 4.58579 35.8651C4.21071 35.4901 4 34.9814 4 34.4509V6.45093C4 5.92049 4.21071 5.41179 4.58579 5.03671C4.96086 4.66164 5.46957 4.45093 6 4.45093H16V10.4509C16 12.0422 16.6321 13.5684 17.7574 14.6936C18.8826 15.8188 20.4087 16.4509 22 16.4509H30C30.3949 16.449 30.7803 16.3302 31.1077 16.1095C31.4352 15.8888 31.69 15.5762 31.84 15.2109C31.9932 14.8467 32.035 14.4453 31.9603 14.0573C31.8855 13.6693 31.6975 13.3122 31.42 13.0309L19.42 1.03093C19.2547 0.87536 19.0656 0.74709 18.86 0.650928C18.8003 0.642448 18.7397 0.642448 18.68 0.650928L18.12 0.450928H6C4.4087 0.450928 2.88258 1.08307 1.75736 2.20829C0.632141 3.33351 0 4.85963 0 6.45093V34.4509C0 36.0422 0.632141 37.5684 1.75736 38.6936C2.88258 39.8188 4.4087 40.4509 6 40.4509H16C16.5304 40.4509 17.0391 40.2402 17.4142 39.8651C17.7893 39.4901 18 38.9814 18 38.4509C18 37.9205 17.7893 37.4118 17.4142 37.0367C17.0391 36.6616 16.5304 36.4509 16 36.4509ZM20 7.27093L25.18 12.4509H22C21.4696 12.4509 20.9609 12.2402 20.5858 11.8651C20.2107 11.4901 20 10.9814 20 10.4509V7.27093ZM22 22.4509C22 21.9205 21.7893 21.4118 21.4142 21.0367C21.0391 20.6616 20.5304 20.4509 20 20.4509H10C9.46957 20.4509 8.96086 20.6616 8.58579 21.0367C8.21071 21.4118 8 21.9205 8 22.4509C8 22.9814 8.21071 23.4901 8.58579 23.8651C8.96086 24.2402 9.46957 24.4509 10 24.4509H20C20.5304 24.4509 21.0391 24.2402 21.4142 23.8651C21.7893 23.4901 22 22.9814 22 22.4509ZM10 16.4509H12C12.5304 16.4509 13.0391 16.2402 13.4142 15.8651C13.7893 15.4901 14 14.9814 14 14.4509C14 13.9205 13.7893 13.4118 13.4142 13.0367C13.0391 12.6616 12.5304 12.4509 12 12.4509H10C9.46957 12.4509 8.96086 12.6616 8.58579 13.0367C8.21071 13.4118 8 13.9205 8 14.4509C8 14.9814 8.21071 15.4901 8.58579 15.8651C8.96086 16.2402 9.46957 16.4509 10 16.4509ZM10 28.4509C9.46957 28.4509 8.96086 28.6616 8.58579 29.0367C8.21071 29.4118 8 29.9205 8 30.4509C8 30.9814 8.21071 31.4901 8.58579 31.8651C8.96086 32.2402 9.46957 32.4509 10 32.4509H14C14.5304 32.4509 15.0391 32.2402 15.4142 31.8651C15.7893 31.4901 16 30.9814 16 30.4509C16 29.9205 15.7893 29.4118 15.4142 29.0367C15.0391 28.6616 14.5304 28.4509 14 28.4509H10ZM36 26.8109V26.4509C36 24.8596 35.3679 23.3335 34.2426 22.2083C33.1174 21.0831 31.5913 20.4509 30 20.4509C28.4087 20.4509 26.8826 21.0831 25.7574 22.2083C24.6321 23.3335 24 24.8596 24 26.4509V26.8109C22.8329 27.2236 21.822 27.9871 21.1059 28.9968C20.3898 30.0065 20.0035 31.213 20 32.4509V34.4509C20 36.0422 20.6321 37.5684 21.7574 38.6936C22.8826 39.8188 24.4087 40.4509 26 40.4509H34C35.5913 40.4509 37.1174 39.8188 38.2426 38.6936C39.3679 37.5684 40 36.0422 40 34.4509V32.4509C39.9965 31.213 39.6102 30.0065 38.8941 28.9968C38.178 27.9871 37.1671 27.2236 36 26.8109V26.8109ZM30 24.4509C30.5304 24.4509 31.0391 24.6616 31.4142 25.0367C31.7893 25.4118 32 25.9205 32 26.4509H28C28 25.9205 28.2107 25.4118 28.5858 25.0367C28.9609 24.6616 29.4696 24.4509 30 24.4509ZM36 34.4509C36 34.9814 35.7893 35.4901 35.4142 35.8651C35.0391 36.2402 34.5304 36.4509 34 36.4509H26C25.4696 36.4509 24.9609 36.2402 24.5858 35.8651C24.2107 35.4901 24 34.9814 24 34.4509V32.4509C24 31.9205 24.2107 31.4118 24.5858 31.0367C24.9609 30.6616 25.4696 30.4509 26 30.4509H34C34.5304 30.4509 35.0391 30.6616 35.4142 31.0367C35.7893 31.4118 36 31.9205 36 32.4509V34.4509Z" fill="black" fill-opacity="0.1"/>
</svg>
