<svg width="40" height="43" viewBox="0 0 40 43" fill="none" xmlns="http://www.w3.org/2000/svg">
    <path d="M36 8.81093V6.45093C36 4.85963 35.3679 3.33351 34.2426 2.20829C33.1174 1.08307 31.5913 0.450928 30 0.450928C28.4087 0.450928 26.8826 1.08307 25.7574 2.20829C24.6321 3.33351 24 4.85963 24 6.45093V8.81093C22.8329 9.22355 21.822 9.98707 21.1059 10.9968C20.3898 12.0065 20.0035 13.213 20 14.4509V18.4509C20 20.0422 20.6321 21.5684 21.7574 22.6936C22.8826 23.8188 24.4087 24.4509 26 24.4509H34C35.5913 24.4509 37.1174 23.8188 38.2426 22.6936C39.3679 21.5684 40 20.0422 40 18.4509V14.4509C39.9965 13.213 39.6102 12.0065 38.8941 10.9968C38.178 9.98707 37.1671 9.22355 36 8.81093ZM28 6.45093C28 5.92049 28.2107 5.41179 28.5858 5.03671C28.9609 4.66164 29.4696 4.45093 30 4.45093C30.5304 4.45093 31.0391 4.66164 31.4142 5.03671C31.7893 5.41179 32 5.92049 32 6.45093V8.45093H28V6.45093ZM36 18.4509C36 18.9814 35.7893 19.4901 35.4142 19.8651C35.0391 20.2402 34.5304 20.4509 34 20.4509H26C25.4696 20.4509 24.9609 20.2402 24.5858 19.8651C24.2107 19.4901 24 18.9814 24 18.4509V14.4509C24 13.9205 24.2107 13.4118 24.5858 13.0367C24.9609 12.6616 25.4696 12.4509 26 12.4509H34C34.5304 12.4509 35.0391 12.6616 35.4142 13.0367C35.7893 13.4118 36 13.9205 36 14.4509V18.4509ZM34 28.4509C33.4696 28.4509 32.9609 28.6616 32.5858 29.0367C32.2107 29.4118 32 29.9205 32 30.4509V36.4509C31.9971 36.8338 31.8709 37.2055 31.64 37.5109L14.82 20.6909C13.7579 19.6867 12.3517 19.1271 10.89 19.1271C9.4283 19.1271 8.02207 19.6867 6.96 20.6909L4 23.6509V12.4509C4 11.9205 4.21071 11.4118 4.58579 11.0367C4.96086 10.6616 5.46957 10.4509 6 10.4509H16C16.5304 10.4509 17.0391 10.2402 17.4142 9.86514C17.7893 9.49007 18 8.98136 18 8.45093C18 7.92049 17.7893 7.41179 17.4142 7.03671C17.0391 6.66164 16.5304 6.45093 16 6.45093H6C4.4087 6.45093 2.88258 7.08307 1.75736 8.20829C0.632141 9.33351 0 10.8596 0 12.4509V36.4509C0 38.0422 0.632141 39.5684 1.75736 40.6936C2.88258 41.8188 4.4087 42.4509 6 42.4509H30C31.5913 42.4509 33.1174 41.8188 34.2426 40.6936C35.3679 39.5684 36 38.0422 36 36.4509V30.4509C36 29.9205 35.7893 29.4118 35.4142 29.0367C35.0391 28.6616 34.5304 28.4509 34 28.4509ZM6 38.4509C5.46957 38.4509 4.96086 38.2402 4.58579 37.8651C4.21071 37.4901 4 36.9814 4 36.4509V29.3109L9.8 23.5109C10.0938 23.2309 10.4841 23.0747 10.89 23.0747C11.2959 23.0747 11.6862 23.2309 11.98 23.5109L26.92 38.4509H6Z" fill="white"/>
    <path d="M36 8.81093V6.45093C36 4.85963 35.3679 3.33351 34.2426 2.20829C33.1174 1.08307 31.5913 0.450928 30 0.450928C28.4087 0.450928 26.8826 1.08307 25.7574 2.20829C24.6321 3.33351 24 4.85963 24 6.45093V8.81093C22.8329 9.22355 21.822 9.98707 21.1059 10.9968C20.3898 12.0065 20.0035 13.213 20 14.4509V18.4509C20 20.0422 20.6321 21.5684 21.7574 22.6936C22.8826 23.8188 24.4087 24.4509 26 24.4509H34C35.5913 24.4509 37.1174 23.8188 38.2426 22.6936C39.3679 21.5684 40 20.0422 40 18.4509V14.4509C39.9965 13.213 39.6102 12.0065 38.8941 10.9968C38.178 9.98707 37.1671 9.22355 36 8.81093ZM28 6.45093C28 5.92049 28.2107 5.41179 28.5858 5.03671C28.9609 4.66164 29.4696 4.45093 30 4.45093C30.5304 4.45093 31.0391 4.66164 31.4142 5.03671C31.7893 5.41179 32 5.92049 32 6.45093V8.45093H28V6.45093ZM36 18.4509C36 18.9814 35.7893 19.4901 35.4142 19.8651C35.0391 20.2402 34.5304 20.4509 34 20.4509H26C25.4696 20.4509 24.9609 20.2402 24.5858 19.8651C24.2107 19.4901 24 18.9814 24 18.4509V14.4509C24 13.9205 24.2107 13.4118 24.5858 13.0367C24.9609 12.6616 25.4696 12.4509 26 12.4509H34C34.5304 12.4509 35.0391 12.6616 35.4142 13.0367C35.7893 13.4118 36 13.9205 36 14.4509V18.4509ZM34 28.4509C33.4696 28.4509 32.9609 28.6616 32.5858 29.0367C32.2107 29.4118 32 29.9205 32 30.4509V36.4509C31.9971 36.8338 31.8709 37.2055 31.64 37.5109L14.82 20.6909C13.7579 19.6867 12.3517 19.1271 10.89 19.1271C9.4283 19.1271 8.02207 19.6867 6.96 20.6909L4 23.6509V12.4509C4 11.9205 4.21071 11.4118 4.58579 11.0367C4.96086 10.6616 5.46957 10.4509 6 10.4509H16C16.5304 10.4509 17.0391 10.2402 17.4142 9.86514C17.7893 9.49007 18 8.98136 18 8.45093C18 7.92049 17.7893 7.41179 17.4142 7.03671C17.0391 6.66164 16.5304 6.45093 16 6.45093H6C4.4087 6.45093 2.88258 7.08307 1.75736 8.20829C0.632141 9.33351 0 10.8596 0 12.4509V36.4509C0 38.0422 0.632141 39.5684 1.75736 40.6936C2.88258 41.8188 4.4087 42.4509 6 42.4509H30C31.5913 42.4509 33.1174 41.8188 34.2426 40.6936C35.3679 39.5684 36 38.0422 36 36.4509V30.4509C36 29.9205 35.7893 29.4118 35.4142 29.0367C35.0391 28.6616 34.5304 28.4509 34 28.4509ZM6 38.4509C5.46957 38.4509 4.96086 38.2402 4.58579 37.8651C4.21071 37.4901 4 36.9814 4 36.4509V29.3109L9.8 23.5109C10.0938 23.2309 10.4841 23.0747 10.89 23.0747C11.2959 23.0747 11.6862 23.2309 11.98 23.5109L26.92 38.4509H6Z" fill="black" fill-opacity="0.1"/>
</svg>
