<svg width="29" height="41" viewBox="0 0 29 41" fill="none" xmlns="http://www.w3.org/2000/svg">
<path d="M15.92 29.0309L15.62 28.7909C15.5085 28.7152 15.3874 28.6547 15.26 28.6109L14.9 28.4509C14.5756 28.3831 14.2395 28.397 13.9218 28.4912C13.6042 28.5855 13.3149 28.7572 13.08 28.9909C12.9033 29.1853 12.7613 29.4086 12.66 29.6509C12.5086 30.0153 12.4685 30.4164 12.5445 30.8036C12.6206 31.1907 12.8094 31.5468 13.0874 31.8269C13.3653 32.107 13.7199 32.2986 14.1065 32.3776C14.4931 32.4566 14.8944 32.4195 15.26 32.2709C15.499 32.155 15.721 32.0069 15.92 31.8309C16.1975 31.5497 16.3855 31.1925 16.4603 30.8046C16.535 30.4166 16.4932 30.0152 16.34 29.6509C16.2403 29.4197 16.0978 29.2093 15.92 29.0309ZM22.5 0.450928H6.5C4.9087 0.450928 3.38258 1.08307 2.25736 2.20829C1.13214 3.33351 0.5 4.85963 0.5 6.45093V34.4509C0.5 36.0422 1.13214 37.5684 2.25736 38.6936C3.38258 39.8188 4.9087 40.4509 6.5 40.4509H22.5C24.0913 40.4509 25.6174 39.8188 26.7426 38.6936C27.8679 37.5684 28.5 36.0422 28.5 34.4509V6.45093C28.5 4.85963 27.8679 3.33351 26.7426 2.20829C25.6174 1.08307 24.0913 0.450928 22.5 0.450928ZM24.5 34.4509C24.5 34.9814 24.2893 35.4901 23.9142 35.8651C23.5391 36.2402 23.0304 36.4509 22.5 36.4509H6.5C5.96957 36.4509 5.46086 36.2402 5.08579 35.8651C4.71071 35.4901 4.5 34.9814 4.5 34.4509V6.45093C4.5 5.92049 4.71071 5.41179 5.08579 5.03671C5.46086 4.66164 5.96957 4.45093 6.5 4.45093H22.5C23.0304 4.45093 23.5391 4.66164 23.9142 5.03671C24.2893 5.41179 24.5 5.92049 24.5 6.45093V34.4509Z" fill="white"/>
<path d="M15.92 29.0309L15.62 28.7909C15.5085 28.7152 15.3874 28.6547 15.26 28.6109L14.9 28.4509C14.5756 28.3831 14.2395 28.397 13.9218 28.4912C13.6042 28.5855 13.3149 28.7572 13.08 28.9909C12.9033 29.1853 12.7613 29.4086 12.66 29.6509C12.5086 30.0153 12.4685 30.4164 12.5445 30.8036C12.6206 31.1907 12.8094 31.5468 13.0874 31.8269C13.3653 32.107 13.7199 32.2986 14.1065 32.3776C14.4931 32.4566 14.8944 32.4195 15.26 32.2709C15.499 32.155 15.721 32.0069 15.92 31.8309C16.1975 31.5497 16.3855 31.1925 16.4603 30.8046C16.535 30.4166 16.4932 30.0152 16.34 29.6509C16.2403 29.4197 16.0978 29.2093 15.92 29.0309ZM22.5 0.450928H6.5C4.9087 0.450928 3.38258 1.08307 2.25736 2.20829C1.13214 3.33351 0.5 4.85963 0.5 6.45093V34.4509C0.5 36.0422 1.13214 37.5684 2.25736 38.6936C3.38258 39.8188 4.9087 40.4509 6.5 40.4509H22.5C24.0913 40.4509 25.6174 39.8188 26.7426 38.6936C27.8679 37.5684 28.5 36.0422 28.5 34.4509V6.45093C28.5 4.85963 27.8679 3.33351 26.7426 2.20829C25.6174 1.08307 24.0913 0.450928 22.5 0.450928ZM24.5 34.4509C24.5 34.9814 24.2893 35.4901 23.9142 35.8651C23.5391 36.2402 23.0304 36.4509 22.5 36.4509H6.5C5.96957 36.4509 5.46086 36.2402 5.08579 35.8651C4.71071 35.4901 4.5 34.9814 4.5 34.4509V6.45093C4.5 5.92049 4.71071 5.41179 5.08579 5.03671C5.46086 4.66164 5.96957 4.45093 6.5 4.45093H22.5C23.0304 4.45093 23.5391 4.66164 23.9142 5.03671C24.2893 5.41179 24.5 5.92049 24.5 6.45093V34.4509Z" fill="black" fill-opacity="0.1"/>
</svg>
