<svg width="45" height="35" viewBox="0 0 45 35" fill="none" xmlns="http://www.w3.org/2000/svg">
<path d="M23.1 17.8909C24.1672 16.9672 25.0231 15.8247 25.6097 14.541C26.1964 13.2572 26.5 11.8623 26.5 10.4509C26.5 7.79876 25.4464 5.25522 23.5711 3.37986C21.6957 1.5045 19.1522 0.450928 16.5 0.450928C13.8478 0.450928 11.3043 1.5045 9.42893 3.37986C7.55357 5.25522 6.5 7.79876 6.5 10.4509C6.49998 11.8623 6.8036 13.2572 7.39025 14.541C7.9769 15.8247 8.83284 16.9672 9.9 17.8909C7.10028 19.1587 4.72493 21.206 3.05796 23.788C1.39099 26.37 0.502944 29.3775 0.5 32.4509C0.5 32.9814 0.710714 33.4901 1.08579 33.8651C1.46086 34.2402 1.96957 34.4509 2.5 34.4509C3.03043 34.4509 3.53914 34.2402 3.91421 33.8651C4.28929 33.4901 4.5 32.9814 4.5 32.4509C4.5 29.2683 5.76428 26.2161 8.01472 23.9656C10.2652 21.7152 13.3174 20.4509 16.5 20.4509C19.6826 20.4509 22.7348 21.7152 24.9853 23.9656C27.2357 26.2161 28.5 29.2683 28.5 32.4509C28.5 32.9814 28.7107 33.4901 29.0858 33.8651C29.4609 34.2402 29.9696 34.4509 30.5 34.4509C31.0304 34.4509 31.5391 34.2402 31.9142 33.8651C32.2893 33.4901 32.5 32.9814 32.5 32.4509C32.4971 29.3775 31.609 26.37 29.942 23.788C28.2751 21.206 25.8997 19.1587 23.1 17.8909ZM16.5 16.4509C15.3133 16.4509 14.1533 16.099 13.1666 15.4397C12.1799 14.7805 11.4108 13.8434 10.9567 12.747C10.5026 11.6507 10.3838 10.4443 10.6153 9.28039C10.8468 8.1165 11.4182 7.0474 12.2574 6.20829C13.0965 5.36917 14.1656 4.79773 15.3295 4.56622C16.4933 4.33471 17.6997 4.45353 18.7961 4.90765C19.8925 5.36178 20.8295 6.13081 21.4888 7.11751C22.1481 8.1042 22.5 9.26424 22.5 10.4509C22.5 12.0422 21.8679 13.5684 20.7426 14.6936C19.6174 15.8188 18.0913 16.4509 16.5 16.4509ZM35.98 17.0909C37.2599 15.6496 38.096 13.869 38.3876 11.9636C38.6792 10.0582 38.4139 8.10908 37.6235 6.35093C36.8332 4.59278 35.5516 3.10052 33.9329 2.05377C32.3143 1.00703 30.4276 0.450413 28.5 0.450928C27.9696 0.450928 27.4609 0.661642 27.0858 1.03671C26.7107 1.41179 26.5 1.9205 26.5 2.45093C26.5 2.98136 26.7107 3.49007 27.0858 3.86514C27.4609 4.24021 27.9696 4.45093 28.5 4.45093C30.0913 4.45093 31.6174 5.08307 32.7426 6.20829C33.8679 7.33351 34.5 8.85963 34.5 10.4509C34.4972 11.5014 34.2186 12.5327 33.6921 13.4418C33.1657 14.3508 32.4097 15.1057 31.5 15.6309C31.2035 15.802 30.9558 16.0463 30.7807 16.3404C30.6056 16.6346 30.509 16.9687 30.5 17.3109C30.4916 17.6505 30.5699 17.9865 30.7273 18.2874C30.8848 18.5884 31.1163 18.8442 31.4 19.0309L32.18 19.5509L32.44 19.6909C34.8508 20.8344 36.8846 22.6429 38.302 24.9036C39.7193 27.1642 40.4611 29.7828 40.44 32.4509C40.44 32.9814 40.6507 33.4901 41.0258 33.8651C41.4009 34.2402 41.9096 34.4509 42.44 34.4509C42.9704 34.4509 43.4791 34.2402 43.8542 33.8651C44.2293 33.4901 44.44 32.9814 44.44 32.4509C44.4563 29.3818 43.6876 26.3594 42.2069 23.6711C40.7262 20.9827 38.5827 18.7176 35.98 17.0909Z" fill="white"/>
<path d="M23.1 17.8909C24.1672 16.9672 25.0231 15.8247 25.6097 14.541C26.1964 13.2572 26.5 11.8623 26.5 10.4509C26.5 7.79876 25.4464 5.25522 23.5711 3.37986C21.6957 1.5045 19.1522 0.450928 16.5 0.450928C13.8478 0.450928 11.3043 1.5045 9.42893 3.37986C7.55357 5.25522 6.5 7.79876 6.5 10.4509C6.49998 11.8623 6.8036 13.2572 7.39025 14.541C7.9769 15.8247 8.83284 16.9672 9.9 17.8909C7.10028 19.1587 4.72493 21.206 3.05796 23.788C1.39099 26.37 0.502944 29.3775 0.5 32.4509C0.5 32.9814 0.710714 33.4901 1.08579 33.8651C1.46086 34.2402 1.96957 34.4509 2.5 34.4509C3.03043 34.4509 3.53914 34.2402 3.91421 33.8651C4.28929 33.4901 4.5 32.9814 4.5 32.4509C4.5 29.2683 5.76428 26.2161 8.01472 23.9656C10.2652 21.7152 13.3174 20.4509 16.5 20.4509C19.6826 20.4509 22.7348 21.7152 24.9853 23.9656C27.2357 26.2161 28.5 29.2683 28.5 32.4509C28.5 32.9814 28.7107 33.4901 29.0858 33.8651C29.4609 34.2402 29.9696 34.4509 30.5 34.4509C31.0304 34.4509 31.5391 34.2402 31.9142 33.8651C32.2893 33.4901 32.5 32.9814 32.5 32.4509C32.4971 29.3775 31.609 26.37 29.942 23.788C28.2751 21.206 25.8997 19.1587 23.1 17.8909ZM16.5 16.4509C15.3133 16.4509 14.1533 16.099 13.1666 15.4397C12.1799 14.7805 11.4108 13.8434 10.9567 12.747C10.5026 11.6507 10.3838 10.4443 10.6153 9.28039C10.8468 8.1165 11.4182 7.0474 12.2574 6.20829C13.0965 5.36917 14.1656 4.79773 15.3295 4.56622C16.4933 4.33471 17.6997 4.45353 18.7961 4.90765C19.8925 5.36178 20.8295 6.13081 21.4888 7.11751C22.1481 8.1042 22.5 9.26424 22.5 10.4509C22.5 12.0422 21.8679 13.5684 20.7426 14.6936C19.6174 15.8188 18.0913 16.4509 16.5 16.4509ZM35.98 17.0909C37.2599 15.6496 38.096 13.869 38.3876 11.9636C38.6792 10.0582 38.4139 8.10908 37.6235 6.35093C36.8332 4.59278 35.5516 3.10052 33.9329 2.05377C32.3143 1.00703 30.4276 0.450413 28.5 0.450928C27.9696 0.450928 27.4609 0.661642 27.0858 1.03671C26.7107 1.41179 26.5 1.9205 26.5 2.45093C26.5 2.98136 26.7107 3.49007 27.0858 3.86514C27.4609 4.24021 27.9696 4.45093 28.5 4.45093C30.0913 4.45093 31.6174 5.08307 32.7426 6.20829C33.8679 7.33351 34.5 8.85963 34.5 10.4509C34.4972 11.5014 34.2186 12.5327 33.6921 13.4418C33.1657 14.3508 32.4097 15.1057 31.5 15.6309C31.2035 15.802 30.9558 16.0463 30.7807 16.3404C30.6056 16.6346 30.509 16.9687 30.5 17.3109C30.4916 17.6505 30.5699 17.9865 30.7273 18.2874C30.8848 18.5884 31.1163 18.8442 31.4 19.0309L32.18 19.5509L32.44 19.6909C34.8508 20.8344 36.8846 22.6429 38.302 24.9036C39.7193 27.1642 40.4611 29.7828 40.44 32.4509C40.44 32.9814 40.6507 33.4901 41.0258 33.8651C41.4009 34.2402 41.9096 34.4509 42.44 34.4509C42.9704 34.4509 43.4791 34.2402 43.8542 33.8651C44.2293 33.4901 44.44 32.9814 44.44 32.4509C44.4563 29.3818 43.6876 26.3594 42.2069 23.6711C40.7262 20.9827 38.5827 18.7176 35.98 17.0909Z" fill="black" fill-opacity="0.1"/>
</svg>
