<svg width="48" height="49" viewBox="0 0 48 49" fill="none" xmlns="http://www.w3.org/2000/svg">
<path d="M25.12 4.79004C24.7893 4.56648 24.3992 4.44702 24 4.44702C23.6008 4.44702 23.2107 4.56648 22.88 4.79004C22.28 5.19004 8.5 14.79 8.5 28.95C8.5 33.0609 10.133 37.0034 13.0398 39.9102C15.9467 42.817 19.8891 44.45 24 44.45C28.1109 44.45 32.0533 42.817 34.9602 39.9102C37.867 37.0034 39.5 33.0609 39.5 28.95C39.5 14.55 25.7 5.17004 25.12 4.79004ZM24 40.45C20.9516 40.4447 18.0296 39.2314 15.8741 37.0759C13.7186 34.9204 12.5053 31.9984 12.5 28.95C12.5 18.95 20.92 11.41 24 8.95004C27.1 11.37 35.5 18.95 35.5 28.95C35.4947 31.9984 34.2814 34.9204 32.1259 37.0759C29.9704 39.2314 27.0484 40.4447 24 40.45Z" fill="white"/>
<path d="M25.12 4.79004C24.7893 4.56648 24.3992 4.44702 24 4.44702C23.6008 4.44702 23.2107 4.56648 22.88 4.79004C22.28 5.19004 8.5 14.79 8.5 28.95C8.5 33.0609 10.133 37.0034 13.0398 39.9102C15.9467 42.817 19.8891 44.45 24 44.45C28.1109 44.45 32.0533 42.817 34.9602 39.9102C37.867 37.0034 39.5 33.0609 39.5 28.95C39.5 14.55 25.7 5.17004 25.12 4.79004ZM24 40.45C20.9516 40.4447 18.0296 39.2314 15.8741 37.0759C13.7186 34.9204 12.5053 31.9984 12.5 28.95C12.5 18.95 20.92 11.41 24 8.95004C27.1 11.37 35.5 18.95 35.5 28.95C35.4947 31.9984 34.2814 34.9204 32.1259 37.0759C29.9704 39.2314 27.0484 40.4447 24 40.45Z" fill="black" fill-opacity="0.1"/>
</svg>
