<svg width="45" height="45" viewBox="0 0 45 45" fill="none" xmlns="http://www.w3.org/2000/svg">
<path d="M18.5 8.45093C18.1044 8.45093 17.7178 8.56823 17.3889 8.78799C17.06 9.00775 16.8036 9.32011 16.6522 9.68556C16.5009 10.051 16.4613 10.4531 16.5384 10.8411C16.6156 11.2291 16.8061 11.5854 17.0858 11.8651C17.3655 12.1448 17.7219 12.3353 18.1098 12.4125C18.4978 12.4897 18.8999 12.4501 19.2654 12.2987C19.6308 12.1473 19.9432 11.891 20.1629 11.5621C20.3827 11.2332 20.5 10.8465 20.5 10.4509C20.5 9.9205 20.2893 9.41179 19.9142 9.03671C19.5391 8.66164 19.0304 8.45093 18.5 8.45093ZM10.5 8.45093C10.1044 8.45093 9.71776 8.56823 9.38886 8.78799C9.05996 9.00775 8.80362 9.32011 8.65224 9.68556C8.50087 10.051 8.46126 10.4531 8.53843 10.8411C8.6156 11.2291 8.80608 11.5854 9.08579 11.8651C9.36549 12.1448 9.72186 12.3353 10.1098 12.4125C10.4978 12.4897 10.8999 12.4501 11.2654 12.2987C11.6308 12.1473 11.9432 11.891 12.1629 11.5621C12.3827 11.2332 12.5 10.8465 12.5 10.4509C12.5 9.9205 12.2893 9.41179 11.9142 9.03671C11.5391 8.66164 11.0304 8.45093 10.5 8.45093ZM26.5 8.45093C26.1044 8.45093 25.7178 8.56823 25.3889 8.78799C25.06 9.00775 24.8036 9.32011 24.6522 9.68556C24.5009 10.051 24.4613 10.4531 24.5384 10.8411C24.6156 11.2291 24.8061 11.5854 25.0858 11.8651C25.3655 12.1448 25.7219 12.3353 26.1098 12.4125C26.4978 12.4897 26.8999 12.4501 27.2654 12.2987C27.6308 12.1473 27.9432 11.891 28.1629 11.5621C28.3827 11.2332 28.5 10.8465 28.5 10.4509C28.5 9.9205 28.2893 9.41179 27.9142 9.03671C27.5391 8.66164 27.0304 8.45093 26.5 8.45093ZM38.5 0.450928H6.5C4.9087 0.450928 3.38258 1.08307 2.25736 2.20829C1.13214 3.33351 0.5 4.85963 0.5 6.45093V38.4509C0.5 40.0422 1.13214 41.5684 2.25736 42.6936C3.38258 43.8188 4.9087 44.4509 6.5 44.4509H38.5C40.0913 44.4509 41.6174 43.8188 42.7426 42.6936C43.8679 41.5684 44.5 40.0422 44.5 38.4509V6.45093C44.5 4.85963 43.8679 3.33351 42.7426 2.20829C41.6174 1.08307 40.0913 0.450928 38.5 0.450928ZM40.5 38.4509C40.5 38.9814 40.2893 39.4901 39.9142 39.8651C39.5391 40.2402 39.0304 40.4509 38.5 40.4509H6.5C5.96957 40.4509 5.46086 40.2402 5.08579 39.8651C4.71071 39.4901 4.5 38.9814 4.5 38.4509V20.4509H40.5V38.4509ZM40.5 16.4509H4.5V6.45093C4.5 5.92049 4.71071 5.41179 5.08579 5.03671C5.46086 4.66164 5.96957 4.45093 6.5 4.45093H38.5C39.0304 4.45093 39.5391 4.66164 39.9142 5.03671C40.2893 5.41179 40.5 5.92049 40.5 6.45093V16.4509Z" fill="white"/>
<path d="M18.5 8.45093C18.1044 8.45093 17.7178 8.56823 17.3889 8.78799C17.06 9.00775 16.8036 9.32011 16.6522 9.68556C16.5009 10.051 16.4613 10.4531 16.5384 10.8411C16.6156 11.2291 16.8061 11.5854 17.0858 11.8651C17.3655 12.1448 17.7219 12.3353 18.1098 12.4125C18.4978 12.4897 18.8999 12.4501 19.2654 12.2987C19.6308 12.1473 19.9432 11.891 20.1629 11.5621C20.3827 11.2332 20.5 10.8465 20.5 10.4509C20.5 9.9205 20.2893 9.41179 19.9142 9.03671C19.5391 8.66164 19.0304 8.45093 18.5 8.45093ZM10.5 8.45093C10.1044 8.45093 9.71776 8.56823 9.38886 8.78799C9.05996 9.00775 8.80362 9.32011 8.65224 9.68556C8.50087 10.051 8.46126 10.4531 8.53843 10.8411C8.6156 11.2291 8.80608 11.5854 9.08579 11.8651C9.36549 12.1448 9.72186 12.3353 10.1098 12.4125C10.4978 12.4897 10.8999 12.4501 11.2654 12.2987C11.6308 12.1473 11.9432 11.891 12.1629 11.5621C12.3827 11.2332 12.5 10.8465 12.5 10.4509C12.5 9.9205 12.2893 9.41179 11.9142 9.03671C11.5391 8.66164 11.0304 8.45093 10.5 8.45093ZM26.5 8.45093C26.1044 8.45093 25.7178 8.56823 25.3889 8.78799C25.06 9.00775 24.8036 9.32011 24.6522 9.68556C24.5009 10.051 24.4613 10.4531 24.5384 10.8411C24.6156 11.2291 24.8061 11.5854 25.0858 11.8651C25.3655 12.1448 25.7219 12.3353 26.1098 12.4125C26.4978 12.4897 26.8999 12.4501 27.2654 12.2987C27.6308 12.1473 27.9432 11.891 28.1629 11.5621C28.3827 11.2332 28.5 10.8465 28.5 10.4509C28.5 9.9205 28.2893 9.41179 27.9142 9.03671C27.5391 8.66164 27.0304 8.45093 26.5 8.45093ZM38.5 0.450928H6.5C4.9087 0.450928 3.38258 1.08307 2.25736 2.20829C1.13214 3.33351 0.5 4.85963 0.5 6.45093V38.4509C0.5 40.0422 1.13214 41.5684 2.25736 42.6936C3.38258 43.8188 4.9087 44.4509 6.5 44.4509H38.5C40.0913 44.4509 41.6174 43.8188 42.7426 42.6936C43.8679 41.5684 44.5 40.0422 44.5 38.4509V6.45093C44.5 4.85963 43.8679 3.33351 42.7426 2.20829C41.6174 1.08307 40.0913 0.450928 38.5 0.450928ZM40.5 38.4509C40.5 38.9814 40.2893 39.4901 39.9142 39.8651C39.5391 40.2402 39.0304 40.4509 38.5 40.4509H6.5C5.96957 40.4509 5.46086 40.2402 5.08579 39.8651C4.71071 39.4901 4.5 38.9814 4.5 38.4509V20.4509H40.5V38.4509ZM40.5 16.4509H4.5V6.45093C4.5 5.92049 4.71071 5.41179 5.08579 5.03671C5.46086 4.66164 5.96957 4.45093 6.5 4.45093H38.5C39.0304 4.45093 39.5391 4.66164 39.9142 5.03671C40.2893 5.41179 40.5 5.92049 40.5 6.45093V16.4509Z" fill="black" fill-opacity="0.1"/>
</svg>
