<svg width="41" height="36" viewBox="0 0 41 36" fill="none" xmlns="http://www.w3.org/2000/svg">
<path d="M25.0006 16.0019H23.0006V14.0019C23.0006 13.4715 22.7898 12.9628 22.4148 12.5877C22.0397 12.2126 21.531 12.0019 21.0006 12.0019C20.4701 12.0019 19.9614 12.2126 19.5863 12.5877C19.2113 12.9628 19.0006 13.4715 19.0006 14.0019V16.0019H17.0006C16.4701 16.0019 15.9614 16.2126 15.5863 16.5877C15.2113 16.9628 15.0006 17.4715 15.0006 18.0019C15.0006 18.5323 15.2113 19.041 15.5863 19.4161C15.9614 19.7912 16.4701 20.0019 17.0006 20.0019H19.0006V22.0019C19.0006 22.5323 19.2113 23.041 19.5863 23.4161C19.9614 23.7912 20.4701 24.0019 21.0006 24.0019C21.531 24.0019 22.0397 23.7912 22.4148 23.4161C22.7898 23.041 23.0006 22.5323 23.0006 22.0019V20.0019H25.0006C25.531 20.0019 26.0397 19.7912 26.4148 19.4161C26.7898 19.041 27.0006 18.5323 27.0006 18.0019C27.0006 17.4715 26.7898 16.9628 26.4148 16.5877C26.0397 16.2126 25.531 16.0019 25.0006 16.0019ZM37.3205 4.00189C35.188 1.8913 32.3712 0.612435 29.3786 0.396057C26.386 0.179679 23.4146 1.04004 21.0006 2.82189C18.4559 0.929168 15.2885 0.0709159 12.1364 0.419968C8.98425 0.76902 6.08143 2.29945 4.0125 4.70306C1.94356 7.10668 0.862196 10.2049 0.986153 13.3739C1.11011 16.5429 2.43019 19.5472 4.68055 21.7819L16.6806 33.8819C17.8056 35.0055 19.3305 35.6366 20.9206 35.6366C22.5106 35.6366 24.0355 35.0055 25.1606 33.8819L37.1605 21.7819C38.3424 20.6272 39.2844 19.2503 39.9324 17.7304C40.5805 16.2104 40.9217 14.5774 40.9366 12.9252C40.9515 11.2729 40.6396 9.63401 40.0191 8.10265C39.3985 6.5713 38.4814 5.17768 37.3205 4.00189V4.00189ZM34.5005 18.9219L22.5006 30.9219C22.3146 31.1093 22.0934 31.2581 21.8497 31.3597C21.606 31.4612 21.3446 31.5135 21.0806 31.5135C20.8165 31.5135 20.5551 31.4612 20.3114 31.3597C20.0677 31.2581 19.8465 31.1093 19.6606 30.9219L7.66055 18.9219C6.09207 17.3186 5.21377 15.1648 5.21377 12.9219C5.21377 10.679 6.09207 8.5252 7.66055 6.92189C9.25886 5.34387 11.4145 4.45903 13.6606 4.45903C15.9066 4.45903 18.0622 5.34387 19.6606 6.92189C19.8465 7.10935 20.0677 7.25814 20.3114 7.35968C20.5551 7.46121 20.8165 7.51349 21.0806 7.51349C21.3446 7.51349 21.606 7.46121 21.8497 7.35968C22.0934 7.25814 22.3146 7.10935 22.5006 6.92189C24.0989 5.34387 26.2545 4.45903 28.5006 4.45903C30.7466 4.45903 32.9022 5.34387 34.5005 6.92189C36.0811 8.52698 36.967 10.6893 36.967 12.9419C36.967 15.1945 36.0811 17.3568 34.5005 18.9619V18.9219Z" fill="#39AEE2"/>
</svg>
