<svg width="40" height="40" viewBox="0 0 40 40" fill="none" xmlns="http://www.w3.org/2000/svg">
    <circle cx="20" cy="20" r="19.5" stroke="white"/>
    <path d="M27.0585 11.6671H12.9418C12.7831 11.6649 12.6255 11.694 12.4781 11.7527C12.3307 11.8114 12.1962 11.8985 12.0825 12.0092C11.9687 12.1199 11.8779 12.2518 11.8151 12.3976C11.7524 12.5434 11.719 12.7001 11.7168 12.8588V27.1421C11.719 27.3008 11.7524 27.4575 11.8151 27.6033C11.8779 27.749 11.9687 27.881 12.0825 27.9917C12.1962 28.1023 12.3307 28.1895 12.4781 28.2482C12.6255 28.3069 12.7831 28.336 12.9418 28.3338H27.0585C27.2171 28.336 27.3747 28.3069 27.5222 28.2482C27.6696 28.1895 27.804 28.1023 27.9178 27.9917C28.0316 27.881 28.1224 27.749 28.1851 27.6033C28.2479 27.4575 28.2813 27.3008 28.2835 27.1421V12.8588C28.2813 12.7001 28.2479 12.5434 28.1851 12.3976C28.1224 12.2518 28.0316 12.1199 27.9178 12.0092C27.804 11.8985 27.6696 11.8114 27.5222 11.7527C27.3747 11.694 27.2171 11.6649 27.0585 11.6671ZM16.7418 25.6171H14.2418V18.1171H16.7418V25.6171ZM15.4918 17.0671C15.147 17.0671 14.8164 16.9301 14.5726 16.6863C14.3288 16.4426 14.1918 16.1119 14.1918 15.7671C14.1918 15.4223 14.3288 15.0917 14.5726 14.8479C14.8164 14.6041 15.147 14.4671 15.4918 14.4671C15.6749 14.4463 15.8603 14.4645 16.0359 14.5203C16.2114 14.5762 16.3732 14.6685 16.5107 14.7912C16.6481 14.914 16.7581 15.0643 16.8334 15.2325C16.9086 15.4007 16.9476 15.5829 16.9476 15.7671C16.9476 15.9514 16.9086 16.1335 16.8334 16.3017C16.7581 16.4699 16.6481 16.6202 16.5107 16.743C16.3732 16.8657 16.2114 16.958 16.0359 17.0139C15.8603 17.0697 15.6749 17.0879 15.4918 17.0671ZM25.7585 25.6171H23.2585V21.5921C23.2585 20.5838 22.9001 19.9254 21.9918 19.9254C21.7107 19.9275 21.437 20.0157 21.2075 20.1781C20.978 20.3405 20.8039 20.5693 20.7085 20.8338C20.6433 21.0296 20.615 21.2359 20.6251 21.4421V25.6088H18.1251C18.1251 25.6088 18.1251 18.7921 18.1251 18.1088H20.6251V19.1671C20.8522 18.773 21.1826 18.4484 21.5805 18.2281C21.9784 18.0078 22.4289 17.9003 22.8835 17.9171C24.5501 17.9171 25.7585 18.9921 25.7585 21.3004V25.6171Z" fill="white"/>
</svg>
