<svg width="40" height="40" viewBox="0 0 40 40" fill="none" xmlns="http://www.w3.org/2000/svg">
    <circle cx="20" cy="20" r="19.5" stroke="white"/>
    <path d="M28.3327 14.8335C27.7063 15.1053 27.0439 15.2849 26.366 15.3668C27.0812 14.9396 27.6171 14.2675 27.8743 13.4752C27.2023 13.8752 26.4667 14.1571 25.6993 14.3085C25.1865 13.7523 24.5035 13.3821 23.7575 13.2559C23.0116 13.1297 22.2448 13.2546 21.5775 13.6112C20.9102 13.9677 20.3801 14.5356 20.0704 15.2259C19.7606 15.9161 19.6888 16.6897 19.866 17.4252C18.5072 17.3564 17.1781 17.0026 15.9649 16.3867C14.7517 15.7708 13.6817 14.9066 12.8243 13.8502C12.5236 14.3753 12.3656 14.97 12.366 15.5752C12.3649 16.1372 12.5029 16.6907 12.7675 17.1865C13.0321 17.6823 13.4152 18.1049 13.8827 18.4168C13.3393 18.4021 12.8076 18.2563 12.3327 17.9918V18.0335C12.3368 18.8209 12.6127 19.5828 13.1138 20.1901C13.6149 20.7975 14.3104 21.2132 15.0827 21.3668C14.7854 21.4573 14.4767 21.505 14.166 21.5085C13.9509 21.506 13.7364 21.4865 13.5243 21.4502C13.7443 22.1275 14.1699 22.7195 14.7419 23.1436C15.314 23.5678 16.004 23.8031 16.716 23.8168C15.5137 24.7629 14.0293 25.2792 12.4993 25.2835C12.2208 25.2844 11.9425 25.2677 11.666 25.2335C13.228 26.2421 15.0484 26.7774 16.9077 26.7752C18.1908 26.7885 19.4636 26.546 20.6519 26.0619C21.8403 25.5778 22.9202 24.8617 23.8287 23.9556C24.7372 23.0494 25.456 21.9713 25.9431 20.7843C26.4303 19.5972 26.676 18.3249 26.666 17.0418C26.666 16.9002 26.666 16.7502 26.666 16.6002C27.3199 16.1125 27.8839 15.5147 28.3327 14.8335Z" fill="white"/>
</svg>
