<svg width="48" height="48" viewBox="0 0 48 48" fill="none" xmlns="http://www.w3.org/2000/svg">
<g clip-path="url(#clip0_9403_57704)">
<path d="M42.64 19.1L38.86 17.84L40.64 14.28C40.8204 13.9074 40.8808 13.4879 40.8127 13.0796C40.7447 12.6712 40.5515 12.294 40.26 12L36 7.74001C35.7045 7.44418 35.3237 7.24842 34.9111 7.18026C34.4985 7.1121 34.075 7.17496 33.7 7.36001L30.14 9.14001L28.88 5.36001C28.7469 4.96599 28.4943 4.62326 28.1574 4.3795C27.8204 4.13575 27.4159 4.0031 27 4.00001H21C20.5807 3.99892 20.1717 4.12964 19.8307 4.37369C19.4898 4.61774 19.2342 4.96276 19.1 5.36001L17.84 9.14001L14.28 7.36001C13.9074 7.17957 13.4879 7.11921 13.0796 7.18728C12.6712 7.25534 12.294 7.44847 12 7.74001L7.74001 12C7.44418 12.2955 7.24842 12.6764 7.18026 13.0889C7.1121 13.5015 7.17496 13.925 7.36001 14.3L9.14001 17.86L5.36001 19.12C4.96599 19.2531 4.62326 19.5057 4.3795 19.8426C4.13575 20.1796 4.0031 20.5841 4.00001 21V27C3.99892 27.4193 4.12964 27.8283 4.37369 28.1693C4.61774 28.5102 4.96276 28.7658 5.36001 28.9L9.14001 30.16L7.36001 33.72C7.17957 34.0926 7.11921 34.5121 7.18728 34.9205C7.25534 35.3288 7.44847 35.706 7.74001 36L12 40.26C12.2955 40.5558 12.6764 40.7516 13.0889 40.8198C13.5015 40.8879 13.925 40.8251 14.3 40.64L17.86 38.86L19.12 42.64C19.2542 43.0372 19.5098 43.3823 19.8507 43.6263C20.1917 43.8704 20.6007 44.0011 21.02 44H27.02C27.4393 44.0011 27.8483 43.8704 28.1893 43.6263C28.5302 43.3823 28.7858 43.0372 28.92 42.64L30.18 38.86L33.74 40.64C34.1103 40.8159 34.5256 40.8738 34.9298 40.8058C35.3341 40.7378 35.7076 40.5473 36 40.26L40.26 36C40.5558 35.7045 40.7516 35.3237 40.8198 34.9111C40.8879 34.4985 40.8251 34.075 40.64 33.7L38.86 30.14L42.64 28.88C43.034 28.7469 43.3768 28.4943 43.6205 28.1574C43.8643 27.8204 43.9969 27.4159 44 27V21C44.0011 20.5807 43.8704 20.1717 43.6263 19.8307C43.3823 19.4898 43.0372 19.2342 42.64 19.1ZM40 25.56L37.6 26.36C37.0481 26.539 36.5418 26.836 36.1161 27.2302C35.6905 27.6245 35.3556 28.1066 35.1349 28.6432C34.9142 29.1797 34.8129 29.7579 34.8379 30.3376C34.863 30.9172 35.0138 31.4845 35.28 32L36.42 34.28L34.22 36.48L32 35.28C31.4871 35.0245 30.9253 34.8821 30.3526 34.8626C29.7799 34.8431 29.2097 34.9468 28.6806 35.1668C28.1515 35.3868 27.6759 35.7179 27.2858 36.1377C26.8958 36.5575 26.6005 37.0562 26.42 37.6L25.62 40H22.44L21.64 37.6C21.461 37.0481 21.1641 36.5418 20.7698 36.1161C20.3756 35.6905 19.8934 35.3556 19.3568 35.1349C18.8203 34.9142 18.2421 34.8129 17.6625 34.8379C17.0828 34.863 16.5155 35.0138 16 35.28L13.72 36.42L11.52 34.22L12.72 32C12.9862 31.4845 13.137 30.9172 13.1621 30.3376C13.1871 29.7579 13.0858 29.1797 12.8651 28.6432C12.6444 28.1066 12.3096 27.6245 11.8839 27.2302C11.4582 26.836 10.9519 26.539 10.4 26.36L8.00001 25.56V22.44L10.4 21.64C10.9519 21.461 11.4582 21.1641 11.8839 20.7698C12.3096 20.3756 12.6444 19.8934 12.8651 19.3568C13.0858 18.8203 13.1871 18.2421 13.1621 17.6625C13.137 17.0828 12.9862 16.5155 12.72 16L11.58 13.78L13.78 11.58L16 12.72C16.5155 12.9862 17.0828 13.137 17.6625 13.1621C18.2421 13.1871 18.8203 13.0858 19.3568 12.8651C19.8934 12.6444 20.3756 12.3096 20.7698 11.8839C21.1641 11.4582 21.461 10.9519 21.64 10.4L22.44 8.00001H25.56L26.36 10.4C26.539 10.9519 26.836 11.4582 27.2302 11.8839C27.6245 12.3096 28.1066 12.6444 28.6432 12.8651C29.1797 13.0858 29.7579 13.1871 30.3376 13.1621C30.9172 13.137 31.4845 12.9862 32 12.72L34.28 11.58L36.48 13.78L35.28 16C35.0245 16.5129 34.8821 17.0747 34.8626 17.6474C34.8431 18.2201 34.9468 18.7903 35.1668 19.3194C35.3868 19.8485 35.7179 20.3241 36.1377 20.7142C36.5575 21.1042 37.0562 21.3995 37.6 21.58L40 22.38V25.56ZM24 16C22.4178 16 20.871 16.4692 19.5554 17.3483C18.2399 18.2273 17.2145 19.4767 16.609 20.9385C16.0035 22.4003 15.845 24.0089 16.1537 25.5607C16.4624 27.1126 17.2243 28.538 18.3432 29.6569C19.462 30.7757 20.8874 31.5376 22.4393 31.8463C23.9911 32.155 25.5997 31.9965 27.0615 31.391C28.5233 30.7855 29.7727 29.7602 30.6518 28.4446C31.5308 27.129 32 25.5823 32 24C32 21.8783 31.1572 19.8434 29.6569 18.3432C28.1566 16.8429 26.1217 16 24 16V16ZM24 28C23.2089 28 22.4355 27.7654 21.7777 27.3259C21.1199 26.8864 20.6072 26.2616 20.3045 25.5307C20.0017 24.7998 19.9225 23.9956 20.0769 23.2196C20.2312 22.4437 20.6122 21.731 21.1716 21.1716C21.731 20.6122 22.4437 20.2312 23.2196 20.0769C23.9956 19.9225 24.7998 20.0017 25.5307 20.3045C26.2616 20.6072 26.8864 21.1199 27.3259 21.7777C27.7654 22.4355 28 23.2089 28 24C28 25.0609 27.5786 26.0783 26.8284 26.8284C26.0783 27.5786 25.0609 28 24 28Z" fill="#0A8184"/>
</g>
<defs>
<clipPath id="clip0_9403_57704">
<rect width="48" height="48" fill="white"/>
</clipPath>
</defs>
</svg>
