<svg width="48" height="48" viewBox="0 0 48 48" fill="none" xmlns="http://www.w3.org/2000/svg">
<g clip-path="url(#clip0_9403_57616)">
<path d="M31.421 25.4193C33.3818 23.8766 34.813 21.7611 35.5154 19.3672C36.2179 16.9732 36.1568 14.4198 35.3405 12.0622C34.5243 9.70461 32.9935 7.66006 30.9611 6.21298C28.9287 4.76591 26.4959 3.98828 24.001 3.98828C21.5061 3.98828 19.0732 4.76591 17.0408 6.21298C15.0085 7.66006 13.4777 9.70461 12.6614 12.0622C11.8451 14.4198 11.784 16.9732 12.4865 19.3672C13.189 21.7611 14.6202 23.8766 16.581 25.4193C13.2211 26.7654 10.2895 28.998 8.09876 31.8791C5.90797 34.7602 4.5401 38.1819 4.14097 41.7793C4.11208 42.0419 4.1352 42.3077 4.20902 42.5614C4.28284 42.8151 4.4059 43.0518 4.57119 43.2579C4.90501 43.6743 5.39054 43.9409 5.92097 43.9993C6.4514 44.0576 6.98329 43.9029 7.39962 43.569C7.81595 43.2352 8.08262 42.7497 8.14097 42.2193C8.58014 38.3097 10.4443 34.6989 13.3774 32.0769C16.3105 29.4548 20.1068 28.0053 24.041 28.0053C27.9752 28.0053 31.7715 29.4548 34.7045 32.0769C37.6376 34.6989 39.5018 38.3097 39.941 42.2193C39.9953 42.7107 40.2298 43.1646 40.5992 43.4933C40.9685 43.822 41.4465 44.0023 41.941 43.9993H42.161C42.6852 43.9389 43.1644 43.6739 43.4941 43.2618C43.8238 42.8497 43.9772 42.324 43.921 41.7993C43.52 38.1917 42.1447 34.7612 39.9427 31.8757C37.7406 28.9901 34.7948 26.7582 31.421 25.4193V25.4193ZM24.001 23.9993C22.4187 23.9993 20.872 23.5301 19.5564 22.651C18.2408 21.772 17.2154 20.5226 16.6099 19.0607C16.0044 17.5989 15.846 15.9904 16.1547 14.4386C16.4634 12.8867 17.2253 11.4612 18.3441 10.3424C19.4629 9.2236 20.8884 8.46167 22.4402 8.15299C23.9921 7.84431 25.6006 8.00274 27.0624 8.60824C28.5242 9.21374 29.7737 10.2391 30.6527 11.5547C31.5318 12.8703 32.001 14.417 32.001 15.9993C32.001 18.121 31.1581 20.1558 29.6578 21.6561C28.1575 23.1564 26.1227 23.9993 24.001 23.9993Z" fill="#0A8184"/>
</g>
<defs>
<clipPath id="clip0_9403_57616">
<rect width="48" height="48" fill="white"/>
</clipPath>
</defs>
</svg>
