<svg width="48" height="48" viewBox="0 0 48 48" fill="none" xmlns="http://www.w3.org/2000/svg">
<g clip-path="url(#clip0_9403_57994)">
<path d="M39.5806 14.26C39.3922 14.0216 39.1521 13.8293 38.8783 13.6976C38.6045 13.566 38.3044 13.4984 38.0006 13.5H16.0006V12.5C16.0031 11.6294 16.2896 10.7833 16.8166 10.0903C17.3435 9.39724 18.0823 8.89507 18.9206 8.66C19.4591 9.17966 20.1725 9.47927 20.9206 9.5H22.9206C23.7162 9.5 24.4793 9.18393 25.0419 8.62132C25.6045 8.05871 25.9206 7.29565 25.9206 6.5C25.9206 5.70435 25.6045 4.94129 25.0419 4.37868C24.4793 3.81607 23.7162 3.5 22.9206 3.5H20.9206C20.4697 3.50062 20.0249 3.60354 19.6195 3.80101C19.2142 3.99847 18.859 4.28534 18.5806 4.64C16.7371 4.97249 15.0688 5.94134 13.8663 7.37769C12.6639 8.81403 12.0036 10.6268 12.0006 12.5V13.5H10.0006C9.69679 13.4984 9.39662 13.566 9.12286 13.6976C8.84909 13.8293 8.60892 14.0216 8.42058 14.26C8.22023 14.4975 8.07796 14.7784 8.00505 15.0804C7.93215 15.3824 7.93062 15.6973 8.00058 16L9.24058 20.98C9.53665 22.1271 10.1657 23.1608 11.0483 23.951C11.931 24.7411 13.0278 25.2523 14.2006 25.42L15.7606 39.42H14.0006C13.4701 39.42 12.9614 39.6307 12.5864 40.0058C12.2113 40.3809 12.0006 40.8896 12.0006 41.42C12.0006 41.9504 12.2113 42.4591 12.5864 42.8342C12.9614 43.2093 13.4701 43.42 14.0006 43.42H34.0006C34.531 43.42 35.0397 43.2093 35.4148 42.8342C35.7899 42.4591 36.0006 41.9504 36.0006 41.42C36.0006 40.8896 35.7899 40.3809 35.4148 40.0058C35.0397 39.6307 34.531 39.42 34.0006 39.42H32.2406L33.8006 25.42C34.965 25.2399 36.0507 24.7209 36.922 23.9277C37.7934 23.1346 38.412 22.1024 38.7006 20.96L40.0006 16C40.0705 15.6973 40.069 15.3824 39.9961 15.0804C39.9232 14.7784 39.7809 14.4975 39.5806 14.26V14.26ZM28.2006 39.5H19.8006L18.2406 25.5H29.7606L28.2006 39.5ZM34.8206 20C34.7111 20.4438 34.4529 20.8366 34.089 21.1132C33.7251 21.3897 33.2774 21.5333 32.8206 21.52H15.1206C14.6637 21.5333 14.2161 21.3897 13.8522 21.1132C13.4883 20.8366 13.2301 20.4438 13.1206 20L12.5606 17.5H35.4406L34.8206 20Z" fill="#0A8184"/>
</g>
<defs>
<clipPath id="clip0_9403_57994">
<rect width="48" height="48" fill="white"/>
</clipPath>
</defs>
</svg>
