<svg width="48" height="48" viewBox="0 0 48 48" fill="none" xmlns="http://www.w3.org/2000/svg">
<g clip-path="url(#clip0_9125_129733)">
<path d="M42.7607 11.5198C42.6924 11.2645 42.5742 11.0251 42.4128 10.8157C42.2515 10.6063 42.0502 10.431 41.8207 10.2998L31.4207 4.29984C31.1936 4.16677 30.9425 4.07983 30.6818 4.04401C30.421 4.00818 30.1558 4.02417 29.9012 4.09106C29.6467 4.15795 29.4078 4.27442 29.1984 4.4338C28.9889 4.59318 28.813 4.79233 28.6807 5.01984L24.0007 13.1398L19.3207 5.01984C19.1883 4.79233 19.0124 4.59318 18.803 4.4338C18.5935 4.27442 18.3547 4.15795 18.1001 4.09106C17.8456 4.02417 17.5803 4.00818 17.3196 4.04401C17.0589 4.07983 16.8077 4.16677 16.5807 4.29984L6.18068 10.2998C5.95114 10.431 5.74988 10.6063 5.58853 10.8157C5.42719 11.0251 5.30895 11.2645 5.24068 11.5198C5.10831 12.0267 5.18012 12.5653 5.44068 13.0198L13.4407 26.6798C12.5482 28.3149 12.0548 30.1378 12.0007 31.9998C11.9959 33.8164 12.4036 35.6103 13.1931 37.2464C13.9826 38.8825 15.1332 40.3179 16.5582 41.4446C17.9832 42.5712 19.6454 43.3596 21.4194 43.7504C23.1935 44.1411 25.0331 44.124 26.7996 43.7003C28.566 43.2766 30.2132 42.4574 31.617 41.3044C33.0208 40.1514 34.1445 38.6948 34.9034 37.0443C35.6622 35.3938 36.0365 33.5926 35.9979 31.7765C35.9594 29.9603 35.5089 28.1766 34.6807 26.5598L42.4807 13.0398C42.6258 12.8177 42.7254 12.5689 42.7734 12.308C42.8215 12.047 42.8172 11.7791 42.7607 11.5198ZM10.0007 12.7598L16.9207 8.75984L23.3607 19.9998C20.6155 20.1694 18.0142 21.2863 16.0007 23.1598L10.0007 12.7598ZM24.0007 39.9998C21.8789 39.9998 19.8441 39.157 18.3438 37.6567C16.8435 36.1564 16.0007 34.1216 16.0007 31.9998C16.0007 29.8781 16.8435 27.8433 18.3438 26.343C19.8441 24.8427 21.8789 23.9998 24.0007 23.9998C26.1224 23.9998 28.1572 24.8427 29.6575 26.343C31.1578 27.8433 32.0007 29.8781 32.0007 31.9998C32.0007 34.1216 31.1578 36.1564 29.6575 37.6567C28.1572 39.157 26.1224 39.9998 24.0007 39.9998ZM32.0007 23.0998C30.9148 22.1081 29.6532 21.328 28.2807 20.7998L26.3207 17.1398L31.1607 8.75984L38.0807 12.7598L32.0007 23.0998Z" fill="#0A8184"/>
</g>
<defs>
<clipPath id="clip0_9125_129733">
<rect width="48" height="48" fill="white"/>
</clipPath>
</defs>
</svg>
