<svg width="48" height="48" viewBox="0 0 48 48" fill="none" xmlns="http://www.w3.org/2000/svg">
<g clip-path="url(#clip0_9403_57627)">
<path d="M14 32C13.6044 32 13.2178 32.1173 12.8889 32.3371C12.56 32.5568 12.3036 32.8692 12.1522 33.2346C12.0009 33.6001 11.9613 34.0022 12.0384 34.3902C12.1156 34.7781 12.3061 35.1345 12.5858 35.4142C12.8655 35.6939 13.2219 35.8844 13.6098 35.9616C13.9978 36.0387 14.3999 35.9991 14.7654 35.8478C15.1308 35.6964 15.4432 35.44 15.6629 35.1111C15.8827 34.7822 16 34.3956 16 34C16 33.4696 15.7893 32.9609 15.4142 32.5858C15.0391 32.2107 14.5304 32 14 32ZM38.12 24L40.58 21.54C41.7036 20.415 42.3347 18.89 42.3347 17.3C42.3347 15.71 41.7036 14.185 40.58 13.06L34.92 7.42C33.795 6.2964 32.27 5.66528 30.68 5.66528C29.09 5.66528 27.565 6.2964 26.44 7.42L24 9.88C23.9686 8.30959 23.3226 6.81412 22.2008 5.71472C21.0789 4.61533 19.5707 3.99969 18 4H10C8.4087 4 6.88258 4.63214 5.75736 5.75736C4.63214 6.88258 4 8.4087 4 10V38C4 39.5913 4.63214 41.1174 5.75736 42.2426C6.88258 43.3679 8.4087 44 10 44H38C39.5913 44 41.1174 43.3679 42.2426 42.2426C43.3679 41.1174 44 39.5913 44 38V30C44.0003 28.4293 43.3847 26.9211 42.2853 25.7992C41.1859 24.6774 39.6904 24.0314 38.12 24ZM20 38C20 38.5304 19.7893 39.0391 19.4142 39.4142C19.0391 39.7893 18.5304 40 18 40H10C9.46957 40 8.96086 39.7893 8.58579 39.4142C8.21071 39.0391 8 38.5304 8 38V10C8 9.46957 8.21071 8.96086 8.58579 8.58579C8.96086 8.21071 9.46957 8 10 8H18C18.5304 8 19.0391 8.21071 19.4142 8.58579C19.7893 8.96086 20 9.46957 20 10V38ZM24 15.52L29.28 10.24C29.6547 9.8675 30.1616 9.65841 30.69 9.65841C31.2184 9.65841 31.7253 9.8675 32.1 10.24L37.76 16C38.1325 16.3747 38.3416 16.8816 38.3416 17.41C38.3416 17.9384 38.1325 18.4453 37.76 18.82L32 24.58L24 32.48V15.52ZM40 38C40 38.5304 39.7893 39.0391 39.4142 39.4142C39.0391 39.7893 38.5304 40 38 40H23.64C23.8452 39.4072 23.9598 38.7869 23.98 38.16L34.14 28H38C38.5304 28 39.0391 28.2107 39.4142 28.5858C39.7893 28.9609 40 29.4696 40 30V38Z" fill="#0A8184"/>
</g>
<defs>
<clipPath id="clip0_9403_57627">
<rect width="48" height="48" fill="white"/>
</clipPath>
</defs>
</svg>
