<svg width="48" height="48" viewBox="0 0 48 48" fill="none" xmlns="http://www.w3.org/2000/svg">
<g clip-path="url(#clip0_9403_57693)">
<path d="M39.9824 4.00391C39.7197 4.00376 39.4596 4.05539 39.2169 4.15584C38.9742 4.2563 38.7536 4.40361 38.5679 4.58936C38.3821 4.77511 38.2348 4.99564 38.1344 5.23836C38.0339 5.48108 37.9823 5.74122 37.9824 6.00391V7.27735C36.2956 9.36875 34.1637 11.0577 31.7419 12.2213C29.3201 13.385 26.6693 13.9939 23.9824 14.0039H11.9824C10.3917 14.0056 8.86654 14.6383 7.7417 15.7632C6.61686 16.888 5.98416 18.4131 5.98242 20.0039V24.0039C5.98416 25.5947 6.61686 27.1198 7.7417 28.2446C8.86654 29.3695 10.3917 30.0022 11.9824 30.0039H12.95L8.14454 41.2167C8.01395 41.5208 7.96093 41.8526 7.99025 42.1823C8.01956 42.512 8.13029 42.8292 8.31248 43.1055C8.49468 43.3818 8.74265 43.6086 9.03412 43.7654C9.3256 43.9222 9.65145 44.0041 9.98242 44.0039H17.9824C18.3739 44.0041 18.7569 43.8893 19.0836 43.6737C19.4104 43.458 19.6666 43.1511 19.8203 42.791L25.2678 30.0799C27.7291 30.2606 30.1272 30.944 32.3141 32.0878C34.5009 33.2316 36.4301 34.8115 37.9824 36.73V38.0039C37.9824 38.5343 38.1931 39.043 38.5682 39.4181C38.9433 39.7932 39.452 40.0039 39.9824 40.0039C40.5129 40.0039 41.0216 39.7932 41.3966 39.4181C41.7717 39.043 41.9824 38.5343 41.9824 38.0039V6.00391C41.9826 5.74122 41.9309 5.48108 41.8305 5.23836C41.73 4.99564 41.5827 4.7751 41.397 4.58935C41.2112 4.40361 40.9907 4.25629 40.748 4.15584C40.5052 4.05538 40.2451 4.00375 39.9824 4.00391V4.00391ZM11.9824 26.0039C11.4521 26.0036 10.9436 25.7927 10.5686 25.4177C10.1936 25.0427 9.98278 24.5342 9.98242 24.0039V20.0039C9.98278 19.4736 10.1936 18.9651 10.5686 18.5901C10.9436 18.2151 11.4521 18.0043 11.9824 18.0039H13.9824V26.0039H11.9824ZM16.6641 40.0039H13.0156L17.3008 30.0039H20.9492L16.6641 40.0039ZM37.9824 31.0475C34.0389 27.7988 29.0918 26.0165 23.9824 26.0038H17.9824V18.0038H23.9824C29.0919 17.9907 34.039 16.2081 37.9824 12.9591V31.0475Z" fill="#0A8184"/>
</g>
<defs>
<clipPath id="clip0_9403_57693">
<rect width="48" height="48" fill="white"/>
</clipPath>
</defs>
</svg>
