<svg width="48" height="48" viewBox="0 0 48 48" fill="none" xmlns="http://www.w3.org/2000/svg">
<g clip-path="url(#clip0_9403_57490)">
<path d="M39.9992 19.3403V19.0003C40.0113 15.5982 38.9319 12.2819 36.9195 9.53876C34.9071 6.79561 32.0679 4.77026 28.8192 3.76033H28.6992C27.0212 3.2488 25.273 3.0058 23.5192 3.04033C19.3428 3.26952 15.4113 5.08383 12.5271 8.11299C9.64294 11.1421 8.02344 15.1578 7.99915 19.3403C6.82717 19.7526 5.81208 20.5185 5.09399 21.5324C4.3759 22.5462 3.99023 23.758 3.99023 25.0003C3.99023 26.2427 4.3759 27.4545 5.09399 28.4683C5.81208 29.4821 6.82717 30.2481 7.99915 30.6603C8.41109 34.6099 10.277 38.2652 13.2341 40.9155C16.1912 43.5658 20.0282 45.0218 23.9992 45.0003H24.4592C28.2991 44.8145 31.949 43.274 34.7609 40.6525C37.5728 38.0309 39.365 34.4978 39.8192 30.6803C41.0049 30.2914 42.0399 29.5424 42.78 28.5376C43.5201 27.5328 43.9285 26.3222 43.9483 25.0744C43.9681 23.8267 43.5983 22.6038 42.8905 21.576C42.1827 20.5482 41.172 19.7667 39.9992 19.3403V19.3403ZM24.3592 41.0003C21.464 41.0841 18.6361 40.1179 16.3976 38.2799C14.159 36.442 12.6607 33.8564 12.1792 31.0003H35.7192C35.231 33.7041 33.8431 36.1635 31.7808 37.9789C29.7185 39.7943 27.103 40.8591 24.3592 41.0003ZM37.9992 27.0003H9.99915C9.46872 27.0003 8.96001 26.7896 8.58494 26.4145C8.20987 26.0395 7.99915 25.5308 7.99915 25.0003C7.99915 24.4699 8.20987 23.9612 8.58494 23.5861C8.96001 23.211 9.46872 23.0003 9.99915 23.0003H13.9992C14.5296 23.0003 15.0383 22.7896 15.4134 22.4145C15.7884 22.0395 15.9992 21.5308 15.9992 21.0003C15.9992 20.4699 15.7884 19.9612 15.4134 19.5861C15.0383 19.211 14.5296 19.0003 13.9992 19.0003H11.9992C12.0887 16.9256 12.6817 14.9037 13.727 13.1093C14.7723 11.3148 16.2385 9.80165 17.9992 8.70033V15.0003C17.9992 15.5308 18.2099 16.0395 18.5849 16.4145C18.96 16.7896 19.4687 17.0003 19.9992 17.0003C20.5296 17.0003 21.0383 16.7896 21.4134 16.4145C21.7884 16.0395 21.9992 15.5308 21.9992 15.0003V7.18033C22.542 7.08964 23.0895 7.02954 23.6392 7.00033H23.9992C24.6694 7.00977 25.338 7.06994 25.9992 7.18033V15.0003C25.9992 15.5308 26.2099 16.0395 26.5849 16.4145C26.96 16.7896 27.4687 17.0003 27.9992 17.0003C28.5296 17.0003 29.0383 16.7896 29.4134 16.4145C29.7884 16.0395 29.9992 15.5308 29.9992 15.0003V8.64033C30.8475 9.13158 31.639 9.71513 32.3592 10.3803C33.5123 11.5001 34.4287 12.8402 35.0539 14.3209C35.6792 15.8017 36.0007 17.393 35.9992 19.0003H33.9992C33.4687 19.0003 32.96 19.211 32.5849 19.5861C32.2099 19.9612 31.9992 20.4699 31.9992 21.0003C31.9992 21.5308 32.2099 22.0395 32.5849 22.4145C32.96 22.7896 33.4687 23.0003 33.9992 23.0003H37.9992C38.5296 23.0003 39.0383 23.211 39.4134 23.5861C39.7884 23.9612 39.9992 24.4699 39.9992 25.0003C39.9992 25.5308 39.7884 26.0395 39.4134 26.4145C39.0383 26.7896 38.5296 27.0003 37.9992 27.0003Z" fill="#0A8184"/>
</g>
<defs>
<clipPath id="clip0_9403_57490">
<rect width="48" height="48" fill="white"/>
</clipPath>
</defs>
</svg>
