<svg width="48" height="48" viewBox="0 0 48 48" fill="none" xmlns="http://www.w3.org/2000/svg">
<g clip-path="url(#clip0_9403_57950)">
<path d="M34 12H30V8H34C34.5304 8 35.0391 7.78929 35.4142 7.41421C35.7893 7.03914 36 6.53043 36 6C36 5.46957 35.7893 4.96086 35.4142 4.58579C35.0391 4.21071 34.5304 4 34 4H18C15.3478 4 12.8043 5.05357 10.9289 6.92893C9.05357 8.8043 8 11.3478 8 14V42C8 42.5304 8.21071 43.0391 8.58579 43.4142C8.96086 43.7893 9.46957 44 10 44C10.5304 44 11.0391 43.7893 11.4142 43.4142C11.7893 43.0391 12 42.5304 12 42V14C12 12.4087 12.6321 10.8826 13.7574 9.75736C14.8826 8.63214 16.4087 8 18 8H26V12H22C20.4087 12 18.8826 12.6321 17.7574 13.7574C16.6321 14.8826 16 16.4087 16 18V27.86C15.9996 28.8498 16.2441 29.8243 16.7117 30.6967C17.1794 31.5691 17.8555 32.3123 18.68 32.86L22 35.08V36C22 37.0609 22.4214 38.0783 23.1716 38.8284C23.9217 39.5786 24.9391 40 26 40V42C26 42.5304 26.2107 43.0391 26.5858 43.4142C26.9609 43.7893 27.4696 44 28 44C28.5304 44 29.0391 43.7893 29.4142 43.4142C29.7893 43.0391 30 42.5304 30 42V40C31.0609 40 32.0783 39.5786 32.8284 38.8284C33.5786 38.0783 34 37.0609 34 36V35.08L37.32 32.86C38.1445 32.3123 38.8206 31.5691 39.2882 30.6967C39.7559 29.8243 40.0004 28.8498 40 27.86V18C40 16.4087 39.3679 14.8826 38.2426 13.7574C37.1174 12.6321 35.5913 12 34 12ZM32 22H36V24H34C33.4696 24 32.9609 24.2107 32.5858 24.5858C32.2107 24.9609 32 25.4696 32 26C32 26.5304 32.2107 27.0391 32.5858 27.4142C32.9609 27.7893 33.4696 28 34 28H36C35.9786 28.3036 35.8883 28.5984 35.7358 28.8618C35.5833 29.1252 35.3727 29.3503 35.12 29.52L30.92 32.34C30.6412 32.5189 30.4111 32.7642 30.2506 33.0539C30.09 33.3437 30.0039 33.6688 30 34V36H26V34C25.9983 33.6706 25.9153 33.3467 25.7582 33.0571C25.6012 32.7675 25.3751 32.5212 25.1 32.34L20.9 29.52C20.6249 29.3388 20.3988 29.0925 20.2418 28.8029C20.0847 28.5133 20.0017 28.1894 20 27.86V18C20 17.4696 20.2107 16.9609 20.5858 16.5858C20.9609 16.2107 21.4696 16 22 16H34C34.5304 16 35.0391 16.2107 35.4142 16.5858C35.7893 16.9609 36 17.4696 36 18H32C31.4696 18 30.9609 18.2107 30.5858 18.5858C30.2107 18.9609 30 19.4696 30 20C30 20.5304 30.2107 21.0391 30.5858 21.4142C30.9609 21.7893 31.4696 22 32 22V22Z" fill="#0A8184"/>
</g>
<defs>
<clipPath id="clip0_9403_57950">
<rect width="48" height="48" fill="white"/>
</clipPath>
</defs>
</svg>
