<svg width="48" height="48" viewBox="0 0 48 48" fill="none" xmlns="http://www.w3.org/2000/svg">
<g clip-path="url(#clip0_9403_57983)">
<path d="M42 21.9996H34.12C33.9806 21.9807 33.8394 21.9807 33.7 21.9996H33.36C33.2555 22.0592 33.1553 22.1261 33.06 22.1996C32.9486 22.2731 32.8418 22.3533 32.74 22.4396C32.6732 22.5214 32.613 22.6083 32.56 22.6996C32.4684 22.8256 32.388 22.9595 32.32 23.0996V23.0996L29.12 31.9196L20.78 9.3196C20.6399 8.9335 20.3842 8.59991 20.0479 8.36417C19.7115 8.12842 19.3107 8.00195 18.9 8.00195C18.4893 8.00195 18.0885 8.12842 17.7521 8.36417C17.4158 8.59991 17.1601 8.9335 17.02 9.3196L12.4 21.9996H6C5.46957 21.9996 4.96086 22.2103 4.58579 22.5854C4.21071 22.9605 4 23.4692 4 23.9996C4 24.53 4.21071 25.0387 4.58579 25.4138C4.96086 25.7889 5.46957 25.9996 6 25.9996H13.84H14.3H14.6C14.7137 25.9449 14.821 25.8778 14.92 25.7996C15.0314 25.7261 15.1382 25.6459 15.24 25.5596L15.42 25.2996C15.5153 25.1761 15.5959 25.0418 15.66 24.8996L18.9 15.8396L27.22 38.6796C27.3597 39.0661 27.6152 39.4002 27.9516 39.6364C28.288 39.8726 28.689 39.9994 29.1 39.9996C29.511 39.9994 29.912 39.8726 30.2484 39.6364C30.5848 39.4002 30.8403 39.0661 30.98 38.6796L35.58 25.9996H42C42.5304 25.9996 43.0391 25.7889 43.4142 25.4138C43.7893 25.0387 44 24.53 44 23.9996C44 23.4692 43.7893 22.9605 43.4142 22.5854C43.0391 22.2103 42.5304 21.9996 42 21.9996Z" fill="#0A8184"/>
</g>
<defs>
<clipPath id="clip0_9403_57983">
<rect width="48" height="48" fill="white"/>
</clipPath>
</defs>
</svg>
