<svg width="48" height="48" viewBox="0 0 48 48" fill="none" xmlns="http://www.w3.org/2000/svg">
<g clip-path="url(#clip0_9403_57852)">
<path d="M40 21C39.4696 21 38.9609 21.2107 38.5858 21.5858C38.2107 21.9609 38 22.4696 38 23V37C38 37.5304 37.7893 38.0391 37.4142 38.4142C37.0391 38.7893 36.5304 39 36 39H8C7.46957 39 6.96086 38.7893 6.58579 38.4142C6.21071 38.0391 6 37.5304 6 37V21C6 20.4696 6.21071 19.9609 6.58579 19.5858C6.96086 19.2107 7.46957 19 8 19H12C12.4361 19.0228 12.8677 18.9021 13.2289 18.6566C13.59 18.411 13.8608 18.054 14 17.64L15.08 14.36C15.2142 13.9628 15.4698 13.6177 15.8107 13.3737C16.1517 13.1296 16.5607 12.9989 16.98 13H28C28.5304 13 29.0391 12.7893 29.4142 12.4142C29.7893 12.0391 30 11.5304 30 11C30 10.4696 29.7893 9.96086 29.4142 9.58579C29.0391 9.21071 28.5304 9 28 9H16.88C15.6231 9.00235 14.3987 9.39937 13.3795 10.135C12.3604 10.8707 11.598 11.9078 11.2 13.1L10.56 15.1H8C6.4087 15.1 4.88258 15.7321 3.75736 16.8574C2.63214 17.9826 2 19.5087 2 21.1V37.1C2 38.6913 2.63214 40.2174 3.75736 41.3426C4.88258 42.4679 6.4087 43.1 8 43.1H36C37.5913 43.1 39.1174 42.4679 40.2426 41.3426C41.3679 40.2174 42 38.6913 42 37.1V23.1C42.0136 22.8291 41.9719 22.5582 41.8774 22.3039C41.783 22.0496 41.6379 21.8171 41.4508 21.6207C41.2637 21.4242 41.0386 21.2679 40.7892 21.1612C40.5398 21.0545 40.2713 20.9997 40 21V21ZM22 19C20.4177 19 18.871 19.4692 17.5554 20.3482C16.2398 21.2273 15.2145 22.4767 14.609 23.9385C14.0035 25.4003 13.845 27.0089 14.1537 28.5607C14.4624 30.1126 15.2243 31.538 16.3431 32.6569C17.462 33.7757 18.8874 34.5376 20.4393 34.8463C21.9911 35.155 23.5997 34.9965 25.0615 34.391C26.5233 33.7855 27.7727 32.7602 28.6518 31.4446C29.5308 30.129 30 28.5823 30 27C30 24.8783 29.1571 22.8434 27.6569 21.3431C26.1566 19.8429 24.1217 19 22 19V19ZM22 31C21.2089 31 20.4355 30.7654 19.7777 30.3259C19.1199 29.8864 18.6072 29.2616 18.3045 28.5307C18.0017 27.7998 17.9225 26.9956 18.0769 26.2196C18.2312 25.4437 18.6122 24.731 19.1716 24.1716C19.731 23.6122 20.4437 23.2312 21.2196 23.0769C21.9956 22.9225 22.7998 23.0017 23.5307 23.3045C24.2616 23.6072 24.8864 24.1199 25.3259 24.7777C25.7654 25.4355 26 26.2089 26 27C26 28.0609 25.5786 29.0783 24.8284 29.8284C24.0783 30.5786 23.0609 31 22 31ZM44 9H42V7C42 6.46957 41.7893 5.96086 41.4142 5.58579C41.0391 5.21071 40.5304 5 40 5C39.4696 5 38.9609 5.21071 38.5858 5.58579C38.2107 5.96086 38 6.46957 38 7V9H36C35.4696 9 34.9609 9.21071 34.5858 9.58579C34.2107 9.96086 34 10.4696 34 11C34 11.5304 34.2107 12.0391 34.5858 12.4142C34.9609 12.7893 35.4696 13 36 13H38V15C38 15.5304 38.2107 16.0391 38.5858 16.4142C38.9609 16.7893 39.4696 17 40 17C40.5304 17 41.0391 16.7893 41.4142 16.4142C41.7893 16.0391 42 15.5304 42 15V13H44C44.5304 13 45.0391 12.7893 45.4142 12.4142C45.7893 12.0391 46 11.5304 46 11C46 10.4696 45.7893 9.96086 45.4142 9.58579C45.0391 9.21071 44.5304 9 44 9Z" fill="#0A8184"/>
</g>
<defs>
<clipPath id="clip0_9403_57852">
<rect width="48" height="48" fill="white"/>
</clipPath>
</defs>
</svg>
