<svg width="48" height="48" viewBox="0 0 48 48" fill="none" xmlns="http://www.w3.org/2000/svg">
<g clip-path="url(#clip0_9403_58213)">
<path d="M34.0002 18H14.0002C13.4698 18 12.9611 18.2107 12.586 18.5858C12.2109 18.9609 12.0002 19.4696 12.0002 20C12.0002 20.5304 12.2109 21.0391 12.586 21.4142C12.9611 21.7893 13.4698 22 14.0002 22H34.0002C34.5307 22 35.0394 21.7893 35.4144 21.4142C35.7895 21.0391 36.0002 20.5304 36.0002 20C36.0002 19.4696 35.7895 18.9609 35.4144 18.5858C35.0394 18.2107 34.5307 18 34.0002 18ZM26.0002 26H14.0002C13.4698 26 12.9611 26.2107 12.586 26.5858C12.2109 26.9609 12.0002 27.4696 12.0002 28C12.0002 28.5304 12.2109 29.0391 12.586 29.4142C12.9611 29.7893 13.4698 30 14.0002 30H26.0002C26.5307 30 27.0394 29.7893 27.4144 29.4142C27.7895 29.0391 28.0002 28.5304 28.0002 28C28.0002 27.4696 27.7895 26.9609 27.4144 26.5858C27.0394 26.2107 26.5307 26 26.0002 26ZM24.0002 4C21.3738 4 18.7731 4.51732 16.3466 5.52241C13.92 6.5275 11.7153 8.00069 9.85808 9.85786C6.10736 13.6086 4.00022 18.6957 4.00022 24C3.98274 28.6183 5.58181 33.0971 8.52022 36.66L4.52022 40.66C4.24271 40.9412 4.05471 41.2984 3.97996 41.6864C3.90522 42.0743 3.94706 42.4758 4.10022 42.84C4.26634 43.1999 4.53563 43.5022 4.87391 43.7088C5.2122 43.9153 5.60422 44.0167 6.00022 44H24.0002C29.3046 44 34.3916 41.8929 38.1424 38.1421C41.8931 34.3914 44.0002 29.3043 44.0002 24C44.0002 18.6957 41.8931 13.6086 38.1424 9.85786C34.3916 6.10714 29.3046 4 24.0002 4V4ZM24.0002 40H10.8202L12.6802 38.14C13.0527 37.7653 13.2618 37.2584 13.2618 36.73C13.2618 36.2016 13.0527 35.6947 12.6802 35.32C10.0614 32.7041 8.43057 29.2611 8.0656 25.5776C7.70064 21.8941 8.62411 18.198 10.6787 15.119C12.7332 12.0401 15.7918 9.76872 19.3333 8.69195C22.8747 7.61517 26.6799 7.79961 30.1007 9.21383C33.5214 10.628 36.3459 13.1845 38.0931 16.4478C39.8403 19.711 40.402 23.4791 39.6825 27.11C38.963 30.7409 37.0068 34.0101 34.1473 36.3605C31.2878 38.7109 27.7017 39.9971 24.0002 40V40Z" fill="#0A8184"/>
</g>
<defs>
<clipPath id="clip0_9403_58213">
<rect width="48" height="48" fill="white"/>
</clipPath>
</defs>
</svg>
