<svg width="48" height="48" viewBox="0 0 48 48" fill="none" xmlns="http://www.w3.org/2000/svg">
<g clip-path="url(#clip0_9403_57805)">
<path d="M39.26 7.30062C39.0277 7.11266 38.7561 6.97916 38.4654 6.90994C38.1747 6.84072 37.8721 6.83753 37.58 6.90062C35.4429 7.3485 33.2367 7.35421 31.0973 6.91738C28.9579 6.48056 26.9305 5.61045 25.14 4.36062C24.8052 4.12836 24.4075 4.00391 24 4.00391C23.5925 4.00391 23.1948 4.12836 22.86 4.36062C21.0695 5.61045 19.0422 6.48056 16.9027 6.91738C14.7633 7.35421 12.5571 7.3485 10.42 6.90062C10.1279 6.83753 9.82534 6.84072 9.53461 6.90994C9.24388 6.97916 8.97236 7.11266 8.74001 7.30062C8.50797 7.48885 8.32105 7.72669 8.193 7.99665C8.06494 8.26661 7.999 8.56183 8.00001 8.86062V23.7606C7.99823 26.6281 8.68156 29.4545 9.99308 32.0045C11.3046 34.5545 13.2064 36.7543 15.54 38.4206L22.84 43.6206C23.1787 43.8618 23.5842 43.9914 24 43.9914C24.4158 43.9914 24.8213 43.8618 25.16 43.6206L32.46 38.4206C34.7937 36.7543 36.6954 34.5545 38.0069 32.0045C39.3185 29.4545 40.0018 26.6281 40 23.7606V8.86062C40.001 8.56183 39.9351 8.26661 39.807 7.99665C39.679 7.72669 39.4921 7.48885 39.26 7.30062ZM36 23.7606C36.0015 25.9901 35.4706 28.1878 34.4513 30.1707C33.432 32.1535 31.9539 33.8643 30.14 35.1606L24 39.5406L17.86 35.1606C16.0461 33.8643 14.568 32.1535 13.5487 30.1707C12.5294 28.1878 11.9985 25.9901 12 23.7606V11.1606C16.1929 11.5195 20.3921 10.5467 24 8.38062C27.6079 10.5467 31.8072 11.5195 36 11.1606V23.7606Z" fill="#0A8184"/>
</g>
<defs>
<clipPath id="clip0_9403_57805">
<rect width="48" height="48" fill="white"/>
</clipPath>
</defs>
</svg>
