<svg width="48" height="48" viewBox="0 0 48 48" fill="none" xmlns="http://www.w3.org/2000/svg">
<path d="M42.3392 4.12024C40.9056 3.87331 39.4539 3.7462 37.9992 3.74024C33.0359 3.73617 28.1762 5.15939 23.9992 7.84024C19.8115 5.19459 14.9525 3.8063 9.99919 3.84024C8.54449 3.8462 7.0928 3.97331 5.65919 4.22024C5.18961 4.3012 4.76435 4.54716 4.46002 4.91383C4.15568 5.2805 3.99227 5.74378 3.99919 6.22024V30.2202C3.99491 30.5141 4.05545 30.8053 4.17649 31.0731C4.29754 31.3409 4.47612 31.5788 4.69954 31.7697C4.92295 31.9607 5.18571 32.1001 5.4691 32.1779C5.7525 32.2558 6.04958 32.2702 6.33919 32.2202C9.20523 31.724 12.1416 31.8063 14.9753 32.4624C17.8091 33.1184 20.4828 34.335 22.8392 36.0402L23.0792 36.1802H23.2992C23.521 36.2727 23.7589 36.3202 23.9992 36.3202C24.2395 36.3202 24.4774 36.2727 24.6992 36.1802H24.9192L25.1592 36.0402C27.4991 34.2968 30.1652 33.0409 32.9995 32.3469C35.8338 31.653 38.7785 31.5351 41.6592 32.0002C41.9488 32.0502 42.2459 32.0358 42.5293 31.9579C42.8127 31.8801 43.0754 31.7407 43.2988 31.5497C43.5223 31.3588 43.7008 31.1209 43.8219 30.8531C43.9429 30.5853 44.0035 30.2941 43.9992 30.0002V6.00024C43.9784 5.54455 43.8024 5.10966 43.5005 4.76772C43.1986 4.42577 42.7888 4.19732 42.3392 4.12024ZM21.9992 30.7002C18.299 28.7536 14.1802 27.7377 9.99919 27.7402C9.33919 27.7402 8.67919 27.7402 7.99919 27.7402V7.74024C8.66531 7.70185 9.33308 7.70185 9.99919 7.74024C14.266 7.73553 18.4396 8.98763 21.9992 11.3402V30.7002ZM39.9992 27.8202C39.3192 27.8202 38.6592 27.8202 37.9992 27.8202C33.8182 27.8177 29.6994 28.8336 25.9992 30.7802V11.3402C29.5588 8.98763 33.7324 7.73553 37.9992 7.74024C38.6653 7.70185 39.3331 7.70185 39.9992 7.74024V27.8202ZM42.3392 36.1202C40.9056 35.8733 39.4539 35.7462 37.9992 35.7402C33.0359 35.7362 28.1762 37.1594 23.9992 39.8402C19.8222 37.1594 14.9625 35.7362 9.99919 35.7402C8.54449 35.7462 7.0928 35.8733 5.65919 36.1202C5.39885 36.1616 5.14924 36.2539 4.92472 36.3921C4.7002 36.5302 4.5052 36.7113 4.35093 36.9251C4.19666 37.1388 4.08616 37.3809 4.0258 37.6375C3.96544 37.8941 3.95639 38.1601 3.99919 38.4202C4.10083 38.9396 4.40417 39.3975 4.84277 39.6937C5.28137 39.9898 5.81947 40.1001 6.33919 40.0002C9.20523 39.504 12.1416 39.5863 14.9753 40.2424C17.8091 40.8985 20.4828 42.115 22.8392 43.8202C23.1779 44.0614 23.5834 44.191 23.9992 44.191C24.415 44.191 24.8205 44.0614 25.1592 43.8202C27.5155 42.115 30.1893 40.8985 33.0231 40.2424C35.8568 39.5863 38.7932 39.504 41.6592 40.0002C42.1789 40.1001 42.717 39.9898 43.1556 39.6937C43.5942 39.3975 43.8976 38.9396 43.9992 38.4202C44.042 38.1601 44.0329 37.8941 43.9726 37.6375C43.9122 37.3809 43.8017 37.1388 43.6475 36.9251C43.4932 36.7113 43.2982 36.5302 43.0737 36.3921C42.8491 36.2539 42.5995 36.1616 42.3392 36.1202Z" fill="#0A8184"/>
</svg>
