<svg width="196" height="37" viewBox="0 0 196 37" fill="none" xmlns="http://www.w3.org/2000/svg">
<g clip-path="url(#clip0_9601_43955)">
<g clip-path="url(#clip1_9601_43955)">
<path d="M17.4123 14.4046C13.8373 14.4046 11.1035 11.615 11.1035 7.967C11.1035 4.31904 13.8373 1.52942 17.4123 1.52942C20.9873 1.52942 23.7212 4.31904 23.7212 7.967C23.7212 11.615 20.9873 14.4046 17.4123 14.4046Z" fill="black"/>
<path d="M21.6176 35.8631H13.2059V27.2797L9 22.988V16.5504H25.8235V22.988L21.6176 27.2797V35.8631Z" fill="black"/>
<path d="M4.79377 12.2587C2.48054 12.2587 0.587891 10.3275 0.587891 7.96701C0.587891 5.60657 2.48054 3.67529 4.79377 3.67529C7.10701 3.67529 8.99965 5.60657 8.99965 7.96701C8.99965 10.3275 7.10701 12.2587 4.79377 12.2587Z" fill="black"/>
<path d="M6.89671 23.8463V14.4045H0.587891V20.8421L2.69083 22.988V31.5714H8.99965V25.9922L6.89671 23.8463Z" fill="black"/>
<path d="M30.0281 12.2587C32.3414 12.2587 34.234 10.3275 34.234 7.96701C34.234 5.60657 32.3414 3.67529 30.0281 3.67529C27.7149 3.67529 25.8223 5.60657 25.8223 7.96701C25.8223 10.3275 27.7149 12.2587 30.0281 12.2587Z" fill="black"/>
<path d="M27.9252 23.8463V14.4045H34.234V20.8421L32.1311 22.988V31.5714H25.8223V25.9922L27.9252 23.8463Z" fill="black"/>
</g>
<path d="M54.3652 9.07715V11.4893C54.3652 11.9548 54.3927 12.2489 54.4478 12.3716C54.507 12.4901 54.6086 12.5853 54.7524 12.6572C54.8963 12.7292 55.165 12.7651 55.5586 12.7651V13H51.1533V12.7651C51.5511 12.7651 51.8198 12.7292 51.9595 12.6572C52.1034 12.5811 52.2028 12.4837 52.2578 12.3652C52.3171 12.2467 52.3467 11.9548 52.3467 11.4893V5.90332C52.3467 5.43783 52.3171 5.14583 52.2578 5.02734C52.2028 4.90462 52.1034 4.80729 51.9595 4.73535C51.8156 4.66341 51.5469 4.62744 51.1533 4.62744V4.39258H55.1523C56.1934 4.39258 56.9551 4.46452 57.4375 4.6084C57.9199 4.75228 58.3135 5.01888 58.6182 5.4082C58.9229 5.79329 59.0752 6.24609 59.0752 6.7666C59.0752 7.40137 58.8467 7.92611 58.3896 8.34082C58.0977 8.60319 57.6893 8.79997 57.1646 8.93115L59.2339 11.8447C59.5047 12.2214 59.6973 12.4562 59.8115 12.5493C59.985 12.6805 60.186 12.7524 60.4146 12.7651V13H57.7041L54.9302 9.07715H54.3652ZM54.3652 4.85596V8.62646H54.7271C55.3153 8.62646 55.7554 8.57357 56.0474 8.46777C56.3394 8.35775 56.5679 8.16309 56.7329 7.88379C56.9022 7.60026 56.9868 7.2321 56.9868 6.7793C56.9868 6.12337 56.8324 5.63883 56.5234 5.32568C56.2188 5.01253 55.7257 4.85596 55.0444 4.85596H54.3652ZM65.772 9.81982H62.5156C62.5537 10.6069 62.7632 11.229 63.144 11.686C63.436 12.0373 63.7873 12.2129 64.1978 12.2129C64.4517 12.2129 64.6823 12.1431 64.8896 12.0034C65.097 11.8595 65.3192 11.6035 65.5562 11.2354L65.772 11.375C65.4504 12.0309 65.0949 12.4964 64.7056 12.7715C64.3162 13.0423 63.8656 13.1777 63.3535 13.1777C62.4733 13.1777 61.8068 12.8392 61.354 12.1621C60.9901 11.6162 60.8081 10.9391 60.8081 10.1309C60.8081 9.14062 61.0747 8.35352 61.6079 7.76953C62.1453 7.18132 62.7738 6.88721 63.4932 6.88721C64.0941 6.88721 64.6146 7.13477 65.0547 7.62988C65.499 8.12077 65.7381 8.85075 65.772 9.81982ZM64.2104 9.39453C64.2104 8.71322 64.1724 8.24561 64.0962 7.9917C64.0243 7.73779 63.91 7.54525 63.7534 7.41406C63.6646 7.33789 63.5461 7.2998 63.3979 7.2998C63.1779 7.2998 62.998 7.40771 62.8584 7.62354C62.6087 8.00016 62.4839 8.51644 62.4839 9.17236V9.39453H64.2104ZM68.8188 12.397V14.606C68.8188 14.9106 68.8421 15.118 68.8887 15.228C68.9395 15.3381 69.0156 15.4185 69.1172 15.4692C69.2188 15.52 69.4176 15.5454 69.7139 15.5454V15.7803H66.3306V15.5454C66.5929 15.5369 66.7876 15.4629 66.9146 15.3232C66.9992 15.2259 67.0415 14.9741 67.0415 14.5679V8.30273C67.0415 7.88379 66.9928 7.61719 66.8955 7.50293C66.7982 7.38444 66.6099 7.31673 66.3306 7.2998V7.06494H68.8188V7.8457C69.0262 7.54102 69.2378 7.32096 69.4536 7.18555C69.7625 6.98665 70.099 6.88721 70.4629 6.88721C70.8988 6.88721 71.2944 7.02474 71.6499 7.2998C72.0096 7.57487 72.2826 7.95573 72.4688 8.44238C72.6549 8.9248 72.748 9.44531 72.748 10.0039C72.748 10.6048 72.6507 11.1549 72.4561 11.6543C72.2656 12.1494 71.9863 12.5282 71.6182 12.7905C71.2542 13.0487 70.848 13.1777 70.3994 13.1777C70.0736 13.1777 69.7689 13.1058 69.4854 12.9619C69.2738 12.8519 69.0516 12.6636 68.8188 12.397ZM68.8188 11.7559C69.1828 12.2721 69.5721 12.5303 69.9868 12.5303C70.2153 12.5303 70.4036 12.4097 70.5518 12.1685C70.7718 11.813 70.8818 11.1359 70.8818 10.1372C70.8818 9.11312 70.7612 8.41276 70.52 8.03613C70.3592 7.78646 70.1434 7.66162 69.8726 7.66162C69.4451 7.66162 69.0939 7.97054 68.8188 8.58838V11.7559ZM79.4893 7.06494V11.7114C79.4893 12.1642 79.5316 12.4478 79.6162 12.562C79.7008 12.672 79.8722 12.7419 80.1304 12.7715V13H77.7119V12.2065C77.4284 12.5451 77.1449 12.7926 76.8613 12.9492C76.5778 13.1016 76.2604 13.1777 75.9092 13.1777C75.5749 13.1777 75.2765 13.0762 75.0142 12.873C74.756 12.6657 74.5825 12.4245 74.4937 12.1494C74.4048 11.8743 74.3604 11.394 74.3604 10.7085V8.35352C74.3604 7.90495 74.318 7.62565 74.2334 7.51562C74.153 7.4056 73.9816 7.33366 73.7192 7.2998V7.06494H76.1377V11.1211C76.1377 11.5443 76.1567 11.8172 76.1948 11.9399C76.2371 12.0627 76.3006 12.1558 76.3853 12.2192C76.4741 12.2827 76.5757 12.3145 76.6899 12.3145C76.8423 12.3145 76.9798 12.2743 77.1025 12.1938C77.2718 12.0838 77.4749 11.8617 77.7119 11.5273V8.35352C77.7119 7.90495 77.6696 7.62565 77.585 7.51562C77.5046 7.4056 77.3332 7.33366 77.0708 7.2998V7.06494H79.4893ZM83.2915 4.39258V7.66162C83.7909 7.14535 84.3368 6.88721 84.9292 6.88721C85.3354 6.88721 85.7184 7.00781 86.0781 7.24902C86.4378 7.486 86.7192 7.82454 86.9224 8.26465C87.1255 8.70475 87.2271 9.21257 87.2271 9.78809C87.2271 10.4355 87.098 11.0238 86.8398 11.5527C86.5817 12.0817 86.2368 12.4858 85.8052 12.7651C85.3735 13.0402 84.8805 13.1777 84.3262 13.1777C84.0046 13.1777 83.7189 13.127 83.4692 13.0254C83.2196 12.9238 82.9741 12.7588 82.7329 12.5303L81.749 13.1714H81.5332V5.62402C81.5332 5.28125 81.5184 5.06966 81.4888 4.98926C81.4465 4.87077 81.3787 4.78402 81.2856 4.729C81.1968 4.66976 81.0444 4.6359 80.8286 4.62744V4.39258H83.2915ZM83.2915 8.22656V10.8672C83.2915 11.4046 83.3042 11.7474 83.3296 11.8955C83.3719 12.1452 83.4735 12.3483 83.6343 12.5049C83.7951 12.6572 84.0003 12.7334 84.25 12.7334C84.4658 12.7334 84.6499 12.672 84.8022 12.5493C84.9588 12.4266 85.0879 12.1833 85.1895 11.8193C85.2952 11.4554 85.3481 10.7995 85.3481 9.85156C85.3481 8.94173 85.2339 8.31755 85.0054 7.979C84.8403 7.73356 84.6182 7.61084 84.3389 7.61084C83.9749 7.61084 83.6258 7.81608 83.2915 8.22656ZM90.5532 4.39258V11.7686C90.5532 12.1875 90.6019 12.4562 90.6992 12.5747C90.7965 12.689 90.987 12.7546 91.2705 12.7715V13H88.0649V12.7715C88.3273 12.763 88.522 12.6868 88.6489 12.543C88.7336 12.4456 88.7759 12.1875 88.7759 11.7686V5.62402C88.7759 5.20931 88.7272 4.94482 88.6299 4.83057C88.5326 4.71208 88.3442 4.64437 88.0649 4.62744V4.39258H90.5532ZM93.2764 4.18945C93.5514 4.18945 93.7842 4.28678 93.9746 4.48145C94.165 4.67188 94.2603 4.90251 94.2603 5.17334C94.2603 5.44417 94.1629 5.6748 93.9683 5.86523C93.7778 6.05566 93.5472 6.15088 93.2764 6.15088C93.0055 6.15088 92.7749 6.05566 92.5845 5.86523C92.394 5.6748 92.2988 5.44417 92.2988 5.17334C92.2988 4.90251 92.394 4.67188 92.5845 4.48145C92.7749 4.28678 93.0055 4.18945 93.2764 4.18945ZM94.165 7.06494V11.7686C94.165 12.1875 94.2137 12.4562 94.311 12.5747C94.4084 12.689 94.5988 12.7546 94.8823 12.7715V13H91.6768V12.7715C91.9391 12.763 92.1338 12.6868 92.2607 12.543C92.3454 12.4456 92.3877 12.1875 92.3877 11.7686V8.30273C92.3877 7.88379 92.339 7.61719 92.2417 7.50293C92.1444 7.38444 91.9561 7.31673 91.6768 7.2998V7.06494H94.165ZM100.31 11.4702L100.506 11.6226C100.227 12.1473 99.8779 12.5387 99.459 12.7969C99.0443 13.0508 98.6021 13.1777 98.1323 13.1777C97.341 13.1777 96.7083 12.8794 96.2344 12.2827C95.7604 11.686 95.5234 10.9688 95.5234 10.1309C95.5234 9.32259 95.7393 8.61165 96.1709 7.99805C96.6914 7.25749 97.4087 6.88721 98.3228 6.88721C98.9364 6.88721 99.423 7.04167 99.7827 7.35059C100.147 7.65951 100.329 8.00439 100.329 8.38525C100.329 8.62646 100.255 8.81901 100.106 8.96289C99.9626 9.10677 99.7721 9.17871 99.5352 9.17871C99.2855 9.17871 99.0781 9.09619 98.9131 8.93115C98.7523 8.76611 98.6528 8.47201 98.6147 8.04883C98.5894 7.78223 98.528 7.59603 98.4307 7.49023C98.3333 7.38444 98.2191 7.33154 98.0879 7.33154C97.8848 7.33154 97.7113 7.43945 97.5674 7.65527C97.3473 7.98112 97.2373 8.48047 97.2373 9.15332C97.2373 9.71191 97.3262 10.2472 97.5039 10.7593C97.6816 11.2671 97.925 11.6458 98.2339 11.8955C98.4666 12.0775 98.7417 12.1685 99.0591 12.1685C99.2664 12.1685 99.4632 12.1198 99.6494 12.0225C99.8356 11.9251 100.056 11.741 100.31 11.4702ZM107.292 6.88721C107.808 6.88721 108.289 7.02051 108.733 7.28711C109.177 7.55371 109.514 7.93245 109.742 8.42334C109.975 8.91423 110.091 9.45166 110.091 10.0356C110.091 10.8778 109.878 11.5824 109.45 12.1494C108.934 12.835 108.221 13.1777 107.311 13.1777C106.418 13.1777 105.73 12.8646 105.248 12.2383C104.766 11.612 104.524 10.8862 104.524 10.061C104.524 9.21045 104.77 8.46989 105.261 7.83936C105.756 7.20459 106.433 6.88721 107.292 6.88721ZM107.317 7.33789C107.102 7.33789 106.915 7.42041 106.759 7.58545C106.606 7.74626 106.505 8.06787 106.454 8.55029C106.408 9.02848 106.384 9.69499 106.384 10.5498C106.384 11.0026 106.414 11.4258 106.473 11.8193C106.52 12.1198 106.619 12.3483 106.771 12.5049C106.924 12.6615 107.097 12.7397 107.292 12.7397C107.482 12.7397 107.641 12.6868 107.768 12.5811C107.933 12.4372 108.043 12.2362 108.098 11.978C108.183 11.576 108.225 10.7635 108.225 9.54053C108.225 8.82113 108.185 8.32812 108.104 8.06152C108.024 7.79069 107.906 7.59391 107.749 7.47119C107.639 7.38232 107.495 7.33789 107.317 7.33789ZM113.595 7.68701V11.8066C113.595 12.2044 113.638 12.4541 113.722 12.5557C113.858 12.7122 114.107 12.7842 114.471 12.7715V13H110.974V12.7715C111.24 12.7673 111.429 12.7376 111.539 12.6826C111.653 12.6234 111.731 12.543 111.773 12.4414C111.816 12.3398 111.837 12.1283 111.837 11.8066V7.68701H110.974V7.06494H111.837V6.62695L111.831 6.32861C111.831 5.71924 112.053 5.21143 112.497 4.80518C112.946 4.39893 113.551 4.1958 114.312 4.1958C114.833 4.1958 115.218 4.29313 115.468 4.48779C115.722 4.68245 115.849 4.89827 115.849 5.13525C115.849 5.32568 115.77 5.49072 115.614 5.63037C115.457 5.77002 115.25 5.83984 114.992 5.83984C114.772 5.83984 114.596 5.78271 114.465 5.66846C114.338 5.5542 114.274 5.42725 114.274 5.2876C114.274 5.24951 114.287 5.17122 114.312 5.05273C114.329 4.98079 114.338 4.91309 114.338 4.84961C114.338 4.76074 114.312 4.69515 114.262 4.65283C114.194 4.58936 114.111 4.55762 114.014 4.55762C113.891 4.55762 113.788 4.6084 113.703 4.70996C113.623 4.81152 113.583 4.97445 113.583 5.19873L113.595 6.30957V7.06494H114.471V7.68701H113.595ZM126.811 4.1958V7.1792H126.563C126.377 6.40055 126.03 5.80387 125.522 5.38916C125.015 4.97445 124.439 4.76709 123.796 4.76709C123.258 4.76709 122.765 4.92155 122.317 5.23047C121.868 5.53939 121.54 5.94352 121.333 6.44287C121.066 7.08187 120.933 7.79281 120.933 8.57568C120.933 9.34587 121.03 10.0483 121.225 10.6831C121.42 11.3136 121.724 11.7918 122.139 12.1177C122.554 12.4393 123.091 12.6001 123.751 12.6001C124.293 12.6001 124.788 12.4816 125.237 12.2446C125.69 12.0076 126.166 11.5993 126.665 11.0195V11.7622C126.183 12.2658 125.679 12.6318 125.154 12.8604C124.634 13.0846 124.024 13.1968 123.326 13.1968C122.408 13.1968 121.591 13.0127 120.876 12.6445C120.165 12.2764 119.615 11.7474 119.226 11.0576C118.84 10.3678 118.648 9.63363 118.648 8.85498C118.648 8.03402 118.862 7.25537 119.289 6.51904C119.721 5.78271 120.3 5.21143 121.028 4.80518C121.76 4.39893 122.537 4.1958 123.358 4.1958C123.963 4.1958 124.602 4.32699 125.275 4.58936C125.664 4.7417 125.912 4.81787 126.018 4.81787C126.153 4.81787 126.269 4.76921 126.367 4.67188C126.468 4.57031 126.534 4.41162 126.563 4.1958H126.811ZM129.395 4.18945C129.67 4.18945 129.902 4.28678 130.093 4.48145C130.283 4.67188 130.378 4.90251 130.378 5.17334C130.378 5.44417 130.281 5.6748 130.086 5.86523C129.896 6.05566 129.665 6.15088 129.395 6.15088C129.124 6.15088 128.893 6.05566 128.703 5.86523C128.512 5.6748 128.417 5.44417 128.417 5.17334C128.417 4.90251 128.512 4.67188 128.703 4.48145C128.893 4.28678 129.124 4.18945 129.395 4.18945ZM130.283 7.06494V11.7686C130.283 12.1875 130.332 12.4562 130.429 12.5747C130.527 12.689 130.717 12.7546 131 12.7715V13H127.795V12.7715C128.057 12.763 128.252 12.6868 128.379 12.543C128.464 12.4456 128.506 12.1875 128.506 11.7686V8.30273C128.506 7.88379 128.457 7.61719 128.36 7.50293C128.263 7.38444 128.074 7.31673 127.795 7.2998V7.06494H130.283ZM134.263 13.1777L132.264 8.57568C132.022 8.02132 131.834 7.67008 131.699 7.52197C131.601 7.41195 131.458 7.33789 131.267 7.2998V7.06494H134.422V7.2998C134.223 7.2998 134.088 7.33577 134.016 7.40771C133.914 7.50081 133.863 7.61084 133.863 7.73779C133.863 7.89437 133.956 8.18848 134.143 8.62012L135.12 10.8481L135.901 8.9248C136.125 8.37467 136.237 7.98535 136.237 7.75684C136.237 7.62565 136.189 7.51986 136.091 7.43945C135.998 7.35482 135.831 7.30827 135.59 7.2998V7.06494H137.532V7.2998C137.346 7.3252 137.194 7.39502 137.075 7.50928C136.957 7.62354 136.779 7.95996 136.542 8.51855L134.562 13.1777H134.263ZM139.513 4.18945C139.788 4.18945 140.021 4.28678 140.211 4.48145C140.401 4.67188 140.497 4.90251 140.497 5.17334C140.497 5.44417 140.399 5.6748 140.205 5.86523C140.014 6.05566 139.784 6.15088 139.513 6.15088C139.242 6.15088 139.011 6.05566 138.821 5.86523C138.63 5.6748 138.535 5.44417 138.535 5.17334C138.535 4.90251 138.63 4.67188 138.821 4.48145C139.011 4.28678 139.242 4.18945 139.513 4.18945ZM140.401 7.06494V11.7686C140.401 12.1875 140.45 12.4562 140.547 12.5747C140.645 12.689 140.835 12.7546 141.119 12.7715V13H137.913V12.7715C138.175 12.763 138.37 12.6868 138.497 12.543C138.582 12.4456 138.624 12.1875 138.624 11.7686V8.30273C138.624 7.88379 138.575 7.61719 138.478 7.50293C138.381 7.38444 138.192 7.31673 137.913 7.2998V7.06494H140.401ZM146.546 11.4702L146.743 11.6226C146.463 12.1473 146.114 12.5387 145.695 12.7969C145.281 13.0508 144.838 13.1777 144.369 13.1777C143.577 13.1777 142.945 12.8794 142.471 12.2827C141.997 11.686 141.76 10.9688 141.76 10.1309C141.76 9.32259 141.976 8.61165 142.407 7.99805C142.928 7.25749 143.645 6.88721 144.559 6.88721C145.173 6.88721 145.659 7.04167 146.019 7.35059C146.383 7.65951 146.565 8.00439 146.565 8.38525C146.565 8.62646 146.491 8.81901 146.343 8.96289C146.199 9.10677 146.008 9.17871 145.771 9.17871C145.522 9.17871 145.314 9.09619 145.149 8.93115C144.989 8.76611 144.889 8.47201 144.851 8.04883C144.826 7.78223 144.764 7.59603 144.667 7.49023C144.57 7.38444 144.455 7.33154 144.324 7.33154C144.121 7.33154 143.948 7.43945 143.804 7.65527C143.584 7.98112 143.474 8.48047 143.474 9.15332C143.474 9.71191 143.562 10.2472 143.74 10.7593C143.918 11.2671 144.161 11.6458 144.47 11.8955C144.703 12.0775 144.978 12.1685 145.295 12.1685C145.503 12.1685 145.7 12.1198 145.886 12.0225C146.072 11.9251 146.292 11.741 146.546 11.4702ZM155.242 4.39258V6.72217H155.014C154.878 6.18473 154.728 5.79964 154.563 5.56689C154.398 5.32992 154.172 5.1416 153.884 5.00195C153.723 4.92578 153.442 4.8877 153.04 4.8877H152.398V11.5273C152.398 11.9674 152.422 12.2425 152.468 12.3525C152.519 12.4626 152.614 12.5599 152.754 12.6445C152.898 12.7249 153.092 12.7651 153.338 12.7651H153.624V13H149.117V12.7651H149.402C149.652 12.7651 149.853 12.7207 150.005 12.6318C150.115 12.5726 150.202 12.471 150.266 12.3271C150.312 12.2256 150.335 11.959 150.335 11.5273V4.8877H149.713C149.134 4.8877 148.713 5.01042 148.45 5.25586C148.082 5.59863 147.849 6.0874 147.752 6.72217H147.511V4.39258H155.242ZM161.177 9.81982H157.921C157.959 10.6069 158.168 11.229 158.549 11.686C158.841 12.0373 159.193 12.2129 159.603 12.2129C159.857 12.2129 160.088 12.1431 160.295 12.0034C160.502 11.8595 160.724 11.6035 160.961 11.2354L161.177 11.375C160.856 12.0309 160.5 12.4964 160.111 12.7715C159.722 13.0423 159.271 13.1777 158.759 13.1777C157.879 13.1777 157.212 12.8392 156.759 12.1621C156.395 11.6162 156.213 10.9391 156.213 10.1309C156.213 9.14062 156.48 8.35352 157.013 7.76953C157.551 7.18132 158.179 6.88721 158.898 6.88721C159.499 6.88721 160.02 7.13477 160.46 7.62988C160.904 8.12077 161.143 8.85075 161.177 9.81982ZM159.616 9.39453C159.616 8.71322 159.578 8.24561 159.501 7.9917C159.43 7.73779 159.315 7.54525 159.159 7.41406C159.07 7.33789 158.951 7.2998 158.803 7.2998C158.583 7.2998 158.403 7.40771 158.264 7.62354C158.014 8.00016 157.889 8.51644 157.889 9.17236V9.39453H159.616ZM166.77 11.4702L166.966 11.6226C166.687 12.1473 166.338 12.5387 165.919 12.7969C165.504 13.0508 165.062 13.1777 164.592 13.1777C163.801 13.1777 163.168 12.8794 162.694 12.2827C162.22 11.686 161.983 10.9688 161.983 10.1309C161.983 9.32259 162.199 8.61165 162.631 7.99805C163.151 7.25749 163.869 6.88721 164.783 6.88721C165.396 6.88721 165.883 7.04167 166.243 7.35059C166.607 7.65951 166.789 8.00439 166.789 8.38525C166.789 8.62646 166.715 8.81901 166.566 8.96289C166.423 9.10677 166.232 9.17871 165.995 9.17871C165.745 9.17871 165.538 9.09619 165.373 8.93115C165.212 8.76611 165.113 8.47201 165.075 8.04883C165.049 7.78223 164.988 7.59603 164.891 7.49023C164.793 7.38444 164.679 7.33154 164.548 7.33154C164.345 7.33154 164.171 7.43945 164.027 7.65527C163.807 7.98112 163.697 8.48047 163.697 9.15332C163.697 9.71191 163.786 10.2472 163.964 10.7593C164.142 11.2671 164.385 11.6458 164.694 11.8955C164.927 12.0775 165.202 12.1685 165.519 12.1685C165.726 12.1685 165.923 12.1198 166.109 12.0225C166.296 11.9251 166.516 11.741 166.77 11.4702ZM170.127 4.39258V7.82666C170.453 7.48389 170.752 7.24268 171.022 7.10303C171.293 6.95915 171.575 6.88721 171.867 6.88721C172.239 6.88721 172.556 6.993 172.819 7.20459C173.085 7.41618 173.261 7.66585 173.346 7.95361C173.435 8.23714 173.479 8.71745 173.479 9.39453V11.7114C173.479 12.1642 173.521 12.4478 173.606 12.562C173.691 12.672 173.862 12.7419 174.12 12.7715V13H171.111V12.7715C171.323 12.7419 171.482 12.6572 171.587 12.5176C171.664 12.4076 171.702 12.1388 171.702 11.7114V9.06445C171.702 8.57357 171.683 8.26676 171.645 8.14404C171.606 8.01709 171.541 7.91976 171.448 7.85205C171.359 7.78011 171.257 7.74414 171.143 7.74414C170.974 7.74414 170.809 7.80339 170.648 7.92188C170.487 8.03613 170.314 8.23926 170.127 8.53125V11.7114C170.127 12.1346 170.159 12.3991 170.223 12.5049C170.303 12.6488 170.468 12.7376 170.718 12.7715V13H167.709V12.7715C167.959 12.7461 168.136 12.6657 168.242 12.5303C168.314 12.4372 168.35 12.1642 168.35 11.7114V5.68115C168.35 5.23258 168.308 4.95329 168.223 4.84326C168.143 4.73324 167.971 4.6613 167.709 4.62744V4.39258H170.127Z" fill="black"/>
<rect x="50.5879" y="18.1177" width="0.647052" height="144.941" transform="rotate(-90 50.5879 18.1177)" fill="black"/>
<path d="M51.082 31.7646V31.5298H51.3677C51.6174 31.5298 51.8078 31.4917 51.939 31.4155C52.0744 31.3351 52.1738 31.2272 52.2373 31.0918C52.2754 31.0029 52.2944 30.7363 52.2944 30.292V24.6299C52.2944 24.1898 52.2712 23.9147 52.2246 23.8047C52.1781 23.6947 52.0828 23.5994 51.939 23.519C51.7993 23.4344 51.6089 23.3921 51.3677 23.3921H51.082V23.1572H54.9351C55.9634 23.1572 56.7907 23.2969 57.417 23.5762C58.1829 23.9189 58.7627 24.4373 59.1562 25.1313C59.554 25.8254 59.7529 26.6104 59.7529 27.4863C59.7529 28.0915 59.6556 28.6501 59.4609 29.1621C59.2663 29.6699 59.0145 30.091 58.7056 30.4253C58.3966 30.7554 58.0391 31.022 57.6328 31.2251C57.2308 31.424 56.7378 31.5785 56.1538 31.6885C55.8957 31.7393 55.4894 31.7646 54.9351 31.7646H51.082ZM54.3638 23.646V30.3618C54.3638 30.7173 54.3807 30.9352 54.4146 31.0156C54.4484 31.096 54.5055 31.1574 54.5859 31.1997C54.7002 31.2632 54.8652 31.2949 55.0811 31.2949C55.7878 31.2949 56.3273 31.0537 56.6997 30.5713C57.2075 29.9196 57.4614 28.9082 57.4614 27.5371C57.4614 26.4326 57.2879 25.5503 56.9409 24.8901C56.6659 24.3739 56.3125 24.0226 55.8809 23.8364C55.5762 23.7052 55.0705 23.6418 54.3638 23.646Z" fill="black"/>
<path d="M65.7705 28.5845H62.5142C62.5522 29.3716 62.7617 29.9937 63.1426 30.4507C63.4346 30.8019 63.7858 30.9775 64.1963 30.9775C64.4502 30.9775 64.6808 30.9077 64.8882 30.7681C65.0955 30.6242 65.3177 30.3682 65.5547 30L65.7705 30.1396C65.4489 30.7956 65.0934 31.2611 64.7041 31.5361C64.3148 31.807 63.8641 31.9424 63.3521 31.9424C62.4718 31.9424 61.8053 31.6038 61.3525 30.9268C60.9886 30.3809 60.8066 29.7038 60.8066 28.8955C60.8066 27.9053 61.0732 27.1182 61.6064 26.5342C62.1439 25.946 62.7723 25.6519 63.4917 25.6519C64.0926 25.6519 64.6131 25.8994 65.0532 26.3945C65.4976 26.8854 65.7367 27.6154 65.7705 28.5845ZM64.209 28.1592C64.209 27.4779 64.1709 27.0103 64.0947 26.7563C64.0228 26.5024 63.9085 26.3099 63.752 26.1787C63.6631 26.1025 63.5446 26.0645 63.3965 26.0645C63.1764 26.0645 62.9966 26.1724 62.8569 26.3882C62.6073 26.7648 62.4824 27.2811 62.4824 27.937V28.1592H64.209Z" fill="black"/>
<path d="M68.8174 31.1616V33.3706C68.8174 33.6753 68.8407 33.8826 68.8872 33.9927C68.938 34.1027 69.0142 34.1831 69.1157 34.2339C69.2173 34.2847 69.4162 34.3101 69.7124 34.3101V34.5449H66.3291V34.3101C66.5915 34.3016 66.7861 34.2275 66.9131 34.0879C66.9977 33.9906 67.04 33.7388 67.04 33.3325V27.0674C67.04 26.6484 66.9914 26.3818 66.894 26.2676C66.7967 26.1491 66.6084 26.0814 66.3291 26.0645V25.8296H68.8174V26.6104C69.0247 26.3057 69.2363 26.0856 69.4521 25.9502C69.7611 25.7513 70.0975 25.6519 70.4614 25.6519C70.8973 25.6519 71.293 25.7894 71.6484 26.0645C72.0081 26.3395 72.2811 26.7204 72.4673 27.207C72.6535 27.6895 72.7466 28.21 72.7466 28.7686C72.7466 29.3695 72.6493 29.9196 72.4546 30.4189C72.2642 30.9141 71.9849 31.2928 71.6167 31.5552C71.2528 31.8133 70.8465 31.9424 70.3979 31.9424C70.0721 31.9424 69.7674 31.8704 69.4839 31.7266C69.2723 31.6165 69.0501 31.4282 68.8174 31.1616ZM68.8174 30.5205C69.1813 31.0368 69.5706 31.2949 69.9854 31.2949C70.2139 31.2949 70.4022 31.1743 70.5503 30.9331C70.7703 30.5776 70.8804 29.9006 70.8804 28.9019C70.8804 27.8778 70.7598 27.1774 70.5186 26.8008C70.3577 26.5511 70.1419 26.4263 69.8711 26.4263C69.4437 26.4263 69.0924 26.7352 68.8174 27.353V30.5205Z" fill="black"/>
<path d="M77.0312 30.8887C76.3076 31.5277 75.658 31.8472 75.0825 31.8472C74.744 31.8472 74.4626 31.7371 74.2383 31.5171C74.014 31.2928 73.9019 31.0135 73.9019 30.6792C73.9019 30.2264 74.0965 29.8201 74.4858 29.4604C74.8752 29.0965 75.7236 28.6141 77.0312 28.0132V27.4165C77.0312 26.9679 77.0059 26.6865 76.9551 26.5723C76.9085 26.4538 76.8175 26.3522 76.6821 26.2676C76.5467 26.1787 76.3944 26.1343 76.2251 26.1343C75.95 26.1343 75.7236 26.1956 75.5459 26.3184C75.4359 26.3945 75.3809 26.4834 75.3809 26.585C75.3809 26.6738 75.4401 26.7839 75.5586 26.915C75.7194 27.097 75.7998 27.2726 75.7998 27.4419C75.7998 27.6493 75.7215 27.827 75.5649 27.9751C75.4126 28.119 75.2116 28.1909 74.9619 28.1909C74.6953 28.1909 74.471 28.1105 74.2891 27.9497C74.1113 27.7889 74.0225 27.6006 74.0225 27.3848C74.0225 27.0801 74.1431 26.7902 74.3843 26.5151C74.6255 26.2358 74.9619 26.0221 75.3936 25.874C75.8252 25.7259 76.2738 25.6519 76.7393 25.6519C77.3021 25.6519 77.7464 25.7725 78.0723 26.0137C78.4023 26.2507 78.616 26.5088 78.7134 26.7881C78.7726 26.9658 78.8022 27.3742 78.8022 28.0132V30.3174C78.8022 30.5882 78.8128 30.7596 78.834 30.8315C78.8551 30.8993 78.8869 30.95 78.9292 30.9839C78.9715 31.0177 79.0202 31.0347 79.0752 31.0347C79.1852 31.0347 79.2974 30.9564 79.4116 30.7998L79.6021 30.9521C79.3905 31.2653 79.1704 31.4938 78.9419 31.6377C78.7176 31.7773 78.4616 31.8472 78.1738 31.8472C77.8353 31.8472 77.5708 31.7689 77.3804 31.6123C77.1899 31.4515 77.0736 31.2103 77.0312 30.8887ZM77.0312 30.4253V28.4385C76.5192 28.7389 76.1383 29.0605 75.8887 29.4033C75.7236 29.6318 75.6411 29.8625 75.6411 30.0952C75.6411 30.2899 75.7109 30.4613 75.8506 30.6094C75.9564 30.7236 76.1045 30.7808 76.2949 30.7808C76.5065 30.7808 76.752 30.6623 77.0312 30.4253Z" fill="black"/>
<path d="M82.7188 25.8296V27.1753C83.1123 26.5617 83.4572 26.1554 83.7534 25.9565C84.0496 25.7534 84.3353 25.6519 84.6104 25.6519C84.8473 25.6519 85.0356 25.7259 85.1753 25.874C85.3192 26.0179 85.3911 26.2231 85.3911 26.4897C85.3911 26.7733 85.3213 26.9933 85.1816 27.1499C85.0462 27.3065 84.8812 27.3848 84.6865 27.3848C84.4622 27.3848 84.2676 27.3128 84.1025 27.1689C83.9375 27.0251 83.8402 26.9447 83.8105 26.9277C83.7682 26.9023 83.7196 26.8896 83.6646 26.8896C83.5418 26.8896 83.4255 26.9362 83.3154 27.0293C83.1419 27.1732 83.0107 27.3784 82.9219 27.645C82.7865 28.0555 82.7188 28.5083 82.7188 29.0034V30.3682L82.7251 30.7236C82.7251 30.9648 82.7399 31.1193 82.7695 31.187C82.8203 31.3013 82.8944 31.3859 82.9917 31.4409C83.0933 31.4917 83.2625 31.5234 83.4995 31.5361V31.7646H80.2939V31.5361C80.5521 31.515 80.7256 31.4451 80.8145 31.3267C80.9076 31.2039 80.9541 30.8844 80.9541 30.3682V27.0864C80.9541 26.7479 80.9372 26.5321 80.9033 26.439C80.861 26.3205 80.7996 26.2337 80.7192 26.1787C80.6388 26.1237 80.4971 26.0856 80.2939 26.0645V25.8296H82.7188Z" fill="black"/>
<path d="M88.3872 23.6587V25.8296H89.7964V26.458H88.3872V30.1206C88.3872 30.4634 88.402 30.6855 88.4316 30.7871C88.4655 30.8844 88.5226 30.9648 88.603 31.0283C88.6834 31.0876 88.7575 31.1172 88.8252 31.1172C89.1003 31.1172 89.3605 30.9077 89.606 30.4888L89.7964 30.6284C89.4536 31.4409 88.8971 31.8472 88.127 31.8472C87.7503 31.8472 87.4308 31.7435 87.1685 31.5361C86.9103 31.3245 86.7453 31.0897 86.6733 30.8315C86.631 30.6877 86.6099 30.2983 86.6099 29.6636V26.458H85.8354V26.2358C86.3687 25.8592 86.8215 25.4635 87.1938 25.0488C87.5705 24.6341 87.8984 24.1707 88.1777 23.6587H88.3872Z" fill="black"/>
<path d="M92.8242 25.8296V26.6104C93.1501 26.2549 93.4505 26.0073 93.7256 25.8677C94.0049 25.7238 94.3096 25.6519 94.6396 25.6519C95.0205 25.6519 95.34 25.7407 95.5981 25.9185C95.8563 26.0962 96.0552 26.367 96.1948 26.731C96.5334 26.3501 96.8571 26.075 97.166 25.9058C97.4792 25.7365 97.805 25.6519 98.1436 25.6519C98.554 25.6519 98.8799 25.7471 99.1211 25.9375C99.3665 26.1237 99.5358 26.3628 99.6289 26.6548C99.7262 26.9425 99.7749 27.4038 99.7749 28.0386V30.4697C99.7749 30.9268 99.8151 31.2103 99.8955 31.3203C99.9801 31.4303 100.154 31.5023 100.416 31.5361V31.7646H97.3501V31.5361C97.5913 31.515 97.769 31.4219 97.8833 31.2568C97.9595 31.1426 97.9976 30.8802 97.9976 30.4697V27.918C97.9976 27.389 97.9764 27.0526 97.9341 26.9087C97.8918 26.7648 97.8241 26.659 97.731 26.5913C97.6421 26.5194 97.5363 26.4834 97.4136 26.4834C97.2316 26.4834 97.0475 26.5511 96.8613 26.6865C96.6751 26.8177 96.4868 27.0166 96.2964 27.2832V30.4697C96.2964 30.8971 96.3324 31.1659 96.4043 31.2759C96.5016 31.4325 96.6878 31.5192 96.9629 31.5361V31.7646H93.8906V31.5361C94.0557 31.5277 94.1847 31.4875 94.2778 31.4155C94.3752 31.3394 94.4386 31.2505 94.4683 31.1489C94.5021 31.0431 94.519 30.8167 94.519 30.4697V27.918C94.519 27.3805 94.4979 27.0441 94.4556 26.9087C94.4132 26.7733 94.3413 26.6675 94.2397 26.5913C94.1424 26.5151 94.0366 26.4771 93.9224 26.4771C93.7531 26.4771 93.5986 26.5215 93.459 26.6104C93.2601 26.7415 93.0485 26.9658 92.8242 27.2832V30.4697C92.8242 30.8887 92.8644 31.1659 92.9448 31.3013C93.0295 31.4325 93.203 31.5107 93.4653 31.5361V31.7646H90.4058V31.5361C90.6554 31.5107 90.8332 31.4303 90.939 31.2949C91.0109 31.2018 91.0469 30.9268 91.0469 30.4697V27.1182C91.0469 26.6696 91.0046 26.3903 90.9199 26.2803C90.8395 26.1702 90.6681 26.0983 90.4058 26.0645V25.8296H92.8242Z" fill="black"/>
<path d="M106.218 28.5845H102.961C103 29.3716 103.209 29.9937 103.59 30.4507C103.882 30.8019 104.233 30.9775 104.644 30.9775C104.897 30.9775 105.128 30.9077 105.335 30.7681C105.543 30.6242 105.765 30.3682 106.002 30L106.218 30.1396C105.896 30.7956 105.541 31.2611 105.151 31.5361C104.762 31.807 104.311 31.9424 103.799 31.9424C102.919 31.9424 102.253 31.6038 101.8 30.9268C101.436 30.3809 101.254 29.7038 101.254 28.8955C101.254 27.9053 101.521 27.1182 102.054 26.5342C102.591 25.946 103.22 25.6519 103.939 25.6519C104.54 25.6519 105.06 25.8994 105.5 26.3945C105.945 26.8854 106.184 27.6154 106.218 28.5845ZM104.656 28.1592C104.656 27.4779 104.618 27.0103 104.542 26.7563C104.47 26.5024 104.356 26.3099 104.199 26.1787C104.11 26.1025 103.992 26.0645 103.844 26.0645C103.624 26.0645 103.444 26.1724 103.304 26.3882C103.055 26.7648 102.93 27.2811 102.93 27.937V28.1592H104.656Z" fill="black"/>
<path d="M109.392 25.8296V26.5977C109.696 26.2676 109.988 26.0285 110.268 25.8804C110.547 25.728 110.847 25.6519 111.169 25.6519C111.554 25.6519 111.874 25.7598 112.127 25.9756C112.381 26.1872 112.551 26.4517 112.635 26.769C112.703 27.0103 112.737 27.4736 112.737 28.1592V30.4697C112.737 30.9268 112.777 31.2124 112.857 31.3267C112.942 31.4367 113.116 31.5065 113.378 31.5361V31.7646H110.375V31.5361C110.6 31.5065 110.761 31.4134 110.858 31.2568C110.926 31.151 110.959 30.8887 110.959 30.4697V27.8291C110.959 27.3424 110.94 27.0356 110.902 26.9087C110.864 26.7817 110.799 26.6844 110.706 26.6167C110.617 26.5448 110.517 26.5088 110.407 26.5088C110.043 26.5088 109.705 26.769 109.392 27.2896V30.4697C109.392 30.9141 109.432 31.1955 109.512 31.314C109.597 31.4325 109.751 31.5065 109.976 31.5361V31.7646H106.973V31.5361C107.223 31.5107 107.401 31.4303 107.506 31.2949C107.578 31.2018 107.614 30.9268 107.614 30.4697V27.1182C107.614 26.6696 107.572 26.3903 107.487 26.2803C107.407 26.1702 107.236 26.0983 106.973 26.0645V25.8296H109.392Z" fill="black"/>
<path d="M116.558 23.6587V25.8296H117.967V26.458H116.558V30.1206C116.558 30.4634 116.573 30.6855 116.603 30.7871C116.636 30.8844 116.694 30.9648 116.774 31.0283C116.854 31.0876 116.928 31.1172 116.996 31.1172C117.271 31.1172 117.531 30.9077 117.777 30.4888L117.967 30.6284C117.625 31.4409 117.068 31.8472 116.298 31.8472C115.921 31.8472 115.602 31.7435 115.339 31.5361C115.081 31.3245 114.916 31.0897 114.844 30.8315C114.802 30.6877 114.781 30.2983 114.781 29.6636V26.458H114.006V26.2358C114.54 25.8592 114.992 25.4635 115.365 25.0488C115.741 24.6341 116.069 24.1707 116.349 23.6587H116.558Z" fill="black"/>
<path d="M124.582 25.6519C125.098 25.6519 125.578 25.7852 126.022 26.0518C126.467 26.3184 126.803 26.6971 127.032 27.188C127.264 27.6789 127.381 28.2163 127.381 28.8003C127.381 29.6424 127.167 30.347 126.74 30.9141C126.223 31.5996 125.51 31.9424 124.601 31.9424C123.708 31.9424 123.02 31.6292 122.538 31.0029C122.055 30.3766 121.814 29.6509 121.814 28.8257C121.814 27.9751 122.059 27.2345 122.55 26.604C123.045 25.9692 123.722 25.6519 124.582 25.6519ZM124.607 26.1025C124.391 26.1025 124.205 26.1851 124.048 26.3501C123.896 26.5109 123.794 26.8325 123.744 27.3149C123.697 27.7931 123.674 28.4596 123.674 29.3145C123.674 29.7673 123.703 30.1904 123.763 30.584C123.809 30.8844 123.909 31.113 124.061 31.2695C124.213 31.4261 124.387 31.5044 124.582 31.5044C124.772 31.5044 124.931 31.4515 125.058 31.3457C125.223 31.2018 125.333 31.0008 125.388 30.7427C125.472 30.3407 125.515 29.5282 125.515 28.3052C125.515 27.5858 125.474 27.0928 125.394 26.8262C125.314 26.5553 125.195 26.3586 125.039 26.2358C124.929 26.147 124.785 26.1025 124.607 26.1025Z" fill="black"/>
<path d="M130.885 26.4517V30.5713C130.885 30.9691 130.927 31.2188 131.012 31.3203C131.147 31.4769 131.397 31.5488 131.761 31.5361V31.7646H128.263V31.5361C128.53 31.5319 128.718 31.5023 128.828 31.4473C128.942 31.388 129.021 31.3076 129.063 31.2061C129.105 31.1045 129.126 30.8929 129.126 30.5713V26.4517H128.263V25.8296H129.126V25.3916L129.12 25.0933C129.12 24.4839 129.342 23.9761 129.787 23.5698C130.235 23.1636 130.84 22.9604 131.602 22.9604C132.123 22.9604 132.508 23.0578 132.757 23.2524C133.011 23.4471 133.138 23.6629 133.138 23.8999C133.138 24.0903 133.06 24.2554 132.903 24.395C132.747 24.5347 132.539 24.6045 132.281 24.6045C132.061 24.6045 131.886 24.5474 131.754 24.4331C131.627 24.3188 131.564 24.1919 131.564 24.0522C131.564 24.0142 131.577 23.9359 131.602 23.8174C131.619 23.7454 131.627 23.6777 131.627 23.6143C131.627 23.5254 131.602 23.4598 131.551 23.4175C131.484 23.354 131.401 23.3223 131.304 23.3223C131.181 23.3223 131.077 23.373 130.993 23.4746C130.912 23.5762 130.872 23.7391 130.872 23.9634L130.885 25.0742V25.8296H131.761V26.4517H130.885Z" fill="black"/>
<path d="M144.101 22.9604V25.9438H143.853C143.667 25.1652 143.32 24.5685 142.812 24.1538C142.304 23.7391 141.729 23.5317 141.085 23.5317C140.548 23.5317 140.055 23.6862 139.606 23.9951C139.158 24.304 138.83 24.7082 138.623 25.2075C138.356 25.8465 138.223 26.5575 138.223 27.3403C138.223 28.1105 138.32 28.813 138.515 29.4478C138.709 30.0783 139.014 30.5565 139.429 30.8823C139.843 31.2039 140.381 31.3647 141.041 31.3647C141.583 31.3647 142.078 31.2463 142.526 31.0093C142.979 30.7723 143.455 30.3639 143.955 29.7842V30.5269C143.472 31.0304 142.969 31.3965 142.444 31.625C141.923 31.8493 141.314 31.9614 140.616 31.9614C139.697 31.9614 138.881 31.7773 138.166 31.4092C137.455 31.041 136.904 30.512 136.515 29.8223C136.13 29.1325 135.938 28.3983 135.938 27.6196C135.938 26.7987 136.151 26.02 136.579 25.2837C137.01 24.5474 137.59 23.9761 138.318 23.5698C139.05 23.1636 139.826 22.9604 140.647 22.9604C141.253 22.9604 141.892 23.0916 142.564 23.354C142.954 23.5063 143.201 23.5825 143.307 23.5825C143.443 23.5825 143.559 23.5339 143.656 23.4365C143.758 23.335 143.823 23.1763 143.853 22.9604H144.101Z" fill="black"/>
<path d="M146.684 22.9541C146.959 22.9541 147.192 23.0514 147.382 23.2461C147.573 23.4365 147.668 23.6672 147.668 23.938C147.668 24.2088 147.571 24.4395 147.376 24.6299C147.186 24.8203 146.955 24.9155 146.684 24.9155C146.413 24.9155 146.183 24.8203 145.992 24.6299C145.802 24.4395 145.707 24.2088 145.707 23.938C145.707 23.6672 145.802 23.4365 145.992 23.2461C146.183 23.0514 146.413 22.9541 146.684 22.9541ZM147.573 25.8296V30.5332C147.573 30.9521 147.621 31.2209 147.719 31.3394C147.816 31.4536 148.007 31.5192 148.29 31.5361V31.7646H145.084V31.5361C145.347 31.5277 145.542 31.4515 145.668 31.3076C145.753 31.2103 145.795 30.9521 145.795 30.5332V27.0674C145.795 26.6484 145.747 26.3818 145.649 26.2676C145.552 26.1491 145.364 26.0814 145.084 26.0645V25.8296H147.573Z" fill="black"/>
<path d="M151.229 23.6587V25.8296H152.638V26.458H151.229V30.1206C151.229 30.4634 151.244 30.6855 151.273 30.7871C151.307 30.8844 151.364 30.9648 151.445 31.0283C151.525 31.0876 151.599 31.1172 151.667 31.1172C151.942 31.1172 152.202 30.9077 152.448 30.4888L152.638 30.6284C152.295 31.4409 151.739 31.8472 150.969 31.8472C150.592 31.8472 150.273 31.7435 150.01 31.5361C149.752 31.3245 149.587 31.0897 149.515 30.8315C149.473 30.6877 149.452 30.2983 149.452 29.6636V26.458H148.677V26.2358C149.21 25.8592 149.663 25.4635 150.036 25.0488C150.412 24.6341 150.74 24.1707 151.02 23.6587H151.229Z" fill="black"/>
<path d="M154.631 22.9541C154.906 22.9541 155.139 23.0514 155.33 23.2461C155.52 23.4365 155.615 23.6672 155.615 23.938C155.615 24.2088 155.518 24.4395 155.323 24.6299C155.133 24.8203 154.902 24.9155 154.631 24.9155C154.361 24.9155 154.13 24.8203 153.939 24.6299C153.749 24.4395 153.654 24.2088 153.654 23.938C153.654 23.6672 153.749 23.4365 153.939 23.2461C154.13 23.0514 154.361 22.9541 154.631 22.9541ZM155.52 25.8296V30.5332C155.52 30.9521 155.569 31.2209 155.666 31.3394C155.763 31.4536 155.954 31.5192 156.237 31.5361V31.7646H153.032V31.5361C153.294 31.5277 153.489 31.4515 153.616 31.3076C153.7 31.2103 153.743 30.9521 153.743 30.5332V27.0674C153.743 26.6484 153.694 26.3818 153.597 26.2676C153.499 26.1491 153.311 26.0814 153.032 26.0645V25.8296H155.52Z" fill="black"/>
<path d="M161.684 31.7646H156.517V31.625L159.779 26.2168H158.827C158.417 26.2168 158.123 26.2549 157.945 26.3311C157.767 26.403 157.623 26.5215 157.513 26.6865C157.403 26.8473 157.289 27.1372 157.17 27.5562H156.948V25.8296H161.944V26.001L158.707 31.3584H159.113C159.925 31.3584 160.511 31.242 160.871 31.0093C161.231 30.7765 161.502 30.3512 161.684 29.7334H161.861L161.684 31.7646Z" fill="black"/>
<path d="M167.625 28.5845H164.369C164.407 29.3716 164.616 29.9937 164.997 30.4507C165.289 30.8019 165.64 30.9775 166.051 30.9775C166.305 30.9775 166.535 30.9077 166.743 30.7681C166.95 30.6242 167.172 30.3682 167.409 30L167.625 30.1396C167.303 30.7956 166.948 31.2611 166.559 31.5361C166.169 31.807 165.719 31.9424 165.207 31.9424C164.326 31.9424 163.66 31.6038 163.207 30.9268C162.843 30.3809 162.661 29.7038 162.661 28.8955C162.661 27.9053 162.928 27.1182 163.461 26.5342C163.998 25.946 164.627 25.6519 165.346 25.6519C165.947 25.6519 166.468 25.8994 166.908 26.3945C167.352 26.8854 167.591 27.6154 167.625 28.5845ZM166.063 28.1592C166.063 27.4779 166.025 27.0103 165.949 26.7563C165.877 26.5024 165.763 26.3099 165.606 26.1787C165.518 26.1025 165.399 26.0645 165.251 26.0645C165.031 26.0645 164.851 26.1724 164.711 26.3882C164.462 26.7648 164.337 27.2811 164.337 27.937V28.1592H166.063Z" fill="black"/>
<path d="M170.799 25.8296V26.5977C171.104 26.2676 171.396 26.0285 171.675 25.8804C171.954 25.728 172.255 25.6519 172.576 25.6519C172.961 25.6519 173.281 25.7598 173.535 25.9756C173.789 26.1872 173.958 26.4517 174.042 26.769C174.11 27.0103 174.144 27.4736 174.144 28.1592V30.4697C174.144 30.9268 174.184 31.2124 174.265 31.3267C174.349 31.4367 174.523 31.5065 174.785 31.5361V31.7646H171.783V31.5361C172.007 31.5065 172.168 31.4134 172.265 31.2568C172.333 31.151 172.367 30.8887 172.367 30.4697V27.8291C172.367 27.3424 172.348 27.0356 172.31 26.9087C172.271 26.7817 172.206 26.6844 172.113 26.6167C172.024 26.5448 171.924 26.5088 171.814 26.5088C171.451 26.5088 171.112 26.769 170.799 27.2896V30.4697C170.799 30.9141 170.839 31.1955 170.919 31.314C171.004 31.4325 171.159 31.5065 171.383 31.5361V31.7646H168.38V31.5361C168.63 31.5107 168.808 31.4303 168.914 31.2949C168.986 31.2018 169.021 30.9268 169.021 30.4697V27.1182C169.021 26.6696 168.979 26.3903 168.895 26.2803C168.814 26.1702 168.643 26.0983 168.38 26.0645V25.8296H170.799Z" fill="black"/>
<path d="M179.362 25.6646L179.457 27.6895H179.241C178.983 27.0885 178.714 26.6781 178.435 26.458C178.16 26.238 177.885 26.1279 177.61 26.1279C177.436 26.1279 177.288 26.1872 177.166 26.3057C177.043 26.4199 176.981 26.5532 176.981 26.7056C176.981 26.8198 177.024 26.9299 177.108 27.0356C177.244 27.2091 177.623 27.5075 178.245 27.9307C178.867 28.3496 179.275 28.7072 179.47 29.0034C179.669 29.2954 179.768 29.6234 179.768 29.9873C179.768 30.3174 179.686 30.6411 179.521 30.9585C179.355 31.2759 179.123 31.5192 178.822 31.6885C178.522 31.8577 178.19 31.9424 177.826 31.9424C177.542 31.9424 177.163 31.8535 176.689 31.6758C176.562 31.6292 176.476 31.606 176.429 31.606C176.29 31.606 176.173 31.7118 176.08 31.9233H175.871L175.769 29.7905H175.985C176.175 30.3491 176.436 30.7681 176.766 31.0474C177.1 31.3267 177.415 31.4663 177.711 31.4663C177.915 31.4663 178.08 31.4049 178.207 31.2822C178.338 31.1553 178.403 31.0029 178.403 30.8252C178.403 30.6221 178.34 30.4465 178.213 30.2983C178.086 30.1502 177.802 29.9259 177.362 29.6255C176.715 29.1769 176.296 28.8341 176.105 28.5972C175.826 28.2502 175.687 27.8672 175.687 27.4482C175.687 26.9912 175.843 26.5786 176.156 26.2104C176.474 25.8381 176.931 25.6519 177.527 25.6519C177.849 25.6519 178.16 25.7301 178.46 25.8867C178.575 25.9502 178.668 25.9819 178.74 25.9819C178.816 25.9819 178.877 25.9671 178.924 25.9375C178.97 25.9036 179.044 25.8127 179.146 25.6646H179.362Z" fill="black"/>
</g>
<defs>
<clipPath id="clip0_9601_43955">
<rect width="196" height="37" fill="white"/>
</clipPath>
<clipPath id="clip1_9601_43955">
<rect y="1" width="35" height="35" rx="8" fill="white"/>
</clipPath>
</defs>
</svg>
