<svg width="48" height="48" viewBox="0 0 48 48" fill="none" xmlns="http://www.w3.org/2000/svg">
<g clip-path="url(#clip0_9403_57605)">
<path d="M34 7H14C12.1435 7 10.363 7.7375 9.05025 9.05025C7.7375 10.363 7 12.1435 7 14V34C7 35.8565 7.7375 37.637 9.05025 38.9497C10.363 40.2625 12.1435 41 14 41H34C35.8565 41 37.637 40.2625 38.9497 38.9497C40.2625 37.637 41 35.8565 41 34V14C41 12.1435 40.2625 10.363 38.9497 9.05025C37.637 7.7375 35.8565 7 34 7V7ZM21 11H27V17H21V11ZM17 37H14C13.2044 37 12.4413 36.6839 11.8787 36.1213C11.3161 35.5587 11 34.7956 11 34V31H17V37ZM27 37H21V31H27V37ZM37 34C37 34.7956 36.6839 35.5587 36.1213 36.1213C35.5587 36.6839 34.7956 37 34 37H31V31H37V34ZM37 27H11V14C11 13.2044 11.3161 12.4413 11.8787 11.8787C12.4413 11.3161 13.2044 11 14 11H17V19C17 19.5304 17.2107 20.0391 17.5858 20.4142C17.9609 20.7893 18.4696 21 19 21H37V27ZM37 17H31V11H34C34.7956 11 35.5587 11.3161 36.1213 11.8787C36.6839 12.4413 37 13.2044 37 14V17Z" fill="#0A8184"/>
</g>
<defs>
<clipPath id="clip0_9403_57605">
<rect width="48" height="48" fill="white"/>
</clipPath>
</defs>
</svg>
