<svg width="48" height="48" viewBox="0 0 48 48" fill="none" xmlns="http://www.w3.org/2000/svg">
<g clip-path="url(#clip0_9403_58147)">
<path d="M38 4H10C8.4087 4 6.88258 4.63214 5.75736 5.75736C4.63214 6.88258 4 8.4087 4 10V12.34C3.99971 13.1659 4.16993 13.9829 4.5 14.74V14.86C4.78256 15.5019 5.18278 16.0853 5.68 16.58L18 28.82V42C17.9993 42.3399 18.0853 42.6743 18.2497 42.9718C18.4142 43.2692 18.6518 43.5199 18.94 43.7C19.2583 43.8973 19.6255 44.0012 20 44C20.3131 43.9981 20.6214 43.9228 20.9 43.78L28.9 39.78C29.2298 39.6138 29.5072 39.3595 29.7014 39.0453C29.8955 38.7311 29.9989 38.3693 30 38V28.82L42.24 16.58C42.7372 16.0853 43.1374 15.5019 43.42 14.86V14.74C43.7776 13.9889 43.9751 13.1716 44 12.34V10C44 8.4087 43.3679 6.88258 42.2426 5.75736C41.1174 4.63214 39.5913 4 38 4ZM26.58 26.58C26.3946 26.7669 26.248 26.9885 26.1485 27.2322C26.0489 27.4759 25.9985 27.7368 26 28V36.76L22 38.76V28C22.0015 27.7368 21.9511 27.4759 21.8515 27.2322C21.752 26.9885 21.6054 26.7669 21.42 26.58L10.82 16H37.18L26.58 26.58ZM40 12H8V10C8 9.46957 8.21071 8.96086 8.58579 8.58579C8.96086 8.21071 9.46957 8 10 8H38C38.5304 8 39.0391 8.21071 39.4142 8.58579C39.7893 8.96086 40 9.46957 40 10V12Z" fill="#0A8184"/>
</g>
<defs>
<clipPath id="clip0_9403_58147">
<rect width="48" height="48" fill="white"/>
</clipPath>
</defs>
</svg>
