<svg width="48" height="48" viewBox="0 0 48 48" fill="none" xmlns="http://www.w3.org/2000/svg">
<g clip-path="url(#clip0_9403_57863)">
<path d="M28 16H30C30.5304 16 31.0391 15.7893 31.4142 15.4142C31.7893 15.0391 32 14.5304 32 14C32 13.4696 31.7893 12.9609 31.4142 12.5858C31.0391 12.2107 30.5304 12 30 12H28C27.4696 12 26.9609 12.2107 26.5858 12.5858C26.2107 12.9609 26 13.4696 26 14C26 14.5304 26.2107 15.0391 26.5858 15.4142C26.9609 15.7893 27.4696 16 28 16V16ZM28 24H30C30.5304 24 31.0391 23.7893 31.4142 23.4142C31.7893 23.0391 32 22.5304 32 22C32 21.4696 31.7893 20.9609 31.4142 20.5858C31.0391 20.2107 30.5304 20 30 20H28C27.4696 20 26.9609 20.2107 26.5858 20.5858C26.2107 20.9609 26 21.4696 26 22C26 22.5304 26.2107 23.0391 26.5858 23.4142C26.9609 23.7893 27.4696 24 28 24V24ZM18 16H20C20.5304 16 21.0391 15.7893 21.4142 15.4142C21.7893 15.0391 22 14.5304 22 14C22 13.4696 21.7893 12.9609 21.4142 12.5858C21.0391 12.2107 20.5304 12 20 12H18C17.4696 12 16.9609 12.2107 16.5858 12.5858C16.2107 12.9609 16 13.4696 16 14C16 14.5304 16.2107 15.0391 16.5858 15.4142C16.9609 15.7893 17.4696 16 18 16V16ZM18 24H20C20.5304 24 21.0391 23.7893 21.4142 23.4142C21.7893 23.0391 22 22.5304 22 22C22 21.4696 21.7893 20.9609 21.4142 20.5858C21.0391 20.2107 20.5304 20 20 20H18C17.4696 20 16.9609 20.2107 16.5858 20.5858C16.2107 20.9609 16 21.4696 16 22C16 22.5304 16.2107 23.0391 16.5858 23.4142C16.9609 23.7893 17.4696 24 18 24V24ZM42 40H40V6C40 5.46957 39.7893 4.96086 39.4142 4.58579C39.0391 4.21071 38.5304 4 38 4H10C9.46957 4 8.96086 4.21071 8.58579 4.58579C8.21071 4.96086 8 5.46957 8 6V40H6C5.46957 40 4.96086 40.2107 4.58579 40.5858C4.21071 40.9609 4 41.4696 4 42C4 42.5304 4.21071 43.0391 4.58579 43.4142C4.96086 43.7893 5.46957 44 6 44H42C42.5304 44 43.0391 43.7893 43.4142 43.4142C43.7893 43.0391 44 42.5304 44 42C44 41.4696 43.7893 40.9609 43.4142 40.5858C43.0391 40.2107 42.5304 40 42 40ZM26 40H22V32H26V40ZM36 40H30V30C30 29.4696 29.7893 28.9609 29.4142 28.5858C29.0391 28.2107 28.5304 28 28 28H20C19.4696 28 18.9609 28.2107 18.5858 28.5858C18.2107 28.9609 18 29.4696 18 30V40H12V8H36V40Z" fill="#0A8184"/>
</g>
<defs>
<clipPath id="clip0_9403_57863">
<rect width="48" height="48" fill="white"/>
</clipPath>
</defs>
</svg>
