<svg width="48" height="48" viewBox="0 0 48 48" fill="none" xmlns="http://www.w3.org/2000/svg">
<g clip-path="url(#clip0_9403_57649)">
<path d="M42 20.001C42.2627 20.001 42.5228 19.9494 42.7654 19.8489C43.0081 19.7484 43.2286 19.6011 43.4144 19.4153C43.6001 19.2296 43.7474 19.0091 43.8479 18.7664C43.9484 18.5237 44.0001 18.2636 44 18.001V12.001C44.0002 11.5813 43.8682 11.1723 43.6228 10.8319C43.3774 10.4914 43.031 10.237 42.6328 10.1045L24.6328 4.10449C24.222 3.96777 23.778 3.96777 23.3672 4.10449L5.36718 10.1045C4.96899 10.237 4.62262 10.4914 4.37721 10.8319C4.13181 11.1723 3.99983 11.5813 4 12.001V18.001C3.99993 18.2636 4.05162 18.5237 4.1521 18.7664C4.25259 19.0091 4.3999 19.2296 4.58563 19.4153C4.77137 19.6011 4.99187 19.7484 5.23455 19.8489C5.47723 19.9494 5.73734 20.001 6 20.001H8V34.3695C6.83347 34.7804 5.82273 35.5423 5.10653 36.5506C4.39034 37.5589 4.0038 38.7642 4 40.001V44.001C3.99993 44.2636 4.05162 44.5237 4.1521 44.7664C4.25259 45.0091 4.3999 45.2296 4.58563 45.4153C4.77137 45.6011 4.99187 45.7484 5.23455 45.8489C5.47723 45.9494 5.73734 46.001 6 46.001H42C42.2627 46.001 42.5228 45.9494 42.7654 45.8489C43.0081 45.7484 43.2286 45.6011 43.4144 45.4153C43.6001 45.2296 43.7474 45.0091 43.8479 44.7664C43.9484 44.5237 44.0001 44.2636 44 44.001V40.001C43.9962 38.7642 43.6097 37.5589 42.8935 36.5506C42.1773 35.5423 41.1665 34.7804 40 34.3695V20.001H42ZM40 42.001H8V40.001C8.00053 39.4707 8.21141 38.9623 8.58637 38.5873C8.96133 38.2124 9.46973 38.0015 10 38.001H38C38.5303 38.0015 39.0387 38.2124 39.4136 38.5873C39.7886 38.9623 39.9995 39.4707 40 40.001V42.001ZM12 34.001V20.001H16V34.001H12ZM20 34.001V20.001H28V34.001H20ZM32 34.001V20.001H36V34.001H32ZM8 16.001V13.4424L24 8.10837L40 13.4424V16.001H8Z" fill="#0A8184"/>
</g>
<defs>
<clipPath id="clip0_9403_57649">
<rect width="48" height="48" fill="white"/>
</clipPath>
</defs>
</svg>
