<svg width="48" height="48" viewBox="0 0 48 48" fill="none" xmlns="http://www.w3.org/2000/svg">
<g clip-path="url(#clip0_9403_57737)">
<path d="M42.9798 20.3802L40.9798 19.2802L22.9798 9.28016H22.7598C22.6371 9.22831 22.5099 9.18814 22.3798 9.16016H21.9998H21.6398C21.5031 9.18815 21.3692 9.22831 21.2398 9.28016H21.0198L3.01976 19.2802C2.71196 19.4546 2.45594 19.7076 2.27782 20.0132C2.09971 20.3189 2.00586 20.6664 2.00586 21.0202C2.00586 21.3739 2.09971 21.7214 2.27782 22.0271C2.45594 22.3328 2.71196 22.5857 3.01976 22.7602L7.99976 25.5202V35.0002C7.99976 36.5915 8.6319 38.1176 9.75712 39.2428C10.8823 40.368 12.4085 41.0002 13.9998 41.0002H29.9998C31.5911 41.0002 33.1172 40.368 34.2424 39.2428C35.3676 38.1176 35.9998 36.5915 35.9998 35.0002V25.5202L39.9998 23.2802V29.0002C39.9998 29.5306 40.2105 30.0393 40.5855 30.4144C40.9606 30.7894 41.4693 31.0002 41.9998 31.0002C42.5302 31.0002 43.0389 30.7894 43.414 30.4144C43.789 30.0393 43.9998 29.5306 43.9998 29.0002V22.1202C43.9991 21.7658 43.9044 21.4179 43.7252 21.1122C43.5459 20.8064 43.2887 20.5538 42.9798 20.3802V20.3802ZM31.9998 35.0002C31.9998 35.5306 31.789 36.0393 31.414 36.4144C31.0389 36.7894 30.5302 37.0002 29.9998 37.0002H13.9998C13.4693 37.0002 12.9606 36.7894 12.5855 36.4144C12.2105 36.0393 11.9998 35.5306 11.9998 35.0002V27.7402L21.0198 32.7402L21.3198 32.8602H21.4998C21.6658 32.8811 21.8337 32.8811 21.9998 32.8602C22.1658 32.8811 22.3337 32.8811 22.4998 32.8602H22.6798C22.7859 32.8378 22.8874 32.7972 22.9798 32.7402L31.9998 27.7402V35.0002ZM21.9998 28.7202L8.11976 21.0002L21.9998 13.2802L35.8798 21.0002L21.9998 28.7202Z" fill="#0A8184"/>
</g>
<defs>
<clipPath id="clip0_9403_57737">
<rect width="48" height="48" fill="white"/>
</clipPath>
</defs>
</svg>
