<svg width="48" height="48" viewBox="0 0 48 48" fill="none" xmlns="http://www.w3.org/2000/svg">
<g clip-path="url(#clip0_9403_57715)">
<path d="M28 22H20C18.9391 22 17.9217 21.5786 17.1716 20.8284C16.4214 20.0783 16 19.0609 16 18C16 16.9391 16.4214 15.9217 17.1716 15.1716C17.9217 14.4214 18.9391 14 20 14H30C30.5304 14 31.0391 14.2107 31.4142 14.5858C31.7893 14.9609 32 15.4696 32 16C32 16.5304 32.2107 17.0391 32.5858 17.4142C32.9609 17.7893 33.4696 18 34 18C34.5304 18 35.0391 17.7893 35.4142 17.4142C35.7893 17.0391 36 16.5304 36 16C36 14.4087 35.3679 12.8826 34.2426 11.7574C33.1174 10.6321 31.5913 10 30 10H26V6C26 5.46957 25.7893 4.96086 25.4142 4.58579C25.0391 4.21071 24.5304 4 24 4C23.4696 4 22.9609 4.21071 22.5858 4.58579C22.2107 4.96086 22 5.46957 22 6V10H20C17.8783 10 15.8434 10.8429 14.3431 12.3431C12.8429 13.8434 12 15.8783 12 18C12 20.1217 12.8429 22.1566 14.3431 23.6569C15.8434 25.1571 17.8783 26 20 26H28C29.0609 26 30.0783 26.4214 30.8284 27.1716C31.5786 27.9217 32 28.9391 32 30C32 31.0609 31.5786 32.0783 30.8284 32.8284C30.0783 33.5786 29.0609 34 28 34H18C17.4696 34 16.9609 33.7893 16.5858 33.4142C16.2107 33.0391 16 32.5304 16 32C16 31.4696 15.7893 30.9609 15.4142 30.5858C15.0391 30.2107 14.5304 30 14 30C13.4696 30 12.9609 30.2107 12.5858 30.5858C12.2107 30.9609 12 31.4696 12 32C12 33.5913 12.6321 35.1174 13.7574 36.2426C14.8826 37.3679 16.4087 38 18 38H22V42C22 42.5304 22.2107 43.0391 22.5858 43.4142C22.9609 43.7893 23.4696 44 24 44C24.5304 44 25.0391 43.7893 25.4142 43.4142C25.7893 43.0391 26 42.5304 26 42V38H28C30.1217 38 32.1566 37.1571 33.6569 35.6569C35.1571 34.1566 36 32.1217 36 30C36 27.8783 35.1571 25.8434 33.6569 24.3431C32.1566 22.8429 30.1217 22 28 22V22Z" fill="#0A8184"/>
</g>
<defs>
<clipPath id="clip0_9403_57715">
<rect width="48" height="48" fill="white"/>
</clipPath>
</defs>
</svg>
