<svg width="48" height="48" viewBox="0 0 48 48" fill="none" xmlns="http://www.w3.org/2000/svg">
<g clip-path="url(#clip0_9403_57671)">
<path d="M42 4H6C5.46957 4 4.96086 4.21071 4.58579 4.58579C4.21071 4.96086 4 5.46957 4 6V42C4 42.5304 4.21071 43.0391 4.58579 43.4142C4.96086 43.7893 5.46957 44 6 44H18C18.5304 44 19.0391 43.7893 19.4142 43.4142C19.7893 43.0391 20 42.5304 20 42V20H42C42.5304 20 43.0391 19.7893 43.4142 19.4142C43.7893 19.0391 44 18.5304 44 18V6C44 5.46957 43.7893 4.96086 43.4142 4.58579C43.0391 4.21071 42.5304 4 42 4ZM40 16H36V14C36 13.4696 35.7893 12.9609 35.4142 12.5858C35.0391 12.2107 34.5304 12 34 12C33.4696 12 32.9609 12.2107 32.5858 12.5858C32.2107 12.9609 32 13.4696 32 14V16H28V14C28 13.4696 27.7893 12.9609 27.4142 12.5858C27.0391 12.2107 26.5304 12 26 12C25.4696 12 24.9609 12.2107 24.5858 12.5858C24.2107 12.9609 24 13.4696 24 14V16H20V14C20 13.4696 19.7893 12.9609 19.4142 12.5858C19.0391 12.2107 18.5304 12 18 12C17.4696 12 16.9609 12.2107 16.5858 12.5858C16.2107 12.9609 16 13.4696 16 14V16H14C13.4696 16 12.9609 16.2107 12.5858 16.5858C12.2107 16.9609 12 17.4696 12 18C12 18.5304 12.2107 19.0391 12.5858 19.4142C12.9609 19.7893 13.4696 20 14 20H16V24H14C13.4696 24 12.9609 24.2107 12.5858 24.5858C12.2107 24.9609 12 25.4696 12 26C12 26.5304 12.2107 27.0391 12.5858 27.4142C12.9609 27.7893 13.4696 28 14 28H16V32H14C13.4696 32 12.9609 32.2107 12.5858 32.5858C12.2107 32.9609 12 33.4696 12 34C12 34.5304 12.2107 35.0391 12.5858 35.4142C12.9609 35.7893 13.4696 36 14 36H16V40H8V8H40V16Z" fill="#0A8184"/>
</g>
<defs>
<clipPath id="clip0_9403_57671">
<rect width="48" height="48" fill="white"/>
</clipPath>
</defs>
</svg>
