<svg width="162" height="36" viewBox="0 0 162 36" fill="none" xmlns="http://www.w3.org/2000/svg">
<g clip-path="url(#clip0_10103_10946)">
<path fill-rule="evenodd" clip-rule="evenodd" d="M44.1544 19.5475V10.8324L42.9141 11.2835V19.5475H44.1544Z" fill="white"/>
<path fill-rule="evenodd" clip-rule="evenodd" d="M36.6967 16.0172L22.8009 21.0725C22.6733 21.1197 22.5388 21.143 22.405 21.143C22.2707 21.143 22.1352 21.1197 22.0076 21.0725L8.11249 16.0172V28.5199H8.1272L8.0957 28.6917C8.0957 30.1791 14.5029 33.5 22.3965 33.5C30.2898 33.5 36.6803 30.1791 36.6803 28.6917L36.6477 28.5199H36.6967V16.0172Z" fill="white"/>
<path fill-rule="evenodd" clip-rule="evenodd" d="M8.1122 13.5466L22.4047 18.7462L36.6965 13.5466L42.9149 11.2835L44.1553 10.8325L44.8083 10.5949L22.4047 2.5L0 10.5949L8.1122 13.5466Z" fill="white"/>
<path fill-rule="evenodd" clip-rule="evenodd" d="M42.0703 21.5896V26.6777C42.0703 27.546 42.7256 28.2495 43.5357 28.2495C44.3449 28.2495 45.0005 27.546 45.0005 26.6777V21.5896C45.0005 21.1597 44.839 20.7705 44.579 20.4871H42.4929C42.2326 20.7705 42.0703 21.1597 42.0703 21.5896Z" fill="white"/>
<path fill-rule="evenodd" clip-rule="evenodd" d="M42.3047 20.487H44.7636V19.5476H42.3047V20.487Z" fill="white"/>
</g>
<path d="M62.9351 7.93823L65.271 2.26343H68.7749V2.49829H68.4956C68.2417 2.49829 68.0386 2.54272 67.8862 2.63159C67.7804 2.69084 67.6958 2.79028 67.6323 2.92993C67.5858 3.03149 67.5625 3.29598 67.5625 3.72339V9.39819C67.5625 9.8383 67.5858 10.1134 67.6323 10.2234C67.6789 10.3334 67.7741 10.4307 67.918 10.5154C68.0618 10.5958 68.2544 10.636 68.4956 10.636H68.7749V10.8708H64.2808V10.636H64.5601C64.814 10.636 65.0171 10.5916 65.1694 10.5027C65.2752 10.4434 65.3599 10.3419 65.4233 10.198C65.4699 10.0964 65.4932 9.82983 65.4932 9.39819V3.0188L62.1924 10.8708H62.04L58.6885 3.07593V9.13794C58.6885 9.56112 58.6991 9.82137 58.7202 9.9187C58.7752 10.1303 58.8937 10.3038 59.0757 10.4392C59.2619 10.5704 59.5518 10.636 59.9453 10.636V10.8708H57V10.636H57.0889C57.2793 10.6402 57.457 10.6106 57.6221 10.5471C57.7871 10.4794 57.9119 10.3905 57.9966 10.2805C58.0812 10.1705 58.1468 10.016 58.1934 9.81714C58.2018 9.77059 58.2061 9.55477 58.2061 9.16968V3.72339C58.2061 3.28752 58.1828 3.01668 58.1362 2.91089C58.0897 2.80086 57.9945 2.70565 57.8506 2.62524C57.7067 2.54061 57.5142 2.49829 57.2729 2.49829H57V2.26343H60.5166L62.9351 7.93823Z" fill="white"/>
<path d="M62.9351 7.93823L65.271 2.26343H68.7749V2.49829H68.4956C68.2417 2.49829 68.0386 2.54272 67.8862 2.63159C67.7804 2.69084 67.6958 2.79028 67.6323 2.92993C67.5858 3.03149 67.5625 3.29598 67.5625 3.72339V9.39819C67.5625 9.8383 67.5858 10.1134 67.6323 10.2234C67.6789 10.3334 67.7741 10.4307 67.918 10.5154C68.0618 10.5958 68.2544 10.636 68.4956 10.636H68.7749V10.8708H64.2808V10.636H64.5601C64.814 10.636 65.0171 10.5916 65.1694 10.5027C65.2752 10.4434 65.3599 10.3419 65.4233 10.198C65.4699 10.0964 65.4932 9.82983 65.4932 9.39819V3.0188L62.1924 10.8708H62.04L58.6885 3.07593V9.13794C58.6885 9.56112 58.6991 9.82137 58.7202 9.9187C58.7752 10.1303 58.8937 10.3038 59.0757 10.4392C59.2619 10.5704 59.5518 10.636 59.9453 10.636V10.8708H57V10.636H57.0889C57.2793 10.6402 57.457 10.6106 57.6221 10.5471C57.7871 10.4794 57.9119 10.3905 57.9966 10.2805C58.0812 10.1705 58.1468 10.016 58.1934 9.81714C58.2018 9.77059 58.2061 9.55477 58.2061 9.16968V3.72339C58.2061 3.28752 58.1828 3.01668 58.1362 2.91089C58.0897 2.80086 57.9945 2.70565 57.8506 2.62524C57.7067 2.54061 57.5142 2.49829 57.2729 2.49829H57V2.26343H60.5166L62.9351 7.93823Z" fill="white"/>
<path d="M72.1772 11.1121L70.2603 6.71313C69.9725 6.04875 69.7588 5.64038 69.6191 5.48804C69.4837 5.33569 69.3187 5.2299 69.124 5.17065V4.93579H72.2788V5.17065C72.0715 5.17912 71.9255 5.21932 71.8408 5.29126C71.7562 5.3632 71.7139 5.44995 71.7139 5.55151C71.7139 5.71232 71.8197 6.0297 72.0312 6.50366L73.0469 8.8269L73.7388 7.03052C73.9884 6.39152 74.1133 5.94718 74.1133 5.69751C74.1133 5.54093 74.0604 5.4161 73.9546 5.323C73.853 5.2299 73.6711 5.17912 73.4087 5.17065V4.93579H75.3955V5.17065C75.2008 5.19181 75.0422 5.26799 74.9194 5.39917C74.7967 5.52612 74.5915 5.96411 74.3037 6.71313L72.6089 11.1121C72.1815 12.2123 71.8641 12.8894 71.6567 13.1433C71.3647 13.4988 70.9987 13.6765 70.5586 13.6765C70.2074 13.6765 69.9217 13.575 69.7017 13.3718C69.4858 13.1729 69.3779 12.9317 69.3779 12.6482C69.3779 12.4028 69.452 12.1996 69.6001 12.0388C69.7524 11.878 69.9386 11.7976 70.1587 11.7976C70.3703 11.7976 70.5396 11.8653 70.6665 12.0007C70.7977 12.1361 70.8654 12.3456 70.8696 12.6292C70.8739 12.79 70.8929 12.8936 70.9268 12.9402C70.9606 12.9867 71.0093 13.01 71.0728 13.01C71.1743 13.01 71.2822 12.9486 71.3965 12.8259C71.5658 12.6482 71.7646 12.2419 71.9932 11.6072L72.1772 11.1121Z" fill="white"/>
<path d="M72.1772 11.1121L70.2603 6.71313C69.9725 6.04875 69.7588 5.64038 69.6191 5.48804C69.4837 5.33569 69.3187 5.2299 69.124 5.17065V4.93579H72.2788V5.17065C72.0715 5.17912 71.9255 5.21932 71.8408 5.29126C71.7562 5.3632 71.7139 5.44995 71.7139 5.55151C71.7139 5.71232 71.8197 6.0297 72.0312 6.50366L73.0469 8.8269L73.7388 7.03052C73.9884 6.39152 74.1133 5.94718 74.1133 5.69751C74.1133 5.54093 74.0604 5.4161 73.9546 5.323C73.853 5.2299 73.6711 5.17912 73.4087 5.17065V4.93579H75.3955V5.17065C75.2008 5.19181 75.0422 5.26799 74.9194 5.39917C74.7967 5.52612 74.5915 5.96411 74.3037 6.71313L72.6089 11.1121C72.1815 12.2123 71.8641 12.8894 71.6567 13.1433C71.3647 13.4988 70.9987 13.6765 70.5586 13.6765C70.2074 13.6765 69.9217 13.575 69.7017 13.3718C69.4858 13.1729 69.3779 12.9317 69.3779 12.6482C69.3779 12.4028 69.452 12.1996 69.6001 12.0388C69.7524 11.878 69.9386 11.7976 70.1587 11.7976C70.3703 11.7976 70.5396 11.8653 70.6665 12.0007C70.7977 12.1361 70.8654 12.3456 70.8696 12.6292C70.8739 12.79 70.8929 12.8936 70.9268 12.9402C70.9606 12.9867 71.0093 13.01 71.0728 13.01C71.1743 13.01 71.2822 12.9486 71.3965 12.8259C71.5658 12.6482 71.7646 12.2419 71.9932 11.6072L72.1772 11.1121Z" fill="white"/>
<path d="M79.0708 2.26343H83.5142V2.49829H83.292C82.9577 2.49829 82.7271 2.53426 82.6001 2.6062C82.4774 2.67391 82.3885 2.76912 82.3335 2.89185C82.2827 3.01457 82.2573 3.32137 82.2573 3.81226V8.0271C82.2573 8.79728 82.3145 9.30721 82.4287 9.55688C82.5472 9.80656 82.7397 10.0139 83.0063 10.179C83.2729 10.344 83.6094 10.4265 84.0156 10.4265C84.4811 10.4265 84.8768 10.3228 85.2026 10.1155C85.5327 9.90389 85.7782 9.61401 85.939 9.24585C86.104 8.87769 86.1865 8.23657 86.1865 7.32251V3.81226C86.1865 3.42716 86.1463 3.1521 86.0659 2.98706C85.9855 2.82202 85.884 2.70776 85.7612 2.64429C85.5708 2.54696 85.3021 2.49829 84.9551 2.49829V2.26343H87.9321V2.49829H87.7544C87.5132 2.49829 87.3122 2.54696 87.1514 2.64429C86.9906 2.74162 86.8742 2.88761 86.8022 3.08228C86.7472 3.21769 86.7197 3.46102 86.7197 3.81226V7.0813C86.7197 8.09269 86.652 8.82267 86.5166 9.27124C86.3854 9.71981 86.0617 10.1324 85.5454 10.509C85.0291 10.8857 84.3245 11.074 83.4316 11.074C82.6868 11.074 82.1113 10.9745 81.7051 10.7756C81.1507 10.5048 80.7593 10.1578 80.5308 9.73462C80.3022 9.31144 80.188 8.74227 80.188 8.0271V3.81226C80.188 3.31714 80.1605 3.01034 80.1055 2.89185C80.0505 2.76912 79.9552 2.67179 79.8198 2.59985C79.6844 2.52791 79.4347 2.49406 79.0708 2.49829V2.26343Z" fill="white"/>
<path d="M79.0708 2.26343H83.5142V2.49829H83.292C82.9577 2.49829 82.7271 2.53426 82.6001 2.6062C82.4774 2.67391 82.3885 2.76912 82.3335 2.89185C82.2827 3.01457 82.2573 3.32137 82.2573 3.81226V8.0271C82.2573 8.79728 82.3145 9.30721 82.4287 9.55688C82.5472 9.80656 82.7397 10.0139 83.0063 10.179C83.2729 10.344 83.6094 10.4265 84.0156 10.4265C84.4811 10.4265 84.8768 10.3228 85.2026 10.1155C85.5327 9.90389 85.7782 9.61401 85.939 9.24585C86.104 8.87769 86.1865 8.23657 86.1865 7.32251V3.81226C86.1865 3.42716 86.1463 3.1521 86.0659 2.98706C85.9855 2.82202 85.884 2.70776 85.7612 2.64429C85.5708 2.54696 85.3021 2.49829 84.9551 2.49829V2.26343H87.9321V2.49829H87.7544C87.5132 2.49829 87.3122 2.54696 87.1514 2.64429C86.9906 2.74162 86.8742 2.88761 86.8022 3.08228C86.7472 3.21769 86.7197 3.46102 86.7197 3.81226V7.0813C86.7197 8.09269 86.652 8.82267 86.5166 9.27124C86.3854 9.71981 86.0617 10.1324 85.5454 10.509C85.0291 10.8857 84.3245 11.074 83.4316 11.074C82.6868 11.074 82.1113 10.9745 81.7051 10.7756C81.1507 10.5048 80.7593 10.1578 80.5308 9.73462C80.3022 9.31144 80.188 8.74227 80.188 8.0271V3.81226C80.188 3.31714 80.1605 3.01034 80.1055 2.89185C80.0505 2.76912 79.9552 2.67179 79.8198 2.59985C79.6844 2.52791 79.4347 2.49406 79.0708 2.49829V2.26343Z" fill="white"/>
<path d="M91.0234 4.93579V5.70386C91.3281 5.37378 91.6201 5.13468 91.8994 4.98657C92.1787 4.83423 92.4792 4.75806 92.8008 4.75806C93.1859 4.75806 93.5054 4.86597 93.7593 5.08179C94.0132 5.29338 94.1825 5.55786 94.2671 5.87524C94.3348 6.11646 94.3687 6.57983 94.3687 7.26538V9.57593C94.3687 10.033 94.4089 10.3186 94.4893 10.4329C94.5739 10.5429 94.7474 10.6127 95.0098 10.6423V10.8708H92.0073V10.6423C92.2316 10.6127 92.3924 10.5196 92.4897 10.363C92.5575 10.2572 92.5913 9.99487 92.5913 9.57593V6.9353C92.5913 6.44865 92.5723 6.14185 92.5342 6.01489C92.4961 5.88794 92.4305 5.79061 92.3374 5.7229C92.2485 5.65096 92.1491 5.61499 92.0391 5.61499C91.6751 5.61499 91.3366 5.87524 91.0234 6.39575V9.57593C91.0234 10.0203 91.0636 10.3017 91.144 10.4202C91.2287 10.5387 91.3831 10.6127 91.6074 10.6423V10.8708H88.605V10.6423C88.8547 10.6169 89.0324 10.5365 89.1382 10.4011C89.2101 10.308 89.2461 10.033 89.2461 9.57593V6.22437C89.2461 5.7758 89.2038 5.4965 89.1191 5.38647C89.0387 5.27645 88.8673 5.20451 88.605 5.17065V4.93579H91.0234Z" fill="white"/>
<path d="M91.0234 4.93579V5.70386C91.3281 5.37378 91.6201 5.13468 91.8994 4.98657C92.1787 4.83423 92.4792 4.75806 92.8008 4.75806C93.1859 4.75806 93.5054 4.86597 93.7593 5.08179C94.0132 5.29338 94.1825 5.55786 94.2671 5.87524C94.3348 6.11646 94.3687 6.57983 94.3687 7.26538V9.57593C94.3687 10.033 94.4089 10.3186 94.4893 10.4329C94.5739 10.5429 94.7474 10.6127 95.0098 10.6423V10.8708H92.0073V10.6423C92.2316 10.6127 92.3924 10.5196 92.4897 10.363C92.5575 10.2572 92.5913 9.99487 92.5913 9.57593V6.9353C92.5913 6.44865 92.5723 6.14185 92.5342 6.01489C92.4961 5.88794 92.4305 5.79061 92.3374 5.7229C92.2485 5.65096 92.1491 5.61499 92.0391 5.61499C91.6751 5.61499 91.3366 5.87524 91.0234 6.39575V9.57593C91.0234 10.0203 91.0636 10.3017 91.144 10.4202C91.2287 10.5387 91.3831 10.6127 91.6074 10.6423V10.8708H88.605V10.6423C88.8547 10.6169 89.0324 10.5365 89.1382 10.4011C89.2101 10.308 89.2461 10.033 89.2461 9.57593V6.22437C89.2461 5.7758 89.2038 5.4965 89.1191 5.38647C89.0387 5.27645 88.8673 5.20451 88.605 5.17065V4.93579H91.0234Z" fill="white"/>
<path d="M97.2632 2.0603C97.5382 2.0603 97.771 2.15763 97.9614 2.35229C98.1519 2.54272 98.2471 2.77336 98.2471 3.04419C98.2471 3.31502 98.1497 3.54565 97.9551 3.73608C97.7646 3.92651 97.534 4.02173 97.2632 4.02173C96.9924 4.02173 96.7617 3.92651 96.5713 3.73608C96.3809 3.54565 96.2856 3.31502 96.2856 3.04419C96.2856 2.77336 96.3809 2.54272 96.5713 2.35229C96.7617 2.15763 96.9924 2.0603 97.2632 2.0603ZM98.1519 4.93579V9.6394C98.1519 10.0583 98.2005 10.3271 98.2979 10.4456C98.3952 10.5598 98.5856 10.6254 98.8691 10.6423V10.8708H95.6636V10.6423C95.9259 10.6339 96.1206 10.5577 96.2476 10.4138C96.3322 10.3165 96.3745 10.0583 96.3745 9.6394V6.17358C96.3745 5.75464 96.3258 5.48804 96.2285 5.37378C96.1312 5.25529 95.9429 5.18758 95.6636 5.17065V4.93579H98.1519Z" fill="white"/>
<path d="M97.2632 2.0603C97.5382 2.0603 97.771 2.15763 97.9614 2.35229C98.1519 2.54272 98.2471 2.77336 98.2471 3.04419C98.2471 3.31502 98.1497 3.54565 97.9551 3.73608C97.7646 3.92651 97.534 4.02173 97.2632 4.02173C96.9924 4.02173 96.7617 3.92651 96.5713 3.73608C96.3809 3.54565 96.2856 3.31502 96.2856 3.04419C96.2856 2.77336 96.3809 2.54272 96.5713 2.35229C96.7617 2.15763 96.9924 2.0603 97.2632 2.0603ZM98.1519 4.93579V9.6394C98.1519 10.0583 98.2005 10.3271 98.2979 10.4456C98.3952 10.5598 98.5856 10.6254 98.8691 10.6423V10.8708H95.6636V10.6423C95.9259 10.6339 96.1206 10.5577 96.2476 10.4138C96.3322 10.3165 96.3745 10.0583 96.3745 9.6394V6.17358C96.3745 5.75464 96.3258 5.48804 96.2285 5.37378C96.1312 5.25529 95.9429 5.18758 95.6636 5.17065V4.93579H98.1519Z" fill="white"/>
<path d="M102.132 11.0486L100.132 6.44653C99.8911 5.89217 99.7028 5.54093 99.5674 5.39282C99.4701 5.2828 99.3262 5.20874 99.1357 5.17065V4.93579H102.291V5.17065C102.092 5.17065 101.956 5.20662 101.884 5.27856C101.783 5.37166 101.732 5.48169 101.732 5.60864C101.732 5.76522 101.825 6.05933 102.011 6.49097L102.989 8.71899L103.77 6.79565C103.994 6.24552 104.106 5.8562 104.106 5.62769C104.106 5.4965 104.057 5.39071 103.96 5.3103C103.867 5.22567 103.7 5.17912 103.458 5.17065V4.93579H105.401V5.17065C105.215 5.19604 105.062 5.26587 104.944 5.38013C104.825 5.49438 104.648 5.83081 104.411 6.3894L102.43 11.0486H102.132Z" fill="white"/>
<path d="M102.132 11.0486L100.132 6.44653C99.8911 5.89217 99.7028 5.54093 99.5674 5.39282C99.4701 5.2828 99.3262 5.20874 99.1357 5.17065V4.93579H102.291V5.17065C102.092 5.17065 101.956 5.20662 101.884 5.27856C101.783 5.37166 101.732 5.48169 101.732 5.60864C101.732 5.76522 101.825 6.05933 102.011 6.49097L102.989 8.71899L103.77 6.79565C103.994 6.24552 104.106 5.8562 104.106 5.62769C104.106 5.4965 104.057 5.39071 103.96 5.3103C103.867 5.22567 103.7 5.17912 103.458 5.17065V4.93579H105.401V5.17065C105.215 5.19604 105.062 5.26587 104.944 5.38013C104.825 5.49438 104.648 5.83081 104.411 6.3894L102.43 11.0486H102.132Z" fill="white"/>
<path d="M110.98 7.69067H107.724C107.762 8.47778 107.972 9.09985 108.353 9.55688C108.645 9.90812 108.996 10.0837 109.406 10.0837C109.66 10.0837 109.891 10.0139 110.098 9.87427C110.306 9.73039 110.528 9.47437 110.765 9.1062L110.98 9.24585C110.659 9.90177 110.303 10.3673 109.914 10.6423C109.525 10.9132 109.074 11.0486 108.562 11.0486C107.682 11.0486 107.015 10.71 106.562 10.033C106.199 9.48706 106.017 8.80998 106.017 8.00171C106.017 7.01147 106.283 6.22437 106.816 5.64038C107.354 5.05216 107.982 4.75806 108.702 4.75806C109.303 4.75806 109.823 5.00562 110.263 5.50073C110.708 5.99162 110.947 6.7216 110.98 7.69067ZM109.419 7.26538C109.419 6.58407 109.381 6.11646 109.305 5.86255C109.233 5.60864 109.118 5.4161 108.962 5.28491C108.873 5.20874 108.755 5.17065 108.606 5.17065C108.386 5.17065 108.207 5.27856 108.067 5.49438C107.817 5.87101 107.692 6.38729 107.692 7.04321V7.26538H109.419Z" fill="white"/>
<path d="M110.98 7.69067H107.724C107.762 8.47778 107.972 9.09985 108.353 9.55688C108.645 9.90812 108.996 10.0837 109.406 10.0837C109.66 10.0837 109.891 10.0139 110.098 9.87427C110.306 9.73039 110.528 9.47437 110.765 9.1062L110.98 9.24585C110.659 9.90177 110.303 10.3673 109.914 10.6423C109.525 10.9132 109.074 11.0486 108.562 11.0486C107.682 11.0486 107.015 10.71 106.562 10.033C106.199 9.48706 106.017 8.80998 106.017 8.00171C106.017 7.01147 106.283 6.22437 106.816 5.64038C107.354 5.05216 107.982 4.75806 108.702 4.75806C109.303 4.75806 109.823 5.00562 110.263 5.50073C110.708 5.99162 110.947 6.7216 110.98 7.69067ZM109.419 7.26538C109.419 6.58407 109.381 6.11646 109.305 5.86255C109.233 5.60864 109.118 5.4161 108.962 5.28491C108.873 5.20874 108.755 5.17065 108.606 5.17065C108.386 5.17065 108.207 5.27856 108.067 5.49438C107.817 5.87101 107.692 6.38729 107.692 7.04321V7.26538H109.419Z" fill="white"/>
<path d="M114.192 4.93579V6.28149C114.586 5.66789 114.931 5.26164 115.227 5.06274C115.523 4.85962 115.809 4.75806 116.084 4.75806C116.321 4.75806 116.509 4.83211 116.649 4.98022C116.793 5.1241 116.865 5.32935 116.865 5.59595C116.865 5.87948 116.795 6.09953 116.655 6.2561C116.52 6.41268 116.355 6.49097 116.16 6.49097C115.936 6.49097 115.741 6.41903 115.576 6.27515C115.411 6.13127 115.314 6.05086 115.284 6.03394C115.242 6.00854 115.193 5.99585 115.138 5.99585C115.015 5.99585 114.899 6.0424 114.789 6.1355C114.616 6.27938 114.484 6.48462 114.396 6.75122C114.26 7.1617 114.192 7.6145 114.192 8.10962V9.47437L114.199 9.82983C114.199 10.071 114.214 10.2255 114.243 10.2932C114.294 10.4075 114.368 10.4921 114.465 10.5471C114.567 10.5979 114.736 10.6296 114.973 10.6423V10.8708H111.768V10.6423C112.026 10.6212 112.199 10.5514 112.288 10.4329C112.381 10.3101 112.428 9.99064 112.428 9.47437V6.19263C112.428 5.85409 112.411 5.63826 112.377 5.54517C112.335 5.42668 112.273 5.33993 112.193 5.28491C112.112 5.2299 111.971 5.19181 111.768 5.17065V4.93579H114.192Z" fill="white"/>
<path d="M114.192 4.93579V6.28149C114.586 5.66789 114.931 5.26164 115.227 5.06274C115.523 4.85962 115.809 4.75806 116.084 4.75806C116.321 4.75806 116.509 4.83211 116.649 4.98022C116.793 5.1241 116.865 5.32935 116.865 5.59595C116.865 5.87948 116.795 6.09953 116.655 6.2561C116.52 6.41268 116.355 6.49097 116.16 6.49097C115.936 6.49097 115.741 6.41903 115.576 6.27515C115.411 6.13127 115.314 6.05086 115.284 6.03394C115.242 6.00854 115.193 5.99585 115.138 5.99585C115.015 5.99585 114.899 6.0424 114.789 6.1355C114.616 6.27938 114.484 6.48462 114.396 6.75122C114.26 7.1617 114.192 7.6145 114.192 8.10962V9.47437L114.199 9.82983C114.199 10.071 114.214 10.2255 114.243 10.2932C114.294 10.4075 114.368 10.4921 114.465 10.5471C114.567 10.5979 114.736 10.6296 114.973 10.6423V10.8708H111.768V10.6423C112.026 10.6212 112.199 10.5514 112.288 10.4329C112.381 10.3101 112.428 9.99064 112.428 9.47437V6.19263C112.428 5.85409 112.411 5.63826 112.377 5.54517C112.335 5.42668 112.273 5.33993 112.193 5.28491C112.112 5.2299 111.971 5.19181 111.768 5.17065V4.93579H114.192Z" fill="white"/>
<path d="M121.257 4.77075L121.353 6.79565H121.137C120.879 6.19474 120.61 5.78426 120.331 5.56421C120.056 5.34416 119.78 5.23413 119.505 5.23413C119.332 5.23413 119.184 5.29338 119.061 5.41187C118.938 5.52612 118.877 5.65942 118.877 5.81177C118.877 5.92603 118.919 6.03605 119.004 6.14185C119.139 6.31535 119.518 6.61369 120.14 7.03687C120.762 7.45581 121.171 7.8134 121.365 8.10962C121.564 8.40161 121.664 8.72957 121.664 9.09351C121.664 9.42358 121.581 9.74731 121.416 10.0647C121.251 10.3821 121.018 10.6254 120.718 10.7947C120.417 10.9639 120.085 11.0486 119.721 11.0486C119.438 11.0486 119.059 10.9597 118.585 10.782C118.458 10.7354 118.371 10.7122 118.325 10.7122C118.185 10.7122 118.069 10.818 117.976 11.0295H117.766L117.665 8.89673H117.88C118.071 9.45532 118.331 9.87427 118.661 10.1536C118.995 10.4329 119.311 10.5725 119.607 10.5725C119.81 10.5725 119.975 10.5111 120.102 10.3884C120.233 10.2615 120.299 10.1091 120.299 9.9314C120.299 9.72827 120.235 9.55265 120.108 9.40454C119.981 9.25643 119.698 9.03215 119.258 8.73169C118.61 8.28312 118.191 7.94035 118.001 7.70337C117.722 7.35636 117.582 6.97339 117.582 6.55444C117.582 6.09741 117.739 5.68481 118.052 5.31665C118.369 4.94425 118.826 4.75806 119.423 4.75806C119.744 4.75806 120.056 4.83634 120.356 4.99292C120.47 5.0564 120.563 5.08813 120.635 5.08813C120.711 5.08813 120.773 5.07332 120.819 5.0437C120.866 5.00985 120.94 4.91886 121.042 4.77075H121.257Z" fill="white"/>
<path d="M121.257 4.77075L121.353 6.79565H121.137C120.879 6.19474 120.61 5.78426 120.331 5.56421C120.056 5.34416 119.78 5.23413 119.505 5.23413C119.332 5.23413 119.184 5.29338 119.061 5.41187C118.938 5.52612 118.877 5.65942 118.877 5.81177C118.877 5.92603 118.919 6.03605 119.004 6.14185C119.139 6.31535 119.518 6.61369 120.14 7.03687C120.762 7.45581 121.171 7.8134 121.365 8.10962C121.564 8.40161 121.664 8.72957 121.664 9.09351C121.664 9.42358 121.581 9.74731 121.416 10.0647C121.251 10.3821 121.018 10.6254 120.718 10.7947C120.417 10.9639 120.085 11.0486 119.721 11.0486C119.438 11.0486 119.059 10.9597 118.585 10.782C118.458 10.7354 118.371 10.7122 118.325 10.7122C118.185 10.7122 118.069 10.818 117.976 11.0295H117.766L117.665 8.89673H117.88C118.071 9.45532 118.331 9.87427 118.661 10.1536C118.995 10.4329 119.311 10.5725 119.607 10.5725C119.81 10.5725 119.975 10.5111 120.102 10.3884C120.233 10.2615 120.299 10.1091 120.299 9.9314C120.299 9.72827 120.235 9.55265 120.108 9.40454C119.981 9.25643 119.698 9.03215 119.258 8.73169C118.61 8.28312 118.191 7.94035 118.001 7.70337C117.722 7.35636 117.582 6.97339 117.582 6.55444C117.582 6.09741 117.739 5.68481 118.052 5.31665C118.369 4.94425 118.826 4.75806 119.423 4.75806C119.744 4.75806 120.056 4.83634 120.356 4.99292C120.47 5.0564 120.563 5.08813 120.635 5.08813C120.711 5.08813 120.773 5.07332 120.819 5.0437C120.866 5.00985 120.94 4.91886 121.042 4.77075H121.257Z" fill="white"/>
<path d="M124 2.0603C124.275 2.0603 124.507 2.15763 124.698 2.35229C124.888 2.54272 124.983 2.77336 124.983 3.04419C124.983 3.31502 124.886 3.54565 124.691 3.73608C124.501 3.92651 124.27 4.02173 124 4.02173C123.729 4.02173 123.498 3.92651 123.308 3.73608C123.117 3.54565 123.022 3.31502 123.022 3.04419C123.022 2.77336 123.117 2.54272 123.308 2.35229C123.498 2.15763 123.729 2.0603 124 2.0603ZM124.888 4.93579V9.6394C124.888 10.0583 124.937 10.3271 125.034 10.4456C125.132 10.5598 125.322 10.6254 125.605 10.6423V10.8708H122.4V10.6423C122.662 10.6339 122.857 10.5577 122.984 10.4138C123.069 10.3165 123.111 10.0583 123.111 9.6394V6.17358C123.111 5.75464 123.062 5.48804 122.965 5.37378C122.868 5.25529 122.679 5.18758 122.4 5.17065V4.93579H124.888Z" fill="white"/>
<path d="M124 2.0603C124.275 2.0603 124.507 2.15763 124.698 2.35229C124.888 2.54272 124.983 2.77336 124.983 3.04419C124.983 3.31502 124.886 3.54565 124.691 3.73608C124.501 3.92651 124.27 4.02173 124 4.02173C123.729 4.02173 123.498 3.92651 123.308 3.73608C123.117 3.54565 123.022 3.31502 123.022 3.04419C123.022 2.77336 123.117 2.54272 123.308 2.35229C123.498 2.15763 123.729 2.0603 124 2.0603ZM124.888 4.93579V9.6394C124.888 10.0583 124.937 10.3271 125.034 10.4456C125.132 10.5598 125.322 10.6254 125.605 10.6423V10.8708H122.4V10.6423C122.662 10.6339 122.857 10.5577 122.984 10.4138C123.069 10.3165 123.111 10.0583 123.111 9.6394V6.17358C123.111 5.75464 123.062 5.48804 122.965 5.37378C122.868 5.25529 122.679 5.18758 122.4 5.17065V4.93579H124.888Z" fill="white"/>
<path d="M128.544 2.76489V4.93579H129.954V5.56421H128.544V9.22681C128.544 9.56958 128.559 9.79175 128.589 9.89331C128.623 9.99064 128.68 10.071 128.76 10.1345C128.841 10.1938 128.915 10.2234 128.982 10.2234C129.257 10.2234 129.518 10.0139 129.763 9.59497L129.954 9.73462C129.611 10.5471 129.054 10.9534 128.284 10.9534C127.908 10.9534 127.588 10.8497 127.326 10.6423C127.068 10.4307 126.903 10.1959 126.831 9.93774C126.788 9.79386 126.767 9.40454 126.767 8.76978V5.56421H125.993V5.34204C126.526 4.96541 126.979 4.56974 127.351 4.15503C127.728 3.74032 128.056 3.27694 128.335 2.76489H128.544Z" fill="white"/>
<path d="M128.544 2.76489V4.93579H129.954V5.56421H128.544V9.22681C128.544 9.56958 128.559 9.79175 128.589 9.89331C128.623 9.99064 128.68 10.071 128.76 10.1345C128.841 10.1938 128.915 10.2234 128.982 10.2234C129.257 10.2234 129.518 10.0139 129.763 9.59497L129.954 9.73462C129.611 10.5471 129.054 10.9534 128.284 10.9534C127.908 10.9534 127.588 10.8497 127.326 10.6423C127.068 10.4307 126.903 10.1959 126.831 9.93774C126.788 9.79386 126.767 9.40454 126.767 8.76978V5.56421H125.993V5.34204C126.526 4.96541 126.979 4.56974 127.351 4.15503C127.728 3.74032 128.056 3.27694 128.335 2.76489H128.544Z" fill="white"/>
<path d="M133.242 11.1121L131.325 6.71313C131.037 6.04875 130.823 5.64038 130.684 5.48804C130.548 5.33569 130.383 5.2299 130.188 5.17065V4.93579H133.343V5.17065C133.136 5.17912 132.99 5.21932 132.905 5.29126C132.821 5.3632 132.778 5.44995 132.778 5.55151C132.778 5.71232 132.884 6.0297 133.096 6.50366L134.111 8.8269L134.803 7.03052C135.053 6.39152 135.178 5.94718 135.178 5.69751C135.178 5.54093 135.125 5.4161 135.019 5.323C134.917 5.2299 134.736 5.17912 134.473 5.17065V4.93579H136.46V5.17065C136.265 5.19181 136.107 5.26799 135.984 5.39917C135.861 5.52612 135.656 5.96411 135.368 6.71313L133.673 11.1121C133.246 12.2123 132.929 12.8894 132.721 13.1433C132.429 13.4988 132.063 13.6765 131.623 13.6765C131.272 13.6765 130.986 13.575 130.766 13.3718C130.55 13.1729 130.442 12.9317 130.442 12.6482C130.442 12.4028 130.516 12.1996 130.665 12.0388C130.817 11.878 131.003 11.7976 131.223 11.7976C131.435 11.7976 131.604 11.8653 131.731 12.0007C131.862 12.1361 131.93 12.3456 131.934 12.6292C131.938 12.79 131.957 12.8936 131.991 12.9402C132.025 12.9867 132.074 13.01 132.137 13.01C132.239 13.01 132.347 12.9486 132.461 12.8259C132.63 12.6482 132.829 12.2419 133.058 11.6072L133.242 11.1121Z" fill="white"/>
<path d="M133.242 11.1121L131.325 6.71313C131.037 6.04875 130.823 5.64038 130.684 5.48804C130.548 5.33569 130.383 5.2299 130.188 5.17065V4.93579H133.343V5.17065C133.136 5.17912 132.99 5.21932 132.905 5.29126C132.821 5.3632 132.778 5.44995 132.778 5.55151C132.778 5.71232 132.884 6.0297 133.096 6.50366L134.111 8.8269L134.803 7.03052C135.053 6.39152 135.178 5.94718 135.178 5.69751C135.178 5.54093 135.125 5.4161 135.019 5.323C134.917 5.2299 134.736 5.17912 134.473 5.17065V4.93579H136.46V5.17065C136.265 5.19181 136.107 5.26799 135.984 5.39917C135.861 5.52612 135.656 5.96411 135.368 6.71313L133.673 11.1121C133.246 12.2123 132.929 12.8894 132.721 13.1433C132.429 13.4988 132.063 13.6765 131.623 13.6765C131.272 13.6765 130.986 13.575 130.766 13.3718C130.55 13.1729 130.442 12.9317 130.442 12.6482C130.442 12.4028 130.516 12.1996 130.665 12.0388C130.817 11.878 131.003 11.7976 131.223 11.7976C131.435 11.7976 131.604 11.8653 131.731 12.0007C131.862 12.1361 131.93 12.3456 131.934 12.6292C131.938 12.79 131.957 12.8936 131.991 12.9402C132.025 12.9867 132.074 13.01 132.137 13.01C132.239 13.01 132.347 12.9486 132.461 12.8259C132.63 12.6482 132.829 12.2419 133.058 11.6072L133.242 11.1121Z" fill="white"/>
<rect x="57" y="18.3236" width="0.647052" height="105" transform="rotate(-90 57 18.3236)" fill="white"/>
<rect x="57" y="18.3236" width="0.647052" height="105" transform="rotate(-90 57 18.3236)" fill="white"/>
<path d="M60.2817 26.9955V29.6615C60.2817 30.1016 60.305 30.3767 60.3516 30.4867C60.4023 30.5967 60.4976 30.6941 60.6372 30.7787C60.7811 30.8591 60.9736 30.8993 61.2148 30.8993H61.5005V31.1342H57V30.8993H57.2856C57.5353 30.8993 57.7363 30.8549 57.8887 30.766C57.9987 30.7067 58.0833 30.6052 58.1426 30.4613C58.1891 30.3597 58.2124 30.0931 58.2124 29.6615V23.9994C58.2124 23.5593 58.1891 23.2842 58.1426 23.1742C58.096 23.0642 58.0008 22.969 57.8569 22.8885C57.7173 22.8039 57.5269 22.7616 57.2856 22.7616H57V22.5267H61.5005V22.7616H61.2148C60.9652 22.7616 60.7642 22.806 60.6118 22.8949C60.5018 22.9541 60.415 23.0557 60.3516 23.1996C60.305 23.3011 60.2817 23.5677 60.2817 23.9994V26.4369H63.3223V23.9994C63.3223 23.5593 63.299 23.2842 63.2524 23.1742C63.2059 23.0642 63.1107 22.969 62.9668 22.8885C62.8229 22.8039 62.6304 22.7616 62.3892 22.7616H62.1099V22.5267H66.604V22.7616H66.3247C66.0708 22.7616 65.8698 22.806 65.7217 22.8949C65.6117 22.9541 65.5249 23.0557 65.4614 23.1996C65.4149 23.3011 65.3916 23.5677 65.3916 23.9994V29.6615C65.3916 30.1016 65.4149 30.3767 65.4614 30.4867C65.508 30.5967 65.6032 30.6941 65.7471 30.7787C65.891 30.8591 66.0835 30.8993 66.3247 30.8993H66.604V31.1342H62.1099V30.8993H62.3892C62.6431 30.8993 62.8441 30.8549 62.9922 30.766C63.1022 30.7067 63.189 30.6052 63.2524 30.4613C63.299 30.3597 63.3223 30.0931 63.3223 29.6615V26.9955H60.2817Z" fill="white"/>
<path d="M60.2817 26.9955V29.6615C60.2817 30.1016 60.305 30.3767 60.3516 30.4867C60.4023 30.5967 60.4976 30.6941 60.6372 30.7787C60.7811 30.8591 60.9736 30.8993 61.2148 30.8993H61.5005V31.1342H57V30.8993H57.2856C57.5353 30.8993 57.7363 30.8549 57.8887 30.766C57.9987 30.7067 58.0833 30.6052 58.1426 30.4613C58.1891 30.3597 58.2124 30.0931 58.2124 29.6615V23.9994C58.2124 23.5593 58.1891 23.2842 58.1426 23.1742C58.096 23.0642 58.0008 22.969 57.8569 22.8885C57.7173 22.8039 57.5269 22.7616 57.2856 22.7616H57V22.5267H61.5005V22.7616H61.2148C60.9652 22.7616 60.7642 22.806 60.6118 22.8949C60.5018 22.9541 60.415 23.0557 60.3516 23.1996C60.305 23.3011 60.2817 23.5677 60.2817 23.9994V26.4369H63.3223V23.9994C63.3223 23.5593 63.299 23.2842 63.2524 23.1742C63.2059 23.0642 63.1107 22.969 62.9668 22.8885C62.8229 22.8039 62.6304 22.7616 62.3892 22.7616H62.1099V22.5267H66.604V22.7616H66.3247C66.0708 22.7616 65.8698 22.806 65.7217 22.8949C65.6117 22.9541 65.5249 23.0557 65.4614 23.1996C65.4149 23.3011 65.3916 23.5677 65.3916 23.9994V29.6615C65.3916 30.1016 65.4149 30.3767 65.4614 30.4867C65.508 30.5967 65.6032 30.6941 65.7471 30.7787C65.891 30.8591 66.0835 30.8993 66.3247 30.8993H66.604V31.1342H62.1099V30.8993H62.3892C62.6431 30.8993 62.8441 30.8549 62.9922 30.766C63.1022 30.7067 63.189 30.6052 63.2524 30.4613C63.299 30.3597 63.3223 30.0931 63.3223 29.6615V26.9955H60.2817Z" fill="white"/>
<path d="M68.7114 22.3236C68.9865 22.3236 69.2192 22.4209 69.4097 22.6156C69.6001 22.806 69.6953 23.0367 69.6953 23.3075C69.6953 23.5783 69.598 23.809 69.4033 23.9994C69.2129 24.1898 68.9823 24.285 68.7114 24.285C68.4406 24.285 68.21 24.1898 68.0195 23.9994C67.8291 23.809 67.7339 23.5783 67.7339 23.3075C67.7339 23.0367 67.8291 22.806 68.0195 22.6156C68.21 22.4209 68.4406 22.3236 68.7114 22.3236ZM69.6001 25.1991V29.9027C69.6001 30.3217 69.6488 30.5904 69.7461 30.7089C69.8434 30.8231 70.0339 30.8887 70.3174 30.9056V31.1342H67.1118V30.9056C67.3742 30.8972 67.5688 30.821 67.6958 30.6771C67.7804 30.5798 67.8228 30.3217 67.8228 29.9027V26.4369C67.8228 26.0179 67.7741 25.7513 67.6768 25.6371C67.5794 25.5186 67.3911 25.4509 67.1118 25.434V25.1991H69.6001Z" fill="white"/>
<path d="M68.7114 22.3236C68.9865 22.3236 69.2192 22.4209 69.4097 22.6156C69.6001 22.806 69.6953 23.0367 69.6953 23.3075C69.6953 23.5783 69.598 23.809 69.4033 23.9994C69.2129 24.1898 68.9823 24.285 68.7114 24.285C68.4406 24.285 68.21 24.1898 68.0195 23.9994C67.8291 23.809 67.7339 23.5783 67.7339 23.3075C67.7339 23.0367 67.8291 22.806 68.0195 22.6156C68.21 22.4209 68.4406 22.3236 68.7114 22.3236ZM69.6001 25.1991V29.9027C69.6001 30.3217 69.6488 30.5904 69.7461 30.7089C69.8434 30.8231 70.0339 30.8887 70.3174 30.9056V31.1342H67.1118V30.9056C67.3742 30.8972 67.5688 30.821 67.6958 30.6771C67.7804 30.5798 67.8228 30.3217 67.8228 29.9027V26.4369C67.8228 26.0179 67.7741 25.7513 67.6768 25.6371C67.5794 25.5186 67.3911 25.4509 67.1118 25.434V25.1991H69.6001Z" fill="white"/>
<path d="M74.71 25.2689H76.7095V25.9672H75.5732C75.7806 26.1745 75.9245 26.3628 76.0049 26.5321C76.1064 26.7606 76.1572 26.9997 76.1572 27.2494C76.1572 27.6726 76.0387 28.0407 75.8018 28.3539C75.569 28.6628 75.2495 28.9061 74.8433 29.0839C74.4412 29.2574 74.0837 29.3441 73.7705 29.3441C73.7451 29.3441 73.4912 29.3335 73.0088 29.3124C72.8184 29.3124 72.6576 29.3759 72.5264 29.5028C72.3994 29.6255 72.3359 29.7736 72.3359 29.9471C72.3359 30.0995 72.3931 30.2243 72.5073 30.3217C72.6258 30.419 72.8162 30.4677 73.0786 30.4677L74.1768 30.455C75.0654 30.455 75.6769 30.5523 76.0112 30.7469C76.4894 31.0178 76.7285 31.4346 76.7285 31.9974C76.7285 32.3571 76.6185 32.683 76.3984 32.975C76.1784 33.2712 75.8885 33.4891 75.5288 33.6288C74.9829 33.8361 74.3545 33.9398 73.6436 33.9398C73.1104 33.9398 72.6237 33.8869 72.1836 33.7811C71.7435 33.6796 71.4282 33.5357 71.2378 33.3495C71.0474 33.1675 70.9521 32.975 70.9521 32.7719C70.9521 32.5772 71.0241 32.4016 71.168 32.245C71.3161 32.0927 71.589 31.9636 71.9868 31.8578C71.4367 31.587 71.1616 31.2103 71.1616 30.7279C71.1616 30.4359 71.2738 30.1524 71.498 29.8773C71.7223 29.6023 72.0778 29.3632 72.5645 29.16C71.9974 28.9527 71.5869 28.6797 71.333 28.3412C71.0791 28.0026 70.9521 27.6112 70.9521 27.1669C70.9521 26.5871 71.1891 26.0857 71.6631 25.6625C72.137 25.2351 72.7464 25.0214 73.4912 25.0214C73.8848 25.0214 74.291 25.1039 74.71 25.2689ZM73.6118 25.4149C73.3664 25.4149 73.159 25.5398 72.9897 25.7894C72.8205 26.0349 72.7358 26.5469 72.7358 27.3256C72.7358 27.9561 72.8184 28.3899 72.9834 28.6268C73.1527 28.8596 73.3516 28.976 73.5801 28.976C73.834 28.976 74.0456 28.8596 74.2148 28.6268C74.3841 28.3941 74.4688 27.9413 74.4688 27.2684C74.4688 26.5109 74.3735 25.9947 74.1831 25.7196C74.0477 25.5165 73.8573 25.4149 73.6118 25.4149ZM73.2373 32.0101C72.8057 32.0101 72.52 32.0461 72.3804 32.118C72.1392 32.2492 72.0186 32.427 72.0186 32.6512C72.0186 32.8671 72.1434 33.0617 72.3931 33.2352C72.6427 33.413 73.1125 33.5018 73.8022 33.5018C74.3905 33.5018 74.8517 33.4235 75.186 33.267C75.5246 33.1104 75.6938 32.8903 75.6938 32.6068C75.6938 32.501 75.6621 32.4122 75.5986 32.3402C75.4844 32.2133 75.3109 32.1265 75.0781 32.08C74.8496 32.0334 74.236 32.0101 73.2373 32.0101Z" fill="white"/>
<path d="M74.71 25.2689H76.7095V25.9672H75.5732C75.7806 26.1745 75.9245 26.3628 76.0049 26.5321C76.1064 26.7606 76.1572 26.9997 76.1572 27.2494C76.1572 27.6726 76.0387 28.0407 75.8018 28.3539C75.569 28.6628 75.2495 28.9061 74.8433 29.0839C74.4412 29.2574 74.0837 29.3441 73.7705 29.3441C73.7451 29.3441 73.4912 29.3335 73.0088 29.3124C72.8184 29.3124 72.6576 29.3759 72.5264 29.5028C72.3994 29.6255 72.3359 29.7736 72.3359 29.9471C72.3359 30.0995 72.3931 30.2243 72.5073 30.3217C72.6258 30.419 72.8162 30.4677 73.0786 30.4677L74.1768 30.455C75.0654 30.455 75.6769 30.5523 76.0112 30.7469C76.4894 31.0178 76.7285 31.4346 76.7285 31.9974C76.7285 32.3571 76.6185 32.683 76.3984 32.975C76.1784 33.2712 75.8885 33.4891 75.5288 33.6288C74.9829 33.8361 74.3545 33.9398 73.6436 33.9398C73.1104 33.9398 72.6237 33.8869 72.1836 33.7811C71.7435 33.6796 71.4282 33.5357 71.2378 33.3495C71.0474 33.1675 70.9521 32.975 70.9521 32.7719C70.9521 32.5772 71.0241 32.4016 71.168 32.245C71.3161 32.0927 71.589 31.9636 71.9868 31.8578C71.4367 31.587 71.1616 31.2103 71.1616 30.7279C71.1616 30.4359 71.2738 30.1524 71.498 29.8773C71.7223 29.6023 72.0778 29.3632 72.5645 29.16C71.9974 28.9527 71.5869 28.6797 71.333 28.3412C71.0791 28.0026 70.9521 27.6112 70.9521 27.1669C70.9521 26.5871 71.1891 26.0857 71.6631 25.6625C72.137 25.2351 72.7464 25.0214 73.4912 25.0214C73.8848 25.0214 74.291 25.1039 74.71 25.2689ZM73.6118 25.4149C73.3664 25.4149 73.159 25.5398 72.9897 25.7894C72.8205 26.0349 72.7358 26.5469 72.7358 27.3256C72.7358 27.9561 72.8184 28.3899 72.9834 28.6268C73.1527 28.8596 73.3516 28.976 73.5801 28.976C73.834 28.976 74.0456 28.8596 74.2148 28.6268C74.3841 28.3941 74.4688 27.9413 74.4688 27.2684C74.4688 26.5109 74.3735 25.9947 74.1831 25.7196C74.0477 25.5165 73.8573 25.4149 73.6118 25.4149ZM73.2373 32.0101C72.8057 32.0101 72.52 32.0461 72.3804 32.118C72.1392 32.2492 72.0186 32.427 72.0186 32.6512C72.0186 32.8671 72.1434 33.0617 72.3931 33.2352C72.6427 33.413 73.1125 33.5018 73.8022 33.5018C74.3905 33.5018 74.8517 33.4235 75.186 33.267C75.5246 33.1104 75.6938 32.8903 75.6938 32.6068C75.6938 32.501 75.6621 32.4122 75.5986 32.3402C75.4844 32.2133 75.3109 32.1265 75.0781 32.08C74.8496 32.0334 74.236 32.0101 73.2373 32.0101Z" fill="white"/>
<path d="M79.8262 22.5267V25.9608C80.152 25.618 80.4504 25.3768 80.7212 25.2372C80.992 25.0933 81.2734 25.0214 81.5654 25.0214C81.9378 25.0214 82.2552 25.1272 82.5176 25.3387C82.7842 25.5503 82.9598 25.8 83.0444 26.0878C83.1333 26.3713 83.1777 26.8516 83.1777 27.5287V29.8456C83.1777 30.2984 83.2201 30.5819 83.3047 30.6962C83.3893 30.8062 83.5607 30.876 83.8188 30.9056V31.1342H80.8101V30.9056C81.0216 30.876 81.1803 30.7914 81.2861 30.6517C81.3623 30.5417 81.4004 30.273 81.4004 29.8456V27.1986C81.4004 26.7077 81.3813 26.4009 81.3433 26.2782C81.3052 26.1512 81.2396 26.0539 81.1465 25.9862C81.0576 25.9143 80.9561 25.8783 80.8418 25.8783C80.6725 25.8783 80.5075 25.9375 80.3467 26.056C80.1859 26.1703 80.0124 26.3734 79.8262 26.6654V29.8456C79.8262 30.2688 79.8579 30.5332 79.9214 30.639C80.0018 30.7829 80.1668 30.8718 80.4165 30.9056V31.1342H77.4077V30.9056C77.6574 30.8802 77.8351 30.7998 77.9409 30.6644C78.0129 30.5713 78.0488 30.2984 78.0488 29.8456V23.8153C78.0488 23.3667 78.0065 23.0874 77.9219 22.9774C77.8415 22.8674 77.6701 22.7955 77.4077 22.7616V22.5267H79.8262Z" fill="white"/>
<path d="M79.8262 22.5267V25.9608C80.152 25.618 80.4504 25.3768 80.7212 25.2372C80.992 25.0933 81.2734 25.0214 81.5654 25.0214C81.9378 25.0214 82.2552 25.1272 82.5176 25.3387C82.7842 25.5503 82.9598 25.8 83.0444 26.0878C83.1333 26.3713 83.1777 26.8516 83.1777 27.5287V29.8456C83.1777 30.2984 83.2201 30.5819 83.3047 30.6962C83.3893 30.8062 83.5607 30.876 83.8188 30.9056V31.1342H80.8101V30.9056C81.0216 30.876 81.1803 30.7914 81.2861 30.6517C81.3623 30.5417 81.4004 30.273 81.4004 29.8456V27.1986C81.4004 26.7077 81.3813 26.4009 81.3433 26.2782C81.3052 26.1512 81.2396 26.0539 81.1465 25.9862C81.0576 25.9143 80.9561 25.8783 80.8418 25.8783C80.6725 25.8783 80.5075 25.9375 80.3467 26.056C80.1859 26.1703 80.0124 26.3734 79.8262 26.6654V29.8456C79.8262 30.2688 79.8579 30.5332 79.9214 30.639C80.0018 30.7829 80.1668 30.8718 80.4165 30.9056V31.1342H77.4077V30.9056C77.6574 30.8802 77.8351 30.7998 77.9409 30.6644C78.0129 30.5713 78.0488 30.2984 78.0488 29.8456V23.8153C78.0488 23.3667 78.0065 23.0874 77.9219 22.9774C77.8415 22.8674 77.6701 22.7955 77.4077 22.7616V22.5267H79.8262Z" fill="white"/>
<path d="M89.665 27.954H86.4087C86.4468 28.7411 86.6562 29.3632 87.0371 29.8202C87.3291 30.1714 87.6803 30.347 88.0908 30.347C88.3447 30.347 88.5754 30.2772 88.7827 30.1376C88.9901 29.9937 89.2122 29.7377 89.4492 29.3695L89.665 29.5092C89.3434 30.1651 88.988 30.6306 88.5986 30.9056C88.2093 31.1765 87.7586 31.3119 87.2466 31.3119C86.3664 31.3119 85.6999 30.9733 85.2471 30.2963C84.8831 29.7504 84.7012 29.0733 84.7012 28.265C84.7012 27.2748 84.9678 26.4877 85.501 25.9037C86.0384 25.3155 86.6668 25.0214 87.3862 25.0214C87.9871 25.0214 88.5077 25.2689 88.9478 25.764C89.3921 26.2549 89.6312 26.9849 89.665 27.954ZM88.1035 27.5287C88.1035 26.8474 88.0654 26.3798 87.9893 26.1259C87.9173 25.8719 87.8031 25.6794 87.6465 25.5482C87.5576 25.472 87.4391 25.434 87.291 25.434C87.071 25.434 86.8911 25.5419 86.7515 25.7577C86.5018 26.1343 86.377 26.6506 86.377 27.3065V27.5287H88.1035Z" fill="white"/>
<path d="M89.665 27.954H86.4087C86.4468 28.7411 86.6562 29.3632 87.0371 29.8202C87.3291 30.1714 87.6803 30.347 88.0908 30.347C88.3447 30.347 88.5754 30.2772 88.7827 30.1376C88.9901 29.9937 89.2122 29.7377 89.4492 29.3695L89.665 29.5092C89.3434 30.1651 88.988 30.6306 88.5986 30.9056C88.2093 31.1765 87.7586 31.3119 87.2466 31.3119C86.3664 31.3119 85.6999 30.9733 85.2471 30.2963C84.8831 29.7504 84.7012 29.0733 84.7012 28.265C84.7012 27.2748 84.9678 26.4877 85.501 25.9037C86.0384 25.3155 86.6668 25.0214 87.3862 25.0214C87.9871 25.0214 88.5077 25.2689 88.9478 25.764C89.3921 26.2549 89.6312 26.9849 89.665 27.954ZM88.1035 27.5287C88.1035 26.8474 88.0654 26.3798 87.9893 26.1259C87.9173 25.8719 87.8031 25.6794 87.6465 25.5482C87.5576 25.472 87.4391 25.434 87.291 25.434C87.071 25.434 86.8911 25.5419 86.7515 25.7577C86.5018 26.1343 86.377 26.6506 86.377 27.3065V27.5287H88.1035Z" fill="white"/>
<path d="M92.877 25.1991V26.5448C93.2705 25.9312 93.6154 25.5249 93.9116 25.326C94.2078 25.1229 94.4935 25.0214 94.7686 25.0214C95.0055 25.0214 95.1938 25.0954 95.3335 25.2435C95.4774 25.3874 95.5493 25.5927 95.5493 25.8593C95.5493 26.1428 95.4795 26.3628 95.3398 26.5194C95.2044 26.676 95.0394 26.7543 94.8447 26.7543C94.6204 26.7543 94.4258 26.6823 94.2607 26.5385C94.0957 26.3946 93.9984 26.3142 93.9688 26.2972C93.9264 26.2719 93.8778 26.2592 93.8228 26.2592C93.7 26.2592 93.5837 26.3057 93.4736 26.3988C93.3001 26.5427 93.1689 26.7479 93.0801 27.0145C92.9447 27.425 92.877 27.8778 92.877 28.3729V29.7377L92.8833 30.0931C92.8833 30.3344 92.8981 30.4888 92.9277 30.5565C92.9785 30.6708 93.0526 30.7554 93.1499 30.8104C93.2515 30.8612 93.4207 30.8929 93.6577 30.9056V31.1342H90.4521V30.9056C90.7103 30.8845 90.8838 30.8147 90.9727 30.6962C91.0658 30.5734 91.1123 30.2539 91.1123 29.7377V26.4559C91.1123 26.1174 91.0954 25.9016 91.0615 25.8085C91.0192 25.69 90.9578 25.6032 90.8774 25.5482C90.797 25.4932 90.6553 25.4551 90.4521 25.434V25.1991H92.877Z" fill="white"/>
<path d="M92.877 25.1991V26.5448C93.2705 25.9312 93.6154 25.5249 93.9116 25.326C94.2078 25.1229 94.4935 25.0214 94.7686 25.0214C95.0055 25.0214 95.1938 25.0954 95.3335 25.2435C95.4774 25.3874 95.5493 25.5927 95.5493 25.8593C95.5493 26.1428 95.4795 26.3628 95.3398 26.5194C95.2044 26.676 95.0394 26.7543 94.8447 26.7543C94.6204 26.7543 94.4258 26.6823 94.2607 26.5385C94.0957 26.3946 93.9984 26.3142 93.9688 26.2972C93.9264 26.2719 93.8778 26.2592 93.8228 26.2592C93.7 26.2592 93.5837 26.3057 93.4736 26.3988C93.3001 26.5427 93.1689 26.7479 93.0801 27.0145C92.9447 27.425 92.877 27.8778 92.877 28.3729V29.7377L92.8833 30.0931C92.8833 30.3344 92.8981 30.4888 92.9277 30.5565C92.9785 30.6708 93.0526 30.7554 93.1499 30.8104C93.2515 30.8612 93.4207 30.8929 93.6577 30.9056V31.1342H90.4521V30.9056C90.7103 30.8845 90.8838 30.8147 90.9727 30.6962C91.0658 30.5734 91.1123 30.2539 91.1123 29.7377V26.4559C91.1123 26.1174 91.0954 25.9016 91.0615 25.8085C91.0192 25.69 90.9578 25.6032 90.8774 25.5482C90.797 25.4932 90.6553 25.4551 90.4521 25.434V25.1991H92.877Z" fill="white"/>
<path d="M102.303 23.0219V26.5258H102.475C103.021 26.5258 103.416 26.3544 103.662 26.0116C103.907 25.6688 104.064 25.1631 104.131 24.4945H104.373V29.0013H104.131C104.081 28.5105 103.973 28.1084 103.808 27.7953C103.647 27.4821 103.458 27.2727 103.243 27.1669C103.027 27.0568 102.714 27.0018 102.303 27.0018V29.4266C102.303 29.9006 102.322 30.1905 102.36 30.2963C102.403 30.4021 102.479 30.4888 102.589 30.5565C102.699 30.6242 102.877 30.6581 103.122 30.6581H103.636C104.44 30.6581 105.083 30.4719 105.566 30.0995C106.053 29.7271 106.402 29.16 106.613 28.3983H106.848L106.461 31.1342H99.0215V30.8993H99.3071C99.5568 30.8993 99.7578 30.8549 99.9102 30.766C100.02 30.7067 100.105 30.6052 100.164 30.4613C100.211 30.3597 100.234 30.0931 100.234 29.6615V23.9994C100.234 23.6101 100.223 23.371 100.202 23.2821C100.16 23.134 100.082 23.0197 99.9673 22.9393C99.8065 22.8208 99.5864 22.7616 99.3071 22.7616H99.0215V22.5267H106.226V25.0721H105.985C105.862 24.4501 105.689 24.0036 105.464 23.7328C105.244 23.462 104.931 23.2631 104.525 23.1361C104.288 23.0599 103.844 23.0219 103.192 23.0219H102.303Z" fill="white"/>
<path d="M102.303 23.0219V26.5258H102.475C103.021 26.5258 103.416 26.3544 103.662 26.0116C103.907 25.6688 104.064 25.1631 104.131 24.4945H104.373V29.0013H104.131C104.081 28.5105 103.973 28.1084 103.808 27.7953C103.647 27.4821 103.458 27.2727 103.243 27.1669C103.027 27.0568 102.714 27.0018 102.303 27.0018V29.4266C102.303 29.9006 102.322 30.1905 102.36 30.2963C102.403 30.4021 102.479 30.4888 102.589 30.5565C102.699 30.6242 102.877 30.6581 103.122 30.6581H103.636C104.44 30.6581 105.083 30.4719 105.566 30.0995C106.053 29.7271 106.402 29.16 106.613 28.3983H106.848L106.461 31.1342H99.0215V30.8993H99.3071C99.5568 30.8993 99.7578 30.8549 99.9102 30.766C100.02 30.7067 100.105 30.6052 100.164 30.4613C100.211 30.3597 100.234 30.0931 100.234 29.6615V23.9994C100.234 23.6101 100.223 23.371 100.202 23.2821C100.16 23.134 100.082 23.0197 99.9673 22.9393C99.8065 22.8208 99.5864 22.7616 99.3071 22.7616H99.0215V22.5267H106.226V25.0721H105.985C105.862 24.4501 105.689 24.0036 105.464 23.7328C105.244 23.462 104.931 23.2631 104.525 23.1361C104.288 23.0599 103.844 23.0219 103.192 23.0219H102.303Z" fill="white"/>
<path d="M113.64 22.5267V29.3568C113.64 29.8181 113.653 30.091 113.678 30.1757C113.712 30.3153 113.776 30.419 113.869 30.4867C113.966 30.5544 114.133 30.5967 114.37 30.6136V30.8231L111.863 31.3119V30.3724C111.562 30.7364 111.294 30.9839 111.057 31.1151C110.824 31.2463 110.559 31.3119 110.263 31.3119C109.506 31.3119 108.907 30.9733 108.467 30.2963C108.111 29.7461 107.934 29.0712 107.934 28.2714C107.934 27.6324 108.044 27.0611 108.264 26.5575C108.484 26.0497 108.784 25.6667 109.165 25.4086C109.55 25.1504 109.963 25.0214 110.403 25.0214C110.686 25.0214 110.938 25.0764 111.158 25.1864C111.378 25.2964 111.613 25.489 111.863 25.764V23.974C111.863 23.5212 111.844 23.2483 111.806 23.1552C111.755 23.0324 111.679 22.9414 111.577 22.8822C111.476 22.823 111.285 22.7933 111.006 22.7933V22.5267H113.64ZM111.863 26.5511C111.55 25.9502 111.167 25.6498 110.714 25.6498C110.557 25.6498 110.428 25.6921 110.327 25.7767C110.17 25.9079 110.041 26.1385 109.939 26.4686C109.842 26.7987 109.793 27.3044 109.793 27.9857C109.793 28.7347 109.848 29.2891 109.958 29.6488C110.069 30.0085 110.219 30.2688 110.409 30.4296C110.507 30.51 110.64 30.5502 110.809 30.5502C111.181 30.5502 111.533 30.2582 111.863 29.6742V26.5511Z" fill="white"/>
<path d="M113.64 22.5267V29.3568C113.64 29.8181 113.653 30.091 113.678 30.1757C113.712 30.3153 113.776 30.419 113.869 30.4867C113.966 30.5544 114.133 30.5967 114.37 30.6136V30.8231L111.863 31.3119V30.3724C111.562 30.7364 111.294 30.9839 111.057 31.1151C110.824 31.2463 110.559 31.3119 110.263 31.3119C109.506 31.3119 108.907 30.9733 108.467 30.2963C108.111 29.7461 107.934 29.0712 107.934 28.2714C107.934 27.6324 108.044 27.0611 108.264 26.5575C108.484 26.0497 108.784 25.6667 109.165 25.4086C109.55 25.1504 109.963 25.0214 110.403 25.0214C110.686 25.0214 110.938 25.0764 111.158 25.1864C111.378 25.2964 111.613 25.489 111.863 25.764V23.974C111.863 23.5212 111.844 23.2483 111.806 23.1552C111.755 23.0324 111.679 22.9414 111.577 22.8822C111.476 22.823 111.285 22.7933 111.006 22.7933V22.5267H113.64ZM111.863 26.5511C111.55 25.9502 111.167 25.6498 110.714 25.6498C110.557 25.6498 110.428 25.6921 110.327 25.7767C110.17 25.9079 110.041 26.1385 109.939 26.4686C109.842 26.7987 109.793 27.3044 109.793 27.9857C109.793 28.7347 109.848 29.2891 109.958 29.6488C110.069 30.0085 110.219 30.2688 110.409 30.4296C110.507 30.51 110.64 30.5502 110.809 30.5502C111.181 30.5502 111.533 30.2582 111.863 29.6742V26.5511Z" fill="white"/>
<path d="M120.838 25.1991V29.8456C120.838 30.2984 120.881 30.5819 120.965 30.6962C121.05 30.8062 121.221 30.876 121.479 30.9056V31.1342H119.061V30.3407C118.778 30.6792 118.494 30.9268 118.21 31.0834C117.927 31.2357 117.61 31.3119 117.258 31.3119C116.924 31.3119 116.626 31.2103 116.363 31.0072C116.105 30.7998 115.932 30.5586 115.843 30.2836C115.754 30.0085 115.709 29.5282 115.709 28.8427V26.4877C115.709 26.0391 115.667 25.7598 115.583 25.6498C115.502 25.5398 115.331 25.4678 115.068 25.434V25.1991H117.487V29.2552C117.487 29.6784 117.506 29.9514 117.544 30.0741C117.586 30.1968 117.65 30.2899 117.734 30.3534C117.823 30.4169 117.925 30.4486 118.039 30.4486C118.191 30.4486 118.329 30.4084 118.452 30.328C118.621 30.218 118.824 29.9958 119.061 29.6615V26.4877C119.061 26.0391 119.019 25.7598 118.934 25.6498C118.854 25.5398 118.682 25.4678 118.42 25.434V25.1991H120.838Z" fill="white"/>
<path d="M120.838 25.1991V29.8456C120.838 30.2984 120.881 30.5819 120.965 30.6962C121.05 30.8062 121.221 30.876 121.479 30.9056V31.1342H119.061V30.3407C118.778 30.6792 118.494 30.9268 118.21 31.0834C117.927 31.2357 117.61 31.3119 117.258 31.3119C116.924 31.3119 116.626 31.2103 116.363 31.0072C116.105 30.7998 115.932 30.5586 115.843 30.2836C115.754 30.0085 115.709 29.5282 115.709 28.8427V26.4877C115.709 26.0391 115.667 25.7598 115.583 25.6498C115.502 25.5398 115.331 25.4678 115.068 25.434V25.1991H117.487V29.2552C117.487 29.6784 117.506 29.9514 117.544 30.0741C117.586 30.1968 117.65 30.2899 117.734 30.3534C117.823 30.4169 117.925 30.4486 118.039 30.4486C118.191 30.4486 118.329 30.4084 118.452 30.328C118.621 30.218 118.824 29.9958 119.061 29.6615V26.4877C119.061 26.0391 119.019 25.7598 118.934 25.6498C118.854 25.5398 118.682 25.4678 118.42 25.434V25.1991H120.838Z" fill="white"/>
<path d="M127.186 29.6044L127.383 29.7567C127.104 30.2815 126.754 30.6729 126.335 30.931C125.921 31.1849 125.479 31.3119 125.009 31.3119C124.217 31.3119 123.585 31.0135 123.111 30.4169C122.637 29.8202 122.4 29.1029 122.4 28.265C122.4 27.4567 122.616 26.7458 123.047 26.1322C123.568 25.3916 124.285 25.0214 125.199 25.0214C125.813 25.0214 126.299 25.1758 126.659 25.4847C127.023 25.7937 127.205 26.1385 127.205 26.5194C127.205 26.7606 127.131 26.9532 126.983 27.097C126.839 27.2409 126.649 27.3129 126.412 27.3129C126.162 27.3129 125.955 27.2303 125.79 27.0653C125.629 26.9003 125.529 26.6062 125.491 26.183C125.466 25.9164 125.404 25.7302 125.307 25.6244C125.21 25.5186 125.096 25.4657 124.964 25.4657C124.761 25.4657 124.588 25.5736 124.444 25.7894C124.224 26.1153 124.114 26.6146 124.114 27.2875C124.114 27.8461 124.203 28.3814 124.38 28.8934C124.558 29.4012 124.801 29.78 125.11 30.0297C125.343 30.2116 125.618 30.3026 125.936 30.3026C126.143 30.3026 126.34 30.2539 126.526 30.1566C126.712 30.0593 126.932 29.8752 127.186 29.6044Z" fill="white"/>
<path d="M127.186 29.6044L127.383 29.7567C127.104 30.2815 126.754 30.6729 126.335 30.931C125.921 31.1849 125.479 31.3119 125.009 31.3119C124.217 31.3119 123.585 31.0135 123.111 30.4169C122.637 29.8202 122.4 29.1029 122.4 28.265C122.4 27.4567 122.616 26.7458 123.047 26.1322C123.568 25.3916 124.285 25.0214 125.199 25.0214C125.813 25.0214 126.299 25.1758 126.659 25.4847C127.023 25.7937 127.205 26.1385 127.205 26.5194C127.205 26.7606 127.131 26.9532 126.983 27.097C126.839 27.2409 126.649 27.3129 126.412 27.3129C126.162 27.3129 125.955 27.2303 125.79 27.0653C125.629 26.9003 125.529 26.6062 125.491 26.183C125.466 25.9164 125.404 25.7302 125.307 25.6244C125.21 25.5186 125.096 25.4657 124.964 25.4657C124.761 25.4657 124.588 25.5736 124.444 25.7894C124.224 26.1153 124.114 26.6146 124.114 27.2875C124.114 27.8461 124.203 28.3814 124.38 28.8934C124.558 29.4012 124.801 29.78 125.11 30.0297C125.343 30.2116 125.618 30.3026 125.936 30.3026C126.143 30.3026 126.34 30.2539 126.526 30.1566C126.712 30.0593 126.932 29.8752 127.186 29.6044Z" fill="white"/>
<path d="M131.395 30.2582C130.671 30.8972 130.021 31.2167 129.446 31.2167C129.107 31.2167 128.826 31.1066 128.602 30.8866C128.377 30.6623 128.265 30.383 128.265 30.0487C128.265 29.5959 128.46 29.1897 128.849 28.83C129.238 28.466 130.087 27.9836 131.395 27.3827V26.786C131.395 26.3374 131.369 26.056 131.318 25.9418C131.272 25.8233 131.181 25.7217 131.045 25.6371C130.91 25.5482 130.758 25.5038 130.588 25.5038C130.313 25.5038 130.087 25.5651 129.909 25.6879C129.799 25.764 129.744 25.8529 129.744 25.9545C129.744 26.0433 129.803 26.1534 129.922 26.2845C130.083 26.4665 130.163 26.6421 130.163 26.8114C130.163 27.0188 130.085 27.1965 129.928 27.3446C129.776 27.4885 129.575 27.5604 129.325 27.5604C129.059 27.5604 128.834 27.48 128.652 27.3192C128.475 27.1584 128.386 26.9701 128.386 26.7543C128.386 26.4496 128.506 26.1597 128.748 25.8846C128.989 25.6053 129.325 25.3916 129.757 25.2435C130.188 25.0954 130.637 25.0214 131.103 25.0214C131.665 25.0214 132.11 25.142 132.436 25.3832C132.766 25.6202 132.979 25.8783 133.077 26.1576C133.136 26.3353 133.166 26.7437 133.166 27.3827V29.6869C133.166 29.9577 133.176 30.1291 133.197 30.201C133.218 30.2688 133.25 30.3195 133.292 30.3534C133.335 30.3872 133.383 30.4042 133.438 30.4042C133.549 30.4042 133.661 30.3259 133.775 30.1693L133.965 30.3217C133.754 30.6348 133.534 30.8633 133.305 31.0072C133.081 31.1469 132.825 31.2167 132.537 31.2167C132.199 31.2167 131.934 31.1384 131.744 30.9818C131.553 30.821 131.437 30.5798 131.395 30.2582ZM131.395 29.7948V27.808C130.882 28.1084 130.502 28.4301 130.252 28.7728C130.087 29.0013 130.004 29.232 130.004 29.4647C130.004 29.6594 130.074 29.8308 130.214 29.9789C130.32 30.0931 130.468 30.1503 130.658 30.1503C130.87 30.1503 131.115 30.0318 131.395 29.7948Z" fill="white"/>
<path d="M131.395 30.2582C130.671 30.8972 130.021 31.2167 129.446 31.2167C129.107 31.2167 128.826 31.1066 128.602 30.8866C128.377 30.6623 128.265 30.383 128.265 30.0487C128.265 29.5959 128.46 29.1897 128.849 28.83C129.238 28.466 130.087 27.9836 131.395 27.3827V26.786C131.395 26.3374 131.369 26.056 131.318 25.9418C131.272 25.8233 131.181 25.7217 131.045 25.6371C130.91 25.5482 130.758 25.5038 130.588 25.5038C130.313 25.5038 130.087 25.5651 129.909 25.6879C129.799 25.764 129.744 25.8529 129.744 25.9545C129.744 26.0433 129.803 26.1534 129.922 26.2845C130.083 26.4665 130.163 26.6421 130.163 26.8114C130.163 27.0188 130.085 27.1965 129.928 27.3446C129.776 27.4885 129.575 27.5604 129.325 27.5604C129.059 27.5604 128.834 27.48 128.652 27.3192C128.475 27.1584 128.386 26.9701 128.386 26.7543C128.386 26.4496 128.506 26.1597 128.748 25.8846C128.989 25.6053 129.325 25.3916 129.757 25.2435C130.188 25.0954 130.637 25.0214 131.103 25.0214C131.665 25.0214 132.11 25.142 132.436 25.3832C132.766 25.6202 132.979 25.8783 133.077 26.1576C133.136 26.3353 133.166 26.7437 133.166 27.3827V29.6869C133.166 29.9577 133.176 30.1291 133.197 30.201C133.218 30.2688 133.25 30.3195 133.292 30.3534C133.335 30.3872 133.383 30.4042 133.438 30.4042C133.549 30.4042 133.661 30.3259 133.775 30.1693L133.965 30.3217C133.754 30.6348 133.534 30.8633 133.305 31.0072C133.081 31.1469 132.825 31.2167 132.537 31.2167C132.199 31.2167 131.934 31.1384 131.744 30.9818C131.553 30.821 131.437 30.5798 131.395 30.2582ZM131.395 29.7948V27.808C130.882 28.1084 130.502 28.4301 130.252 28.7728C130.087 29.0013 130.004 29.232 130.004 29.4647C130.004 29.6594 130.074 29.8308 130.214 29.9789C130.32 30.0931 130.468 30.1503 130.658 30.1503C130.87 30.1503 131.115 30.0318 131.395 29.7948Z" fill="white"/>
<path d="M136.974 23.0282V25.1991H138.383V25.8275H136.974V29.4901C136.974 29.8329 136.989 30.0551 137.019 30.1566C137.052 30.2539 137.11 30.3344 137.19 30.3978C137.27 30.4571 137.344 30.4867 137.412 30.4867C137.687 30.4867 137.947 30.2772 138.193 29.8583L138.383 29.9979C138.041 30.8104 137.484 31.2167 136.714 31.2167C136.337 31.2167 136.018 31.113 135.755 30.9056C135.497 30.6941 135.332 30.4592 135.26 30.201C135.218 30.0572 135.197 29.6678 135.197 29.0331V25.8275H134.422V25.6053C134.956 25.2287 135.408 24.833 135.781 24.4183C136.157 24.0036 136.485 23.5402 136.765 23.0282H136.974Z" fill="white"/>
<path d="M136.974 23.0282V25.1991H138.383V25.8275H136.974V29.4901C136.974 29.8329 136.989 30.0551 137.019 30.1566C137.052 30.2539 137.11 30.3344 137.19 30.3978C137.27 30.4571 137.344 30.4867 137.412 30.4867C137.687 30.4867 137.947 30.2772 138.193 29.8583L138.383 29.9979C138.041 30.8104 137.484 31.2167 136.714 31.2167C136.337 31.2167 136.018 31.113 135.755 30.9056C135.497 30.6941 135.332 30.4592 135.26 30.201C135.218 30.0572 135.197 29.6678 135.197 29.0331V25.8275H134.422V25.6053C134.956 25.2287 135.408 24.833 135.781 24.4183C136.157 24.0036 136.485 23.5402 136.765 23.0282H136.974Z" fill="white"/>
<path d="M140.376 22.3236C140.652 22.3236 140.884 22.4209 141.075 22.6156C141.265 22.806 141.36 23.0367 141.36 23.3075C141.36 23.5783 141.263 23.809 141.068 23.9994C140.878 24.1898 140.647 24.285 140.376 24.285C140.106 24.285 139.875 24.1898 139.685 23.9994C139.494 23.809 139.399 23.5783 139.399 23.3075C139.399 23.0367 139.494 22.806 139.685 22.6156C139.875 22.4209 140.106 22.3236 140.376 22.3236ZM141.265 25.1991V29.9027C141.265 30.3217 141.314 30.5904 141.411 30.7089C141.508 30.8231 141.699 30.8887 141.982 30.9056V31.1342H138.777V30.9056C139.039 30.8972 139.234 30.821 139.361 30.6771C139.445 30.5798 139.488 30.3217 139.488 29.9027V26.4369C139.488 26.0179 139.439 25.7513 139.342 25.6371C139.244 25.5186 139.056 25.4509 138.777 25.434V25.1991H141.265Z" fill="white"/>
<path d="M140.376 22.3236C140.652 22.3236 140.884 22.4209 141.075 22.6156C141.265 22.806 141.36 23.0367 141.36 23.3075C141.36 23.5783 141.263 23.809 141.068 23.9994C140.878 24.1898 140.647 24.285 140.376 24.285C140.106 24.285 139.875 24.1898 139.685 23.9994C139.494 23.809 139.399 23.5783 139.399 23.3075C139.399 23.0367 139.494 22.806 139.685 22.6156C139.875 22.4209 140.106 22.3236 140.376 22.3236ZM141.265 25.1991V29.9027C141.265 30.3217 141.314 30.5904 141.411 30.7089C141.508 30.8231 141.699 30.8887 141.982 30.9056V31.1342H138.777V30.9056C139.039 30.8972 139.234 30.821 139.361 30.6771C139.445 30.5798 139.488 30.3217 139.488 29.9027V26.4369C139.488 26.0179 139.439 25.7513 139.342 25.6371C139.244 25.5186 139.056 25.4509 138.777 25.434V25.1991H141.265Z" fill="white"/>
<path d="M145.366 25.0214C145.882 25.0214 146.362 25.1547 146.807 25.4213C147.251 25.6879 147.587 26.0666 147.816 26.5575C148.049 27.0484 148.165 27.5858 148.165 28.1698C148.165 29.0119 147.951 29.7165 147.524 30.2836C147.008 30.9691 146.295 31.3119 145.385 31.3119C144.492 31.3119 143.804 30.9987 143.322 30.3724C142.839 29.7461 142.598 29.0204 142.598 28.1952C142.598 27.3446 142.844 26.604 143.334 25.9735C143.83 25.3387 144.507 25.0214 145.366 25.0214ZM145.391 25.472C145.175 25.472 144.989 25.5546 144.833 25.7196C144.68 25.8804 144.579 26.202 144.528 26.6844C144.481 27.1626 144.458 27.8291 144.458 28.684C144.458 29.1368 144.488 29.5599 144.547 29.9535C144.593 30.2539 144.693 30.4825 144.845 30.639C144.998 30.7956 145.171 30.8739 145.366 30.8739C145.556 30.8739 145.715 30.821 145.842 30.7152C146.007 30.5713 146.117 30.3703 146.172 30.1122C146.257 29.7102 146.299 28.8977 146.299 27.6747C146.299 26.9553 146.259 26.4623 146.178 26.1957C146.098 25.9248 145.979 25.7281 145.823 25.6053C145.713 25.5165 145.569 25.472 145.391 25.472Z" fill="white"/>
<path d="M145.366 25.0214C145.882 25.0214 146.362 25.1547 146.807 25.4213C147.251 25.6879 147.587 26.0666 147.816 26.5575C148.049 27.0484 148.165 27.5858 148.165 28.1698C148.165 29.0119 147.951 29.7165 147.524 30.2836C147.008 30.9691 146.295 31.3119 145.385 31.3119C144.492 31.3119 143.804 30.9987 143.322 30.3724C142.839 29.7461 142.598 29.0204 142.598 28.1952C142.598 27.3446 142.844 26.604 143.334 25.9735C143.83 25.3387 144.507 25.0214 145.366 25.0214ZM145.391 25.472C145.175 25.472 144.989 25.5546 144.833 25.7196C144.68 25.8804 144.579 26.202 144.528 26.6844C144.481 27.1626 144.458 27.8291 144.458 28.684C144.458 29.1368 144.488 29.5599 144.547 29.9535C144.593 30.2539 144.693 30.4825 144.845 30.639C144.998 30.7956 145.171 30.8739 145.366 30.8739C145.556 30.8739 145.715 30.821 145.842 30.7152C146.007 30.5713 146.117 30.3703 146.172 30.1122C146.257 29.7102 146.299 28.8977 146.299 27.6747C146.299 26.9553 146.259 26.4623 146.178 26.1957C146.098 25.9248 145.979 25.7281 145.823 25.6053C145.713 25.5165 145.569 25.472 145.391 25.472Z" fill="white"/>
<path d="M151.491 25.1991V25.9672C151.796 25.6371 152.088 25.398 152.367 25.2499C152.646 25.0975 152.947 25.0214 153.269 25.0214C153.654 25.0214 153.973 25.1293 154.227 25.3451C154.481 25.5567 154.65 25.8212 154.735 26.1385C154.803 26.3798 154.836 26.8431 154.836 27.5287V29.8392C154.836 30.2963 154.877 30.5819 154.957 30.6962C155.042 30.8062 155.215 30.876 155.478 30.9056V31.1342H152.475V30.9056C152.699 30.876 152.86 30.7829 152.958 30.6263C153.025 30.5205 153.059 30.2582 153.059 29.8392V27.1986C153.059 26.712 153.04 26.4052 153.002 26.2782C152.964 26.1512 152.898 26.0539 152.805 25.9862C152.716 25.9143 152.617 25.8783 152.507 25.8783C152.143 25.8783 151.804 26.1385 151.491 26.6591V29.8392C151.491 30.2836 151.531 30.565 151.612 30.6835C151.696 30.802 151.851 30.876 152.075 30.9056V31.1342H149.073V30.9056C149.322 30.8802 149.5 30.7998 149.606 30.6644C149.678 30.5713 149.714 30.2963 149.714 29.8392V26.4877C149.714 26.0391 149.672 25.7598 149.587 25.6498C149.507 25.5398 149.335 25.4678 149.073 25.434V25.1991H151.491Z" fill="white"/>
<path d="M151.491 25.1991V25.9672C151.796 25.6371 152.088 25.398 152.367 25.2499C152.646 25.0975 152.947 25.0214 153.269 25.0214C153.654 25.0214 153.973 25.1293 154.227 25.3451C154.481 25.5567 154.65 25.8212 154.735 26.1385C154.803 26.3798 154.836 26.8431 154.836 27.5287V29.8392C154.836 30.2963 154.877 30.5819 154.957 30.6962C155.042 30.8062 155.215 30.876 155.478 30.9056V31.1342H152.475V30.9056C152.699 30.876 152.86 30.7829 152.958 30.6263C153.025 30.5205 153.059 30.2582 153.059 29.8392V27.1986C153.059 26.712 153.04 26.4052 153.002 26.2782C152.964 26.1512 152.898 26.0539 152.805 25.9862C152.716 25.9143 152.617 25.8783 152.507 25.8783C152.143 25.8783 151.804 26.1385 151.491 26.6591V29.8392C151.491 30.2836 151.531 30.565 151.612 30.6835C151.696 30.802 151.851 30.876 152.075 30.9056V31.1342H149.073V30.9056C149.322 30.8802 149.5 30.7998 149.606 30.6644C149.678 30.5713 149.714 30.2963 149.714 29.8392V26.4877C149.714 26.0391 149.672 25.7598 149.587 25.6498C149.507 25.5398 149.335 25.4678 149.073 25.434V25.1991H151.491Z" fill="white"/>
<defs>
<clipPath id="clip0_10103_10946">
<rect y="2.5" width="45" height="31" rx="8" fill="white"/>
</clipPath>
</defs>
</svg>
