<?xml version="1.0" encoding="UTF-8"?>
<svg width="20px" height="21px" viewBox="0 0 20 21" version="1.1" xmlns="http://www.w3.org/2000/svg" xmlns:xlink="http://www.w3.org/1999/xlink">
    <title>Download Icon</title>
    <defs>
        <path d="M18.81,13.85 C19.3567619,13.85 19.8,14.2932381 19.8,14.84 L19.8,14.84 L19.8,17.81 C19.8,19.4502857 18.4702857,20.78 16.83,20.78 L16.83,20.78 L2.97,20.78 C1.32971429,20.78 0,19.4502857 0,17.81 L0,17.81 L0,14.84 C0,14.2932381 0.443238098,13.85 0.99,13.85 C1.5367619,13.85 1.98,14.2932381 1.98,14.84 L1.98,14.84 L1.98,17.81 C1.98,18.3567619 2.4232381,18.8 2.97,18.8 L2.97,18.8 L16.83,18.8 C17.3767619,18.8 17.82,18.3567619 17.82,17.81 L17.82,17.81 L17.82,14.84 C17.82,14.2932381 18.2632381,13.85 18.81,13.85 Z M9.9,0 C10.4467619,0 10.89,0.443238098 10.89,0.99 L10.89,0.99 L10.89,11.459 L13.1599643,9.18996429 C13.5168434,8.83308516 14.0784022,8.80563292 14.4667704,9.10760757 L14.5600357,9.18996429 C14.9466548,9.57658334 14.9466548,10.2034167 14.5600357,10.5900357 L14.5600357,10.5900357 L10.89,14.26 L10.89,14.85 C10.89,15.3577075 10.5078202,15.7761521 10.0154549,15.8333395 L9.9,15.84 C9.3532381,15.84 8.91,15.3967619 8.91,14.85 L8.91,14.85 L8.91,14.261 L5.23996429,10.5900357 C4.88308516,10.2331566 4.85563292,9.67159785 5.15760757,9.28322955 L5.23996429,9.18996429 C5.62658334,8.80334524 6.25341666,8.80334524 6.64003571,9.18996429 L6.64003571,9.18996429 L8.91,11.459 L8.91,0.99 C8.91,0.482292519 9.29217979,0.0638479109 9.78454509,0.00666045401 Z" id="path-1"></path>
    </defs>
    <g id="Symbols" stroke="none" stroke-width="1" fill="none" fill-rule="evenodd">
        <g id="Download-attachment-panel" transform="translate(-797.000000, -39.000000)">
            <g id="Download" transform="translate(708.000000, 39.000000)">
                <g id="Download-Icon" transform="translate(89.000000, 0.000000)">
                    <mask id="mask-2" fill="white">
                        <use xlink:href="#path-1"></use>
                    </mask>
                    <use id="Combined-Shape" fill="#34A3BF" fill-rule="nonzero" xlink:href="#path-1"></use>
                </g>
            </g>
        </g>
    </g>
</svg>